PalanquinDark Med.ufo
<glyph name="exclam" format="1">
  <advance width="249"/>
  <unicode hex="0021"/>
  <outline>
    <contour>
      <point x="66" y="245" type="line"/>
      <point x="183" y="200" type="line"/>
      <point x="200" y="706" type="line"/>
      <point x="48" y="706" type="line"/>
    </contour>
    <contour>
      <point x="204" y="79" type="curve" smooth="yes"/>
      <point x="204" y="124"/>
      <point x="169" y="158"/>
      <point x="124" y="158" type="curve" smooth="yes"/>
      <point x="80" y="158"/>
      <point x="45" y="124"/>
      <point x="45" y="79" type="curve" smooth="yes"/>
      <point x="45" y="34"/>
      <point x="80" y="0"/>
      <point x="124" y="0" type="curve" smooth="yes"/>
      <point x="169" y="0"/>
      <point x="204" y="34"/>
    </contour>
  </outline>
</glyph>
<glyph name="quotedbl" format="1">
  <advance width="381"/>
  <unicode hex="0022"/>
  <outline>
    <contour>
      <point x="178" y="647" type="curve" smooth="yes"/>
      <point x="178" y="704"/>
      <point x="142" y="742"/>
      <point x="97" y="742" type="curve" smooth="yes"/>
      <point x="52" y="742"/>
      <point x="18" y="700"/>
      <point x="18" y="662" type="curve" smooth="yes"/>
      <point x="18" y="627"/>
      <point x="46" y="594"/>
      <point x="69" y="589" type="curve"/>
      <point x="61" y="554"/>
      <point x="36" y="533"/>
      <point x="7" y="510" type="curve"/>
      <point x="38" y="442" type="line"/>
      <point x="119" y="482"/>
      <point x="178" y="571"/>
    </contour>
    <contour>
      <point x="371" y="647" type="curve" smooth="yes"/>
      <point x="371" y="704"/>
      <point x="335" y="742"/>
      <point x="291" y="742" type="curve" smooth="yes"/>
      <point x="246" y="742"/>
      <point x="211" y="700"/>
      <point x="211" y="662" type="curve" smooth="yes"/>
      <point x="211" y="627"/>
      <point x="239" y="594"/>
      <point x="263" y="589" type="curve"/>
      <point x="254" y="554"/>
      <point x="229" y="533"/>
      <point x="200" y="510" type="curve"/>
      <point x="231" y="442" type="line"/>
      <point x="311" y="482"/>
      <point x="371" y="571"/>
    </contour>
  </outline>
</glyph>
<glyph name="numbersign" format="1">
  <advance width="586"/>
  <unicode hex="0023"/>
  <outline>
    <contour>
      <point x="533" y="517" type="curve"/>
      <point x="409" y="517" type="line"/>
      <point x="385" y="413" type="line"/>
      <point x="273" y="413" type="line"/>
      <point x="282" y="447"/>
      <point x="290" y="482"/>
      <point x="298" y="517" type="curve"/>
      <point x="174" y="517" type="line"/>
      <point x="150" y="413" type="line"/>
      <point x="20" y="413" type="line"/>
      <point x="31" y="305" type="line"/>
      <point x="124" y="305" type="line"/>
      <point x="116" y="271"/>
      <point x="108" y="237"/>
      <point x="101" y="204" type="curve"/>
      <point x="20" y="204" type="line"/>
      <point x="31" y="96" type="line"/>
      <point x="76" y="96" type="line"/>
      <point x="52" y="-10" type="line"/>
      <point x="174" y="-15" type="line"/>
      <point x="183" y="21"/>
      <point x="191" y="59"/>
      <point x="200" y="96" type="curve"/>
      <point x="312" y="96" type="line"/>
      <point x="288" y="-10" type="line"/>
      <point x="411" y="-15" type="line"/>
      <point x="420" y="21"/>
      <point x="427" y="59"/>
      <point x="436" y="96" type="curve"/>
      <point x="565" y="96" type="line"/>
      <point x="555" y="204" type="line"/>
      <point x="461" y="204" type="line"/>
      <point x="485" y="305" type="line"/>
      <point x="565" y="305" type="line"/>
      <point x="555" y="413" type="line"/>
      <point x="510" y="413" type="line"/>
      <point x="518" y="447"/>
      <point x="526" y="482"/>
    </contour>
    <contour>
      <point x="249" y="305" type="curve"/>
      <point x="360" y="305" type="line"/>
      <point x="336" y="204" type="line"/>
      <point x="226" y="204" type="line"/>
      <point x="233" y="237"/>
      <point x="241" y="271"/>
    </contour>
  </outline>
</glyph>
<glyph name="dollar" format="1">
  <advance width="556"/>
  <unicode hex="0024"/>
  <outline>
    <contour>
      <point x="147" y="-125" type="line"/>
      <point x="245" y="-125" type="line"/>
      <point x="245" y="-13" type="line"/>
      <point x="258" y="-13" type="line" smooth="yes"/>
      <point x="272" y="-13"/>
      <point x="286" y="-12"/>
      <point x="299" y="-11" type="curve"/>
      <point x="299" y="-115" type="line"/>
      <point x="398" y="-126" type="line"/>
      <point x="398" y="11" type="line"/>
      <point x="474" y="44"/>
      <point x="518" y="104"/>
      <point x="518" y="178" type="curve" smooth="yes"/>
      <point x="518" y="375"/>
      <point x="193" y="409"/>
      <point x="193" y="508" type="curve" smooth="yes"/>
      <point x="193" y="543"/>
      <point x="235" y="570"/>
      <point x="283" y="570" type="curve" smooth="yes"/>
      <point x="338" y="570"/>
      <point x="378" y="553"/>
      <point x="429" y="532" type="curve"/>
      <point x="445" y="569"/>
      <point x="461" y="605"/>
      <point x="476" y="642" type="curve"/>
      <point x="454" y="653"/>
      <point x="429" y="665"/>
      <point x="402" y="673" type="curve"/>
      <point x="402" y="805" type="line"/>
      <point x="303" y="805" type="line"/>
      <point x="303" y="693" type="line"/>
      <point x="295" y="694"/>
      <point x="289" y="695"/>
      <point x="281" y="695" type="curve" smooth="yes"/>
      <point x="271" y="695"/>
      <point x="260" y="694"/>
      <point x="250" y="693" type="curve"/>
      <point x="250" y="801" type="line"/>
      <point x="153" y="805" type="line"/>
      <point x="153" y="669" type="line"/>
      <point x="81" y="637"/>
      <point x="41" y="578"/>
      <point x="41" y="507" type="curve" smooth="yes"/>
      <point x="41" y="304"/>
      <point x="366" y="276"/>
      <point x="366" y="180" type="curve" smooth="yes"/>
      <point x="366" y="139"/>
      <point x="329" y="113"/>
      <point x="255" y="113" type="curve" smooth="yes"/>
      <point x="201" y="113"/>
      <point x="128" y="138"/>
      <point x="89" y="159" type="curve"/>
      <point x="76" y="120"/>
      <point x="64" y="82"/>
      <point x="50" y="44" type="curve"/>
      <point x="69" y="30"/>
      <point x="107" y="15"/>
      <point x="147" y="3" type="curve"/>
    </contour>
  </outline>
</glyph>
<glyph name="percent" format="1">
  <advance width="955"/>
  <unicode hex="0025"/>
  <outline>
    <contour>
      <point x="699" y="706" type="line"/>
      <point x="549" y="706" type="line"/>
      <point x="251" y="0" type="line"/>
      <point x="401" y="0" type="line"/>
    </contour>
    <contour>
      <point x="27" y="528" type="curve" smooth="yes"/>
      <point x="27" y="420"/>
      <point x="103" y="354"/>
      <point x="196" y="354" type="curve" smooth="yes"/>
      <point x="290" y="354"/>
      <point x="369" y="421"/>
      <point x="369" y="528" type="curve" smooth="yes"/>
      <point x="369" y="636"/>
      <point x="294" y="702"/>
      <point x="198" y="702" type="curve" smooth="yes"/>
      <point x="105" y="702"/>
      <point x="27" y="636"/>
    </contour>
    <contour>
      <point x="199" y="598" type="curve" smooth="yes"/>
      <point x="231" y="598"/>
      <point x="251" y="572"/>
      <point x="251" y="527" type="curve" smooth="yes"/>
      <point x="251" y="480"/>
      <point x="228" y="457"/>
      <point x="197" y="457" type="curve" smooth="yes"/>
      <point x="166" y="457"/>
      <point x="146" y="480"/>
      <point x="146" y="529" type="curve" smooth="yes"/>
      <point x="146" y="575"/>
      <point x="170" y="598"/>
    </contour>
    <contour>
      <point x="586" y="174" type="curve" smooth="yes"/>
      <point x="586" y="65"/>
      <point x="661" y="0"/>
      <point x="755" y="0" type="curve" smooth="yes"/>
      <point x="848" y="0"/>
      <point x="927" y="67"/>
      <point x="927" y="174" type="curve" smooth="yes"/>
      <point x="927" y="283"/>
      <point x="852" y="347"/>
      <point x="757" y="347" type="curve" smooth="yes"/>
      <point x="663" y="347"/>
      <point x="586" y="283"/>
    </contour>
    <contour>
      <point x="757" y="244" type="curve" smooth="yes"/>
      <point x="789" y="244"/>
      <point x="809" y="218"/>
      <point x="809" y="173" type="curve" smooth="yes"/>
      <point x="809" y="126"/>
      <point x="787" y="102"/>
      <point x="756" y="102" type="curve" smooth="yes"/>
      <point x="724" y="102"/>
      <point x="704" y="126"/>
      <point x="704" y="175" type="curve" smooth="yes"/>
      <point x="704" y="221"/>
      <point x="728" y="244"/>
    </contour>
  </outline>
</glyph>
<glyph name="ampersand" format="1">
  <advance width="690"/>
  <unicode hex="0026"/>
  <outline>
    <contour>
      <point x="328" y="571" type="curve" smooth="yes"/>
      <point x="380" y="571"/>
      <point x="422" y="553"/>
      <point x="465" y="531" type="curve"/>
      <point x="511" y="641" type="line"/>
      <point x="456" y="672"/>
      <point x="390" y="696"/>
      <point x="320" y="696" type="curve" smooth="yes"/>
      <point x="190" y="696"/>
      <point x="104" y="606"/>
      <point x="104" y="501" type="curve" smooth="yes"/>
      <point x="104" y="463"/>
      <point x="115" y="431"/>
      <point x="134" y="403" type="curve"/>
      <point x="79" y="355"/>
      <point x="41" y="287"/>
      <point x="41" y="217" type="curve" smooth="yes"/>
      <point x="41" y="63"/>
      <point x="161" y="-15"/>
      <point x="310" y="-15" type="curve" smooth="yes"/>
      <point x="390" y="-15"/>
      <point x="456" y="9"/>
      <point x="506" y="51" type="curve"/>
      <point x="582" y="-16" type="line"/>
      <point x="611" y="19"/>
      <point x="640" y="56"/>
      <point x="669" y="92" type="curve"/>
      <point x="591" y="159" type="line"/>
      <point x="618" y="214"/>
      <point x="635" y="277"/>
      <point x="640" y="344" type="curve"/>
      <point x="597" y="362"/>
      <point x="553" y="379"/>
      <point x="509" y="397" type="curve"/>
      <point x="506" y="347"/>
      <point x="495" y="299"/>
      <point x="479" y="258" type="curve"/>
      <point x="329" y="391" type="line" smooth="yes"/>
      <point x="276" y="438"/>
      <point x="254" y="470"/>
      <point x="254" y="506" type="curve" smooth="yes"/>
      <point x="254" y="537"/>
      <point x="277" y="571"/>
    </contour>
    <contour>
      <point x="311" y="112" type="curve" smooth="yes"/>
      <point x="247" y="112"/>
      <point x="195" y="146"/>
      <point x="195" y="220" type="curve" smooth="yes"/>
      <point x="195" y="250"/>
      <point x="206" y="279"/>
      <point x="226" y="304" type="curve"/>
      <point x="246" y="286" type="line" smooth="yes"/>
      <point x="299" y="238"/>
      <point x="352" y="191"/>
      <point x="404" y="143" type="curve"/>
      <point x="378" y="123"/>
      <point x="347" y="112"/>
    </contour>
  </outline>
</glyph>
<glyph name="parenleft" format="1">
  <advance width="307"/>
  <unicode hex="0028"/>
  <outline>
    <contour>
      <point x="41" y="321" type="curve" smooth="yes"/>
      <point x="41" y="188"/>
      <point x="89" y="65"/>
      <point x="168" y="-39" type="curve"/>
      <point x="289" y="-1" type="line"/>
      <point x="232" y="69"/>
      <point x="182" y="219"/>
      <point x="182" y="322" type="curve" smooth="yes"/>
      <point x="182" y="422"/>
      <point x="232" y="566"/>
      <point x="290" y="645" type="curve"/>
      <point x="168" y="682" type="line"/>
      <point x="86" y="566"/>
      <point x="41" y="451"/>
    </contour>
  </outline>
</glyph>
<glyph name="parenright" format="1">
  <advance width="307"/>
  <unicode hex="0029"/>
  <outline>
    <contour>
      <point x="266" y="321" type="curve" smooth="yes"/>
      <point x="266" y="454"/>
      <point x="217" y="577"/>
      <point x="139" y="682" type="curve"/>
      <point x="18" y="643" type="line"/>
      <point x="75" y="575"/>
      <point x="124" y="423"/>
      <point x="124" y="321" type="curve" smooth="yes"/>
      <point x="124" y="221"/>
      <point x="75" y="77"/>
      <point x="17" y="-2" type="curve"/>
      <point x="138" y="-39" type="line"/>
      <point x="219" y="77"/>
      <point x="266" y="192"/>
    </contour>
  </outline>
</glyph>
<glyph name="asterisk" format="1">
  <advance width="400"/>
  <unicode hex="002A"/>
  <outline>
    <contour>
      <point x="201" y="511" type="curve"/>
      <point x="271" y="414" type="line"/>
      <point x="362" y="480" type="line"/>
      <point x="292" y="575" type="line"/>
      <point x="390" y="594" type="line"/>
      <point x="359" y="698" type="line"/>
      <point x="259" y="674" type="line"/>
      <point x="259" y="772" type="line"/>
      <point x="143" y="772" type="line"/>
      <point x="142" y="748"/>
      <point x="141" y="695"/>
      <point x="141" y="674" type="curve"/>
      <point x="42" y="698" type="line"/>
      <point x="11" y="594" type="line"/>
      <point x="13" y="594"/>
      <point x="15" y="593"/>
      <point x="17" y="593" type="curve" smooth="yes"/>
      <point x="42" y="589"/>
      <point x="89" y="581"/>
      <point x="109" y="575" type="curve"/>
      <point x="39" y="480" type="line"/>
      <point x="131" y="414" type="line"/>
      <point x="137" y="423"/>
      <point x="193" y="502"/>
    </contour>
  </outline>
</glyph>
<glyph name="plus" format="1">
  <advance width="527"/>
  <unicode hex="002B"/>
  <outline>
    <contour>
      <point x="510" y="217" type="line"/>
      <point x="500" y="331" type="line"/>
      <point x="336" y="331" type="line"/>
      <point x="336" y="531" type="line"/>
      <point x="199" y="531" type="line"/>
      <point x="199" y="331" type="line"/>
      <point x="17" y="331" type="line"/>
      <point x="26" y="217" type="line"/>
      <point x="199" y="217" type="line"/>
      <point x="199" y="8" type="line"/>
      <point x="336" y="3" type="line"/>
      <point x="336" y="217" type="line"/>
    </contour>
  </outline>
</glyph>
<glyph name="comma" format="1">
  <advance width="196"/>
  <unicode hex="002C"/>
  <outline>
    <contour>
      <point x="182" y="51" type="curve" smooth="yes"/>
      <point x="182" y="107"/>
      <point x="145" y="146"/>
      <point x="100" y="146" type="curve" smooth="yes"/>
      <point x="56" y="146"/>
      <point x="22" y="105"/>
      <point x="22" y="66" type="curve" smooth="yes"/>
      <point x="22" y="31"/>
      <point x="49" y="-3"/>
      <point x="73" y="-8" type="curve"/>
      <point x="65" y="-42"/>
      <point x="40" y="-63"/>
      <point x="10" y="-86" type="curve"/>
      <point x="41" y="-154" type="line"/>
      <point x="122" y="-114"/>
      <point x="182" y="-25"/>
    </contour>
  </outline>
</glyph>
<glyph name="hyphen" format="1">
  <advance width="313"/>
  <unicode hex="002D"/>
  <outline>
    <contour>
      <point x="296" y="216" type="line"/>
      <point x="286" y="332" type="line"/>
      <point x="17" y="332" type="line"/>
      <point x="28" y="216" type="line"/>
    </contour>
  </outline>
</glyph>
<glyph name="period" format="1">
  <advance width="179"/>
  <unicode hex="002E"/>
  <outline>
    <contour>
      <point x="168" y="79" type="curve" smooth="yes"/>
      <point x="168" y="124"/>
      <point x="134" y="158"/>
      <point x="90" y="158" type="curve" smooth="yes"/>
      <point x="45" y="158"/>
      <point x="10" y="124"/>
      <point x="10" y="79" type="curve" smooth="yes"/>
      <point x="10" y="34"/>
      <point x="45" y="0"/>
      <point x="90" y="0" type="curve" smooth="yes"/>
      <point x="134" y="0"/>
      <point x="168" y="34"/>
    </contour>
  </outline>
</glyph>
<glyph name="zero" format="1">
  <advance width="640"/>
  <unicode hex="0030"/>
  <outline>
    <contour>
      <point x="320" y="579" type="curve" smooth="yes"/>
      <point x="167" y="579"/>
      <point x="48" y="470"/>
      <point x="48" y="285" type="curve" smooth="yes"/>
      <point x="48" y="95"/>
      <point x="170" y="-13"/>
      <point x="319" y="-13" type="curve" smooth="yes"/>
      <point x="471" y="-13"/>
      <point x="591" y="101"/>
      <point x="591" y="287" type="curve" smooth="yes"/>
      <point x="591" y="476"/>
      <point x="474" y="579"/>
    </contour>
    <contour>
      <point x="320" y="110" type="curve" smooth="yes"/>
      <point x="248" y="110"/>
      <point x="190" y="173"/>
      <point x="190" y="288" type="curve" smooth="yes"/>
      <point x="190" y="396"/>
      <point x="250" y="456"/>
      <point x="319" y="456" type="curve" smooth="yes"/>
      <point x="392" y="456"/>
      <point x="451" y="396"/>
      <point x="451" y="283" type="curve" smooth="yes"/>
      <point x="451" y="173"/>
      <point x="390" y="110"/>
    </contour>
  </outline>
</glyph>
<glyph name="one" format="1">
  <advance width="461"/>
  <unicode hex="0031"/>
  <outline>
    <contour>
      <point x="61" y="107" type="line"/>
      <point x="73" y="0" type="line"/>
      <point x="419" y="0" type="line"/>
      <point x="414" y="35"/>
      <point x="411" y="71"/>
      <point x="406" y="107" type="curve"/>
      <point x="326" y="107" type="line"/>
      <point x="326" y="566" type="line"/>
      <point x="227" y="566" type="line"/>
      <point x="51" y="469" type="line"/>
      <point x="118" y="359" type="line"/>
      <point x="178" y="391" type="line"/>
      <point x="178" y="107" type="line"/>
    </contour>
  </outline>
</glyph>
<glyph name="two" format="1">
  <advance width="513"/>
  <unicode hex="0032"/>
  <outline>
    <contour>
      <point x="445" y="401" type="curve" smooth="yes"/>
      <point x="445" y="490"/>
      <point x="395" y="579"/>
      <point x="238" y="579" type="curve" smooth="yes"/>
      <point x="144" y="579"/>
      <point x="75" y="534"/>
      <point x="35" y="502" type="curve"/>
      <point x="98" y="403" type="line"/>
      <point x="113" y="413"/>
      <point x="186" y="460"/>
      <point x="234" y="460" type="curve" smooth="yes"/>
      <point x="284" y="460"/>
      <point x="313" y="432"/>
      <point x="313" y="396" type="curve" smooth="yes"/>
      <point x="312" y="359"/>
      <point x="293" y="324"/>
      <point x="223" y="263" type="curve" smooth="yes"/>
      <point x="35" y="98" type="line"/>
      <point x="35" y="0" type="line"/>
      <point x="472" y="0" type="line"/>
      <point x="455" y="114" type="line"/>
      <point x="235" y="114" type="line"/>
      <point x="309" y="175" type="line" smooth="yes"/>
      <point x="405" y="256"/>
      <point x="445" y="319"/>
    </contour>
  </outline>
</glyph>
<glyph name="three" format="1">
  <advance width="546"/>
  <unicode hex="0033"/>
  <outline>
    <contour>
      <point x="480" y="404" type="curve" smooth="yes"/>
      <point x="480" y="502"/>
      <point x="402" y="579"/>
      <point x="258" y="579" type="curve" smooth="yes"/>
      <point x="179" y="579"/>
      <point x="105" y="555"/>
      <point x="38" y="508" type="curve"/>
      <point x="108" y="409" type="line"/>
      <point x="148" y="436"/>
      <point x="198" y="460"/>
      <point x="250" y="460" type="curve" smooth="yes"/>
      <point x="306" y="460"/>
      <point x="338" y="432"/>
      <point x="338" y="397" type="curve" smooth="yes"/>
      <point x="338" y="353"/>
      <point x="293" y="324"/>
      <point x="219" y="324" type="curve" smooth="yes"/>
      <point x="147" y="324" type="line"/>
      <point x="164" y="209" type="line"/>
      <point x="226" y="209" type="line" smooth="yes"/>
      <point x="311" y="209"/>
      <point x="350" y="176"/>
      <point x="350" y="122" type="curve" smooth="yes"/>
      <point x="350" y="72"/>
      <point x="301" y="42"/>
      <point x="247" y="42" type="curve" smooth="yes"/>
      <point x="192" y="42"/>
      <point x="150" y="56"/>
      <point x="95" y="89" type="curve"/>
      <point x="19" y="-9" type="line"/>
      <point x="85" y="-47"/>
      <point x="171" y="-77"/>
      <point x="245" y="-77" type="curve" smooth="yes"/>
      <point x="396" y="-77"/>
      <point x="491" y="8"/>
      <point x="491" y="121" type="curve" smooth="yes"/>
      <point x="491" y="196"/>
      <point x="442" y="257"/>
      <point x="401" y="273" type="curve"/>
      <point x="439" y="290"/>
      <point x="480" y="347"/>
    </contour>
  </outline>
</glyph>
<glyph name="four" format="1">
  <advance width="604"/>
  <unicode hex="0034"/>
  <outline>
    <contour>
      <point x="563" y="57" type="line"/>
      <point x="574" y="176" type="line"/>
      <point x="471" y="176" type="line"/>
      <point x="471" y="571" type="line"/>
      <point x="361" y="571" type="line"/>
      <point x="27" y="173" type="line"/>
      <point x="46" y="57" type="line"/>
      <point x="323" y="57" type="line"/>
      <point x="323" y="-67" type="line"/>
      <point x="471" y="-67" type="line"/>
      <point x="471" y="57" type="line"/>
    </contour>
    <contour>
      <point x="192" y="176" type="line"/>
      <point x="323" y="341" type="line"/>
      <point x="323" y="176" type="line"/>
    </contour>
  </outline>
</glyph>
<glyph name="five" format="1">
  <advance width="542"/>
  <unicode hex="0035"/>
  <outline>
    <contour>
      <point x="77" y="197" type="line"/>
      <point x="205" y="197" type="line"/>
      <point x="213" y="218"/>
      <point x="241" y="243"/>
      <point x="282" y="243" type="curve" smooth="yes"/>
      <point x="333" y="243"/>
      <point x="370" y="208"/>
      <point x="370" y="149" type="curve" smooth="yes"/>
      <point x="370" y="86"/>
      <point x="322" y="47"/>
      <point x="258" y="47" type="curve" smooth="yes"/>
      <point x="201" y="47"/>
      <point x="160" y="62"/>
      <point x="104" y="93" type="curve"/>
      <point x="31" y="-10" type="line"/>
      <point x="93" y="-47"/>
      <point x="181" y="-77"/>
      <point x="255" y="-77" type="curve" smooth="yes"/>
      <point x="410" y="-77"/>
      <point x="504" y="16"/>
      <point x="504" y="149" type="curve" smooth="yes"/>
      <point x="504" y="264"/>
      <point x="431" y="363"/>
      <point x="286" y="363" type="curve" smooth="yes"/>
      <point x="258" y="363"/>
      <point x="236" y="358"/>
      <point x="216" y="347" type="curve"/>
      <point x="220" y="448" type="line"/>
      <point x="455" y="448" type="line"/>
      <point x="471" y="566" type="line"/>
      <point x="95" y="566" type="line"/>
    </contour>
  </outline>
</glyph>
<glyph name="six" format="1">
  <advance width="578"/>
  <unicode hex="0036"/>
  <outline>
    <contour>
      <point x="427" y="536" type="curve"/>
      <point x="361" y="634" type="line"/>
      <point x="176" y="595"/>
      <point x="48" y="415"/>
      <point x="48" y="264" type="curve" smooth="yes"/>
      <point x="48" y="79"/>
      <point x="168" y="-13"/>
      <point x="322" y="-13" type="curve" smooth="yes"/>
      <point x="459" y="-13"/>
      <point x="547" y="92"/>
      <point x="547" y="206" type="curve" smooth="yes"/>
      <point x="547" y="317"/>
      <point x="455" y="409"/>
      <point x="322" y="409" type="curve" smooth="yes"/>
      <point x="288" y="409"/>
      <point x="250" y="395"/>
      <point x="217" y="375" type="curve"/>
      <point x="259" y="452"/>
      <point x="342" y="516"/>
    </contour>
    <contour>
      <point x="309" y="304" type="curve" smooth="yes"/>
      <point x="372" y="304"/>
      <point x="407" y="254"/>
      <point x="407" y="201" type="curve" smooth="yes"/>
      <point x="407" y="154"/>
      <point x="372" y="107"/>
      <point x="315" y="107" type="curve" smooth="yes"/>
      <point x="244" y="107"/>
      <point x="202" y="154"/>
      <point x="191" y="230" type="curve"/>
      <point x="209" y="267"/>
      <point x="254" y="304"/>
    </contour>
  </outline>
</glyph>
<glyph name="seven" format="1">
  <advance width="513"/>
  <unicode hex="0037"/>
  <outline>
    <contour>
      <point x="41" y="-33" type="line"/>
      <point x="182" y="-72" type="line"/>
      <point x="496" y="507" type="line"/>
      <point x="459" y="566" type="line"/>
      <point x="37" y="566" type="line"/>
      <point x="53" y="448" type="line"/>
      <point x="307" y="448" type="line"/>
    </contour>
  </outline>
</glyph>
<glyph name="eight" format="1">
  <advance width="583"/>
  <unicode hex="0038"/>
  <outline>
    <contour>
      <point x="292" y="-13" type="curve" smooth="yes"/>
      <point x="445" y="-13"/>
      <point x="534" y="75"/>
      <point x="534" y="189" type="curve" smooth="yes"/>
      <point x="534" y="253"/>
      <point x="485" y="317"/>
      <point x="432" y="340" type="curve"/>
      <point x="477" y="365"/>
      <point x="510" y="412"/>
      <point x="510" y="464" type="curve" smooth="yes"/>
      <point x="510" y="566"/>
      <point x="421" y="643"/>
      <point x="292" y="643" type="curve" smooth="yes"/>
      <point x="161" y="643"/>
      <point x="73" y="566"/>
      <point x="73" y="464" type="curve" smooth="yes"/>
      <point x="73" y="412"/>
      <point x="106" y="365"/>
      <point x="150" y="340" type="curve"/>
      <point x="98" y="317"/>
      <point x="48" y="253"/>
      <point x="48" y="189" type="curve" smooth="yes"/>
      <point x="48" y="72"/>
      <point x="140" y="-13"/>
    </contour>
    <contour>
      <point x="291" y="106" type="curve" smooth="yes"/>
      <point x="239" y="106"/>
      <point x="188" y="140"/>
      <point x="188" y="190" type="curve" smooth="yes"/>
      <point x="188" y="232"/>
      <point x="223" y="275"/>
      <point x="292" y="286" type="curve"/>
      <point x="359" y="275"/>
      <point x="395" y="232"/>
      <point x="395" y="190" type="curve" smooth="yes"/>
      <point x="395" y="140"/>
      <point x="343" y="106"/>
    </contour>
    <contour>
      <point x="213" y="461" type="curve"/>
      <point x="213" y="492"/>
      <point x="245" y="523"/>
      <point x="290" y="523" type="curve" smooth="yes"/>
      <point x="338" y="523"/>
      <point x="370" y="492"/>
      <point x="370" y="461" type="curve" smooth="yes"/>
      <point x="370" y="423"/>
      <point x="343" y="395"/>
      <point x="292" y="386" type="curve"/>
      <point x="241" y="395"/>
      <point x="213" y="422"/>
    </contour>
  </outline>
</glyph>
<glyph name="nine" format="1">
  <advance width="578"/>
  <unicode hex="0039"/>
  <outline>
    <contour>
      <point x="149" y="30" type="curve"/>
      <point x="217" y="-69" type="line"/>
      <point x="402" y="-28"/>
      <point x="529" y="151"/>
      <point x="529" y="302" type="curve" smooth="yes"/>
      <point x="529" y="487"/>
      <point x="413" y="579"/>
      <point x="259" y="579" type="curve" smooth="yes"/>
      <point x="122" y="579"/>
      <point x="31" y="474"/>
      <point x="31" y="360" type="curve" smooth="yes"/>
      <point x="31" y="249"/>
      <point x="125" y="157"/>
      <point x="259" y="157" type="curve" smooth="yes"/>
      <point x="291" y="157"/>
      <point x="327" y="169"/>
      <point x="358" y="189" type="curve"/>
      <point x="316" y="112"/>
      <point x="235" y="50"/>
    </contour>
    <contour>
      <point x="268" y="262" type="curve" smooth="yes"/>
      <point x="205" y="262"/>
      <point x="171" y="312"/>
      <point x="171" y="365" type="curve" smooth="yes"/>
      <point x="171" y="412"/>
      <point x="205" y="459"/>
      <point x="263" y="459" type="curve" smooth="yes"/>
      <point x="333" y="459"/>
      <point x="375" y="413"/>
      <point x="387" y="335" type="curve"/>
      <point x="368" y="299"/>
      <point x="324" y="262"/>
    </contour>
  </outline>
</glyph>
<glyph name="colon" format="1">
  <advance width="179"/>
  <unicode hex="003A"/>
  <outline>
    <contour>
      <point x="168" y="79" type="curve" smooth="yes"/>
      <point x="168" y="124"/>
      <point x="134" y="158"/>
      <point x="90" y="158" type="curve" smooth="yes"/>
      <point x="45" y="158"/>
      <point x="10" y="124"/>
      <point x="10" y="79" type="curve" smooth="yes"/>
      <point x="10" y="34"/>
      <point x="45" y="0"/>
      <point x="90" y="0" type="curve" smooth="yes"/>
      <point x="134" y="0"/>
      <point x="168" y="34"/>
    </contour>
    <contour>
      <point x="168" y="395" type="curve" smooth="yes"/>
      <point x="168" y="439"/>
      <point x="134" y="475"/>
      <point x="90" y="475" type="curve" smooth="yes"/>
      <point x="45" y="475"/>
      <point x="10" y="439"/>
      <point x="10" y="395" type="curve" smooth="yes"/>
      <point x="10" y="351"/>
      <point x="45" y="316"/>
      <point x="90" y="316" type="curve" smooth="yes"/>
      <point x="134" y="316"/>
      <point x="168" y="351"/>
    </contour>
  </outline>
</glyph>
<glyph name="semicolon" format="1">
  <advance width="193"/>
  <unicode hex="003B"/>
  <outline>
    <contour>
      <point x="179" y="395" type="curve" smooth="yes"/>
      <point x="179" y="439"/>
      <point x="144" y="475"/>
      <point x="100" y="475" type="curve" smooth="yes"/>
      <point x="55" y="475"/>
      <point x="19" y="439"/>
      <point x="19" y="395" type="curve" smooth="yes"/>
      <point x="19" y="351"/>
      <point x="55" y="316"/>
      <point x="100" y="316" type="curve" smooth="yes"/>
      <point x="144" y="316"/>
      <point x="179" y="351"/>
    </contour>
    <contour>
      <point x="178" y="63" type="curve" smooth="yes"/>
      <point x="178" y="119"/>
      <point x="142" y="158"/>
      <point x="97" y="158" type="curve" smooth="yes"/>
      <point x="53" y="158"/>
      <point x="18" y="117"/>
      <point x="18" y="78" type="curve" smooth="yes"/>
      <point x="18" y="43"/>
      <point x="46" y="9"/>
      <point x="69" y="4" type="curve"/>
      <point x="61" y="-30"/>
      <point x="36" y="-51"/>
      <point x="6" y="-74" type="curve"/>
      <point x="38" y="-142" type="line"/>
      <point x="119" y="-102"/>
      <point x="178" y="-13"/>
    </contour>
  </outline>
</glyph>
<glyph name="less" format="1">
  <advance width="357"/>
  <unicode hex="003C"/>
  <outline>
    <contour>
      <point x="304" y="12" type="line"/>
      <point x="330" y="137" type="line"/>
      <point x="173" y="248" type="line"/>
      <point x="330" y="358" type="line"/>
      <point x="304" y="482" type="line"/>
      <point x="21" y="280" type="line"/>
      <point x="21" y="215" type="line"/>
    </contour>
  </outline>
</glyph>
<glyph name="equal" format="1">
  <advance width="506"/>
  <unicode hex="003D"/>
  <outline>
    <contour>
      <point x="486" y="96" type="line"/>
      <point x="476" y="204" type="line"/>
      <point x="21" y="204" type="line"/>
      <point x="32" y="96" type="line"/>
    </contour>
    <contour>
      <point x="486" y="305" type="line"/>
      <point x="476" y="414" type="line"/>
      <point x="21" y="414" type="line"/>
      <point x="32" y="305" type="line"/>
    </contour>
  </outline>
</glyph>
<glyph name="greater" format="1">
  <advance width="357"/>
  <unicode hex="003E"/>
  <outline>
    <contour>
      <point x="54" y="482" type="line"/>
      <point x="27" y="357" type="line"/>
      <point x="184" y="247" type="line"/>
      <point x="27" y="136" type="line"/>
      <point x="54" y="12" type="line"/>
      <point x="337" y="214" type="line"/>
      <point x="337" y="280" type="line"/>
    </contour>
  </outline>
</glyph>
<glyph name="question" format="1">
  <advance width="439"/>
  <unicode hex="003F"/>
  <outline>
    <contour>
      <point x="419" y="518" type="curve" smooth="yes"/>
      <point x="419" y="627"/>
      <point x="343" y="701"/>
      <point x="207" y="701" type="curve" smooth="yes"/>
      <point x="139" y="701"/>
      <point x="77" y="685"/>
      <point x="14" y="646" type="curve"/>
      <point x="33" y="519" type="line"/>
      <point x="105" y="565"/>
      <point x="165" y="580"/>
      <point x="204" y="580" type="curve" smooth="yes"/>
      <point x="246" y="580"/>
      <point x="278" y="556"/>
      <point x="278" y="517" type="curve" smooth="yes"/>
      <point x="278" y="469"/>
      <point x="211" y="419"/>
      <point x="119" y="389" type="curve"/>
      <point x="126" y="226" type="line"/>
      <point x="235" y="187" type="line"/>
      <point x="251" y="317" type="line"/>
      <point x="355" y="366"/>
      <point x="419" y="442"/>
    </contour>
    <contour>
      <point x="252" y="79" type="curve" smooth="yes"/>
      <point x="252" y="124"/>
      <point x="217" y="158"/>
      <point x="173" y="158" type="curve" smooth="yes"/>
      <point x="128" y="158"/>
      <point x="93" y="124"/>
      <point x="93" y="79" type="curve" smooth="yes"/>
      <point x="93" y="34"/>
      <point x="128" y="0"/>
      <point x="173" y="0" type="curve" smooth="yes"/>
      <point x="217" y="0"/>
      <point x="252" y="34"/>
    </contour>
  </outline>
</glyph>
<glyph name="at" format="1">
  <advance width="817"/>
  <unicode hex="0040"/>
  <outline>
    <contour>
      <point x="588" y="387" type="line"/>
      <point x="551" y="434" type="line"/>
      <point x="520" y="436"/>
      <point x="489" y="438"/>
      <point x="458" y="438" type="curve" smooth="yes"/>
      <point x="338" y="438"/>
      <point x="234" y="351"/>
      <point x="234" y="224" type="curve" smooth="yes"/>
      <point x="234" y="127"/>
      <point x="291" y="59"/>
      <point x="415" y="59" type="curve" smooth="yes"/>
      <point x="444" y="59"/>
      <point x="474" y="68"/>
      <point x="497" y="81" type="curve"/>
      <point x="518" y="65"/>
      <point x="546" y="57"/>
      <point x="573" y="57" type="curve" smooth="yes"/>
      <point x="682" y="57"/>
      <point x="778" y="142"/>
      <point x="778" y="307" type="curve" smooth="yes"/>
      <point x="778" y="480"/>
      <point x="636" y="611"/>
      <point x="445" y="611" type="curve" smooth="yes"/>
      <point x="197" y="611"/>
      <point x="44" y="433"/>
      <point x="44" y="229" type="curve" smooth="yes"/>
      <point x="44" y="21"/>
      <point x="217" y="-101"/>
      <point x="397" y="-101" type="curve" smooth="yes"/>
      <point x="463" y="-101"/>
      <point x="533" y="-97"/>
      <point x="609" y="-57" type="curve"/>
      <point x="597" y="-23"/>
      <point x="586" y="9"/>
      <point x="573" y="42" type="curve"/>
      <point x="521" y="17"/>
      <point x="448" y="10"/>
      <point x="406" y="10" type="curve" smooth="yes"/>
      <point x="284" y="10"/>
      <point x="174" y="89"/>
      <point x="174" y="226" type="curve" smooth="yes"/>
      <point x="174" y="392"/>
      <point x="302" y="497"/>
      <point x="446" y="497" type="curve" smooth="yes"/>
      <point x="578" y="497"/>
      <point x="657" y="412"/>
      <point x="657" y="302" type="curve" smooth="yes"/>
      <point x="657" y="220"/>
      <point x="615" y="171"/>
      <point x="581" y="171" type="curve" smooth="yes"/>
      <point x="574" y="171"/>
      <point x="565" y="180"/>
      <point x="565" y="195" type="curve"/>
    </contour>
    <contour>
      <point x="413" y="174" type="curve" smooth="yes"/>
      <point x="373" y="174"/>
      <point x="358" y="201"/>
      <point x="358" y="227" type="curve" smooth="yes"/>
      <point x="358" y="294"/>
      <point x="407" y="333"/>
      <point x="464" y="333" type="curve"/>
      <point x="455" y="277"/>
      <point x="457" y="174"/>
    </contour>
  </outline>
</glyph>
<glyph name="B" format="1">
  <advance width="649"/>
  <unicode hex="0042"/>
  <outline>
    <contour>
      <point x="566" y="486" type="curve"/>
      <point x="566" y="626"/>
      <point x="464" y="680"/>
      <point x="324" y="680" type="curve" smooth="yes"/>
      <point x="79" y="680" type="line"/>
      <point x="79" y="0" type="line"/>
      <point x="351" y="0" type="line" smooth="yes"/>
      <point x="497" y="0"/>
      <point x="606" y="64"/>
      <point x="606" y="200" type="curve" smooth="yes"/>
      <point x="606" y="278"/>
      <point x="565" y="332"/>
      <point x="506" y="366" type="curve"/>
      <point x="541" y="396"/>
      <point x="565" y="436"/>
    </contour>
    <contour>
      <point x="351" y="291" type="line" smooth="yes"/>
      <point x="414" y="291"/>
      <point x="454" y="259"/>
      <point x="454" y="201" type="curve" smooth="yes"/>
      <point x="454" y="147"/>
      <point x="411" y="118"/>
      <point x="345" y="118" type="curve" smooth="yes"/>
      <point x="225" y="118" type="line"/>
      <point x="225" y="291" type="line"/>
    </contour>
    <contour>
      <point x="309" y="560" type="line" smooth="yes"/>
      <point x="373" y="560"/>
      <point x="412" y="540"/>
      <point x="412" y="483" type="curve" smooth="yes"/>
      <point x="412" y="434"/>
      <point x="375" y="409"/>
      <point x="313" y="409" type="curve" smooth="yes"/>
      <point x="225" y="409" type="line"/>
      <point x="225" y="560" type="line"/>
    </contour>
  </outline>
</glyph>
<glyph name="C" format="1">
  <advance width="597"/>
  <unicode hex="0043"/>
  <outline>
    <contour>
      <point x="364" y="571" type="curve" smooth="yes"/>
      <point x="419" y="571"/>
      <point x="445" y="563"/>
      <point x="508" y="543" type="curve"/>
      <point x="553" y="646" type="line"/>
      <point x="496" y="679"/>
      <point x="416" y="694"/>
      <point x="366" y="694" type="curve" smooth="yes"/>
      <point x="165" y="694"/>
      <point x="51" y="547"/>
      <point x="51" y="337" type="curve" smooth="yes"/>
      <point x="51" y="137"/>
      <point x="148" y="-14"/>
      <point x="364" y="-14" type="curve" smooth="yes"/>
      <point x="425" y="-14"/>
      <point x="507" y="4"/>
      <point x="559" y="32" type="curve"/>
      <point x="504" y="142" type="line"/>
      <point x="465" y="123"/>
      <point x="417" y="109"/>
      <point x="361" y="109" type="curve" smooth="yes"/>
      <point x="255" y="109"/>
      <point x="204" y="207"/>
      <point x="204" y="338" type="curve" smooth="yes"/>
      <point x="204" y="482"/>
      <point x="265" y="571"/>
    </contour>
  </outline>
</glyph>
<glyph name="D" format="1">
  <advance width="708"/>
  <unicode hex="0044"/>
  <outline>
    <contour>
      <point x="342" y="0" type="line" smooth="yes"/>
      <point x="539" y="0"/>
      <point x="659" y="132"/>
      <point x="659" y="344" type="curve" smooth="yes"/>
      <point x="659" y="541"/>
      <point x="555" y="680"/>
      <point x="342" y="680" type="curve" smooth="yes"/>
      <point x="79" y="680" type="line"/>
      <point x="79" y="0" type="line"/>
    </contour>
    <contour>
      <point x="344" y="559" type="line" smooth="yes"/>
      <point x="455" y="559"/>
      <point x="507" y="476"/>
      <point x="507" y="344" type="curve" smooth="yes"/>
      <point x="507" y="185"/>
      <point x="439" y="120"/>
      <point x="337" y="120" type="curve" smooth="yes"/>
      <point x="225" y="120" type="line"/>
      <point x="225" y="559" type="line"/>
    </contour>
  </outline>
</glyph>
<glyph name="E" format="1">
  <advance width="583"/>
  <unicode hex="0045"/>
  <outline>
    <contour>
      <point x="562" y="0" type="line"/>
      <point x="542" y="114" type="line"/>
      <point x="225" y="114" type="line"/>
      <point x="225" y="284" type="line"/>
      <point x="436" y="284" type="line"/>
      <point x="416" y="400" type="line"/>
      <point x="225" y="400" type="line"/>
      <point x="225" y="564" type="line"/>
      <point x="519" y="564" type="line"/>
      <point x="512" y="603"/>
      <point x="506" y="641"/>
      <point x="500" y="680" type="curve"/>
      <point x="79" y="680" type="line"/>
      <point x="79" y="0" type="line"/>
    </contour>
  </outline>
</glyph>
<glyph name="F" format="1">
  <advance width="513"/>
  <unicode hex="0046"/>
  <outline>
    <contour>
      <point x="429" y="277" type="line"/>
      <point x="410" y="392" type="line"/>
      <point x="225" y="392" type="line"/>
      <point x="225" y="564" type="line"/>
      <point x="501" y="564" type="line"/>
      <point x="495" y="602"/>
      <point x="489" y="642"/>
      <point x="482" y="680" type="curve"/>
      <point x="79" y="680" type="line"/>
      <point x="79" y="0" type="line"/>
      <point x="225" y="0" type="line"/>
      <point x="225" y="277" type="line"/>
    </contour>
  </outline>
</glyph>
<glyph name="G" format="1">
  <advance width="663"/>
  <unicode hex="0047"/>
  <outline>
    <contour>
      <point x="597" y="36" type="curve"/>
      <point x="597" y="379" type="line"/>
      <point x="332" y="379" type="line"/>
      <point x="332" y="268" type="line"/>
      <point x="465" y="268" type="line"/>
      <point x="465" y="118" type="line"/>
      <point x="441" y="113"/>
      <point x="413" y="109"/>
      <point x="377" y="109" type="curve" smooth="yes"/>
      <point x="269" y="109"/>
      <point x="204" y="189"/>
      <point x="204" y="338" type="curve" smooth="yes"/>
      <point x="204" y="495"/>
      <point x="284" y="571"/>
      <point x="392" y="571" type="curve" smooth="yes"/>
      <point x="447" y="571"/>
      <point x="479" y="563"/>
      <point x="542" y="543" type="curve"/>
      <point x="588" y="646" type="line"/>
      <point x="530" y="679"/>
      <point x="440" y="694"/>
      <point x="390" y="694" type="curve" smooth="yes"/>
      <point x="185" y="694"/>
      <point x="51" y="550"/>
      <point x="51" y="337" type="curve" smooth="yes"/>
      <point x="51" y="132"/>
      <point x="162" y="-14"/>
      <point x="378" y="-14" type="curve" smooth="yes"/>
      <point x="458" y="-14"/>
      <point x="544" y="7"/>
    </contour>
  </outline>
</glyph>
<glyph name="H" format="1">
  <advance width="713"/>
  <unicode hex="0048"/>
  <outline>
    <contour>
      <point x="225" y="685" type="line"/>
      <point x="79" y="680" type="line"/>
      <point x="79" y="0" type="line"/>
      <point x="225" y="0" type="line"/>
      <point x="225" y="280" type="line"/>
      <point x="487" y="280" type="line"/>
      <point x="487" y="0" type="line"/>
      <point x="633" y="0" type="line"/>
      <point x="633" y="680" type="line"/>
      <point x="487" y="680" type="line"/>
      <point x="487" y="397" type="line"/>
      <point x="225" y="397" type="line"/>
    </contour>
  </outline>
</glyph>
<glyph name="I" format="1">
  <advance width="305"/>
  <unicode hex="0049"/>
  <outline>
    <contour>
      <point x="225" y="680" type="line"/>
      <point x="79" y="680" type="line"/>
      <point x="79" y="0" type="line"/>
      <point x="225" y="0" type="line"/>
    </contour>
  </outline>
</glyph>
<glyph name="J" format="1">
  <advance width="314"/>
  <unicode hex="004A"/>
  <outline>
    <contour>
      <point x="238" y="680" type="line"/>
      <point x="90" y="680" type="line"/>
      <point x="90" y="183" type="line" smooth="yes"/>
      <point x="90" y="134"/>
      <point x="82" y="115"/>
      <point x="10" y="88" type="curve"/>
      <point x="69" y="-23" type="line"/>
      <point x="197" y="17"/>
      <point x="238" y="57"/>
      <point x="238" y="153" type="curve" smooth="yes"/>
    </contour>
  </outline>
</glyph>
<glyph name="K" format="1">
  <advance width="659"/>
  <unicode hex="004B"/>
  <outline>
    <contour>
      <point x="217" y="680" type="line"/>
      <point x="70" y="680" type="line"/>
      <point x="70" y="0" type="line"/>
      <point x="217" y="0" type="line"/>
      <point x="217" y="210" type="line"/>
      <point x="278" y="276" type="line"/>
      <point x="474" y="0" type="line"/>
      <point x="659" y="0" type="line"/>
      <point x="378" y="383" type="line"/>
      <point x="589" y="611" type="line"/>
      <point x="478" y="695" type="line"/>
      <point x="217" y="411" type="line"/>
    </contour>
  </outline>
</glyph>
<glyph name="L" format="1">
  <advance width="551"/>
  <unicode hex="004C"/>
  <outline>
    <contour>
      <point x="541" y="0" type="line"/>
      <point x="522" y="115" type="line"/>
      <point x="226" y="115" type="line"/>
      <point x="226" y="680" type="line"/>
      <point x="79" y="680" type="line"/>
      <point x="79" y="0" type="line"/>
    </contour>
  </outline>
</glyph>
<glyph name="M" format="1">
  <advance width="771"/>
  <unicode hex="004D"/>
  <outline>
    <contour>
      <point x="371" y="202" type="line"/>
      <point x="390" y="204"/>
      <point x="409" y="208"/>
      <point x="428" y="210" type="curve"/>
      <point x="467" y="264"/>
      <point x="506" y="317"/>
      <point x="544" y="371" type="curve"/>
      <point x="544" y="0" type="line"/>
      <point x="692" y="0" type="line"/>
      <point x="692" y="680" type="line"/>
      <point x="599" y="680" type="line"/>
      <point x="531" y="581"/>
      <point x="465" y="482"/>
      <point x="397" y="384" type="curve"/>
      <point x="175" y="680" type="line"/>
      <point x="79" y="680" type="line"/>
      <point x="79" y="0" type="line"/>
      <point x="225" y="0" type="line"/>
      <point x="225" y="386" type="line"/>
    </contour>
  </outline>
</glyph>
<glyph name="N" format="1">
  <advance width="746"/>
  <unicode hex="004E"/>
  <outline>
    <contour>
      <point x="666" y="680" type="line"/>
      <point x="519" y="680" type="line"/>
      <point x="519" y="249" type="line"/>
      <point x="221" y="680" type="line"/>
      <point x="79" y="680" type="line"/>
      <point x="79" y="0" type="line"/>
      <point x="225" y="0" type="line"/>
      <point x="225" y="428" type="line"/>
      <point x="523" y="0" type="line"/>
      <point x="666" y="0" type="line"/>
    </contour>
  </outline>
</glyph>
<glyph name="O" format="1">
  <advance width="742"/>
  <unicode hex="004F"/>
  <outline>
    <contour>
      <point x="369" y="109" type="curve" smooth="yes"/>
      <point x="254" y="109"/>
      <point x="204" y="204"/>
      <point x="204" y="338" type="curve" smooth="yes"/>
      <point x="204" y="481"/>
      <point x="271" y="571"/>
      <point x="372" y="571" type="curve" smooth="yes"/>
      <point x="488" y="571"/>
      <point x="538" y="477"/>
      <point x="538" y="344" type="curve" smooth="yes"/>
      <point x="538" y="185"/>
      <point x="474" y="109"/>
    </contour>
    <contour>
      <point x="370" y="695" type="curve"/>
      <point x="169" y="693"/>
      <point x="51" y="548"/>
      <point x="51" y="337" type="curve" smooth="yes"/>
      <point x="51" y="141"/>
      <point x="155" y="-14"/>
      <point x="370" y="-14" type="curve" smooth="yes"/>
      <point x="573" y="-14"/>
      <point x="690" y="132"/>
      <point x="690" y="344" type="curve" smooth="yes"/>
      <point x="690" y="540"/>
      <point x="587" y="695"/>
    </contour>
  </outline>
</glyph>
<glyph name="P" format="1">
  <advance width="626"/>
  <unicode hex="0050"/>
  <outline>
    <contour>
      <point x="79" y="0" type="line"/>
      <point x="226" y="0" type="line"/>
      <point x="226" y="224" type="line"/>
      <point x="308" y="224" type="line" smooth="yes"/>
      <point x="454" y="224"/>
      <point x="589" y="295"/>
      <point x="589" y="453" type="curve" smooth="yes"/>
      <point x="589" y="613"/>
      <point x="466" y="680"/>
      <point x="316" y="680" type="curve" smooth="yes"/>
      <point x="79" y="680" type="line"/>
    </contour>
    <contour>
      <point x="312" y="560" type="line" smooth="yes"/>
      <point x="390" y="560"/>
      <point x="435" y="526"/>
      <point x="435" y="448" type="curve"/>
      <point x="431" y="379"/>
      <point x="385" y="343"/>
      <point x="314" y="343" type="curve" smooth="yes"/>
      <point x="226" y="343" type="line"/>
      <point x="226" y="560" type="line"/>
    </contour>
  </outline>
</glyph>
<glyph name="Q" format="1">
  <advance width="742"/>
  <unicode hex="0051"/>
  <outline>
    <contour>
      <point x="370" y="695" type="curve"/>
      <point x="169" y="693"/>
      <point x="51" y="548"/>
      <point x="51" y="337" type="curve" smooth="yes"/>
      <point x="51" y="141"/>
      <point x="155" y="-14"/>
      <point x="370" y="-14" type="curve" smooth="yes"/>
      <point x="431" y="-14"/>
      <point x="483" y="0"/>
      <point x="527" y="23" type="curve"/>
      <point x="595" y="-41" type="line"/>
      <point x="683" y="36" type="line"/>
      <point x="618" y="101" type="line"/>
      <point x="664" y="162"/>
      <point x="690" y="247"/>
      <point x="690" y="344" type="curve" smooth="yes"/>
      <point x="690" y="540"/>
      <point x="587" y="695"/>
    </contour>
    <contour>
      <point x="369" y="109" type="curve" smooth="yes"/>
      <point x="254" y="109"/>
      <point x="204" y="204"/>
      <point x="204" y="338" type="curve" smooth="yes"/>
      <point x="204" y="481"/>
      <point x="271" y="571"/>
      <point x="372" y="571" type="curve" smooth="yes"/>
      <point x="488" y="571"/>
      <point x="538" y="477"/>
      <point x="538" y="344" type="curve" smooth="yes"/>
      <point x="538" y="287"/>
      <point x="530" y="242"/>
      <point x="515" y="207" type="curve"/>
      <point x="443" y="280" type="line"/>
      <point x="345" y="202" type="line"/>
      <point x="428" y="121" type="line"/>
      <point x="410" y="113"/>
      <point x="390" y="109"/>
    </contour>
  </outline>
</glyph>
<glyph name="R" format="1">
  <advance width="652"/>
  <unicode hex="0052"/>
  <outline>
    <contour>
      <point x="480" y="0" type="curve"/>
      <point x="642" y="0" type="line"/>
      <point x="588" y="94"/>
      <point x="535" y="189"/>
      <point x="481" y="284" type="curve"/>
      <point x="544" y="317"/>
      <point x="589" y="379"/>
      <point x="589" y="463" type="curve" smooth="yes"/>
      <point x="589" y="614"/>
      <point x="466" y="680"/>
      <point x="316" y="680" type="curve" smooth="yes"/>
      <point x="79" y="680" type="line"/>
      <point x="79" y="0" type="line"/>
      <point x="225" y="0" type="line"/>
      <point x="225" y="243" type="line"/>
      <point x="307" y="243" type="line" smooth="yes"/>
      <point x="321" y="243"/>
      <point x="334" y="243"/>
      <point x="347" y="244" type="curve"/>
      <point x="391" y="163"/>
      <point x="435" y="81"/>
    </contour>
    <contour>
      <point x="311" y="560" type="line" smooth="yes"/>
      <point x="389" y="560"/>
      <point x="435" y="530"/>
      <point x="435" y="459" type="curve" smooth="yes"/>
      <point x="435" y="393"/>
      <point x="384" y="361"/>
      <point x="313" y="361" type="curve" smooth="yes"/>
      <point x="225" y="361" type="line"/>
      <point x="225" y="560" type="line"/>
    </contour>
  </outline>
</glyph>
<glyph name="S" format="1">
  <advance width="556"/>
  <unicode hex="0053"/>
  <outline>
    <contour>
      <point x="42" y="507" type="curve" smooth="yes"/>
      <point x="42" y="390"/>
      <point x="150" y="329"/>
      <point x="245" y="281" type="curve" smooth="yes"/>
      <point x="306" y="251"/>
      <point x="367" y="219"/>
      <point x="367" y="180" type="curve" smooth="yes"/>
      <point x="367" y="140"/>
      <point x="330" y="113"/>
      <point x="256" y="113" type="curve" smooth="yes"/>
      <point x="201" y="113"/>
      <point x="129" y="139"/>
      <point x="90" y="160" type="curve"/>
      <point x="51" y="44" type="line"/>
      <point x="89" y="15"/>
      <point x="197" y="-13"/>
      <point x="259" y="-13" type="curve" smooth="yes"/>
      <point x="425" y="-13"/>
      <point x="519" y="68"/>
      <point x="519" y="178" type="curve" smooth="yes"/>
      <point x="519" y="293"/>
      <point x="411" y="356"/>
      <point x="313" y="406" type="curve"/>
      <point x="242" y="442"/>
      <point x="193" y="467"/>
      <point x="193" y="508" type="curve" smooth="yes"/>
      <point x="193" y="548"/>
      <point x="231" y="570"/>
      <point x="284" y="570" type="curve" smooth="yes"/>
      <point x="338" y="570"/>
      <point x="378" y="554"/>
      <point x="430" y="532" type="curve"/>
      <point x="477" y="642" type="line"/>
      <point x="424" y="672"/>
      <point x="350" y="695"/>
      <point x="282" y="695" type="curve" smooth="yes"/>
      <point x="130" y="695"/>
      <point x="43" y="615"/>
    </contour>
  </outline>
</glyph>
<glyph name="T" format="1">
  <advance width="594"/>
  <unicode hex="0054"/>
  <outline>
    <contour>
      <point x="7" y="680" type="line"/>
      <point x="7" y="564" type="line"/>
      <point x="212" y="564" type="line"/>
      <point x="212" y="0" type="line"/>
      <point x="359" y="0" type="line"/>
      <point x="359" y="564" type="line"/>
      <point x="587" y="564" type="line"/>
      <point x="567" y="680" type="line"/>
    </contour>
  </outline>
</glyph>
<glyph name="V" format="1">
  <advance width="671"/>
  <unicode hex="0056"/>
  <outline>
    <contour>
      <point x="268" y="0" type="line"/>
      <point x="402" y="0" type="line"/>
      <point x="663" y="680" type="line"/>
      <point x="516" y="680" type="line"/>
      <point x="337" y="190" type="line"/>
      <point x="152" y="680" type="line"/>
      <point x="7" y="662" type="line"/>
    </contour>
  </outline>
</glyph>
<glyph name="W" format="1">
  <advance width="1071"/>
  <unicode hex="0057"/>
  <outline>
    <contour>
      <point x="689" y="0" type="line"/>
      <point x="826" y="0" type="line"/>
      <point x="1064" y="680" type="line"/>
      <point x="916" y="680" type="line"/>
      <point x="763" y="198" type="line"/>
      <point x="605" y="680" type="line"/>
      <point x="464" y="680" type="line"/>
      <point x="314" y="197" type="line"/>
      <point x="152" y="680" type="line"/>
      <point x="7" y="662" type="line"/>
      <point x="244" y="0" type="line"/>
      <point x="381" y="0" type="line"/>
      <point x="532" y="463" type="line"/>
    </contour>
  </outline>
</glyph>
<glyph name="X" format="1">
  <advance width="691"/>
  <unicode hex="0058"/>
  <outline>
    <contour>
      <point x="7" y="10" type="line"/>
      <point x="154" y="-10" type="line"/>
      <point x="214" y="69"/>
      <point x="273" y="151"/>
      <point x="333" y="232" type="curve"/>
      <point x="506" y="0" type="line"/>
      <point x="674" y="0" type="line"/>
      <point x="422" y="340" type="line"/>
      <point x="683" y="680" type="line"/>
      <point x="518" y="680" type="line"/>
      <point x="341" y="451" type="line"/>
      <point x="171" y="680" type="line"/>
      <point x="119" y="674"/>
      <point x="68" y="666"/>
      <point x="16" y="659" type="curve"/>
      <point x="251" y="342" type="line"/>
    </contour>
  </outline>
</glyph>
<glyph name="Y" format="1">
  <advance width="626"/>
  <unicode hex="0059"/>
  <outline>
    <contour>
      <point x="236" y="0" type="line"/>
      <point x="383" y="0" type="line"/>
      <point x="383" y="262" type="line"/>
      <point x="619" y="680" type="line"/>
      <point x="466" y="680" type="line"/>
      <point x="309" y="409" type="line"/>
      <point x="159" y="680" type="line"/>
      <point x="7" y="663" type="line"/>
      <point x="236" y="266" type="line"/>
    </contour>
  </outline>
</glyph>
<glyph name="Z" format="1">
  <advance width="587"/>
  <unicode hex="005A"/>
  <outline>
    <contour>
      <point x="564" y="569" type="line"/>
      <point x="548" y="680" type="line"/>
      <point x="46" y="680" type="line"/>
      <point x="61" y="564" type="line"/>
      <point x="381" y="564" type="line"/>
      <point x="17" y="109" type="line"/>
      <point x="33" y="0" type="line"/>
      <point x="568" y="0" type="line"/>
      <point x="553" y="114" type="line"/>
      <point x="190" y="114" type="line"/>
    </contour>
  </outline>
</glyph>
<glyph name="bracketleft" format="1">
  <advance width="366"/>
  <unicode hex="005B"/>
  <outline>
    <contour>
      <point x="215" y="580" type="line"/>
      <point x="340" y="580" type="line"/>
      <point x="347" y="619"/>
      <point x="353" y="657"/>
      <point x="359" y="696" type="curve"/>
      <point x="69" y="696" type="line"/>
      <point x="69" y="-87" type="line"/>
      <point x="359" y="-87" type="line"/>
      <point x="352" y="-49"/>
      <point x="347" y="-11"/>
      <point x="340" y="27" type="curve"/>
      <point x="215" y="27" type="line"/>
    </contour>
  </outline>
</glyph>
<glyph name="backslash" format="1">
  <advance width="462"/>
  <unicode hex="005C"/>
  <outline>
    <contour>
      <point x="304" y="-4" type="line"/>
      <point x="457" y="-4" type="line"/>
      <point x="158" y="710" type="line"/>
      <point x="6" y="710" type="line"/>
    </contour>
  </outline>
</glyph>
<glyph name="bracketright" format="1">
  <advance width="366"/>
  <unicode hex="005D"/>
  <outline>
    <contour>
      <point x="149" y="27" type="line"/>
      <point x="24" y="27" type="line"/>
      <point x="7" y="-87" type="line"/>
      <point x="297" y="-87" type="line"/>
      <point x="297" y="696" type="line"/>
      <point x="7" y="696" type="line"/>
      <point x="12" y="657"/>
      <point x="18" y="619"/>
      <point x="24" y="580" type="curve"/>
      <point x="149" y="580" type="line"/>
    </contour>
  </outline>
</glyph>
<glyph name="asciicircum" format="1">
  <advance width="468"/>
  <unicode hex="005E"/>
  <outline>
    <contour>
      <point x="162" y="142" type="line"/>
      <point x="235" y="256" type="line"/>
      <point x="307" y="142" type="line"/>
      <point x="454" y="142" type="line"/>
      <point x="284" y="401" type="line"/>
      <point x="184" y="401" type="line"/>
      <point x="13" y="142" type="line"/>
    </contour>
  </outline>
</glyph>
<glyph name="underscore" format="1">
  <advance width="421"/>
  <unicode hex="005F"/>
  <outline>
    <contour>
      <point x="404" y="0" type="line"/>
      <point x="394" y="115" type="line"/>
      <point x="17" y="115" type="line"/>
      <point x="28" y="0" type="line"/>
    </contour>
  </outline>
</glyph>
<glyph name="grave" format="1">
  <advance width="241"/>
  <unicode hex="0060"/>
  <outline>
    <contour>
      <point x="14" y="764" type="line"/>
      <point x="115" y="589" type="line"/>
      <point x="228" y="589" type="line"/>
      <point x="163" y="764" type="line"/>
    </contour>
  </outline>
</glyph>
<glyph name="b" format="1">
  <advance width="591"/>
  <unicode hex="0062"/>
  <outline>
    <contour>
      <point x="212" y="706" type="line"/>
      <point x="66" y="695" type="line"/>
      <point x="66" y="0" type="line"/>
      <point x="140" y="0" type="line"/>
      <point x="151" y="14"/>
      <point x="161" y="28"/>
      <point x="171" y="42" type="curve"/>
      <point x="215" y="10"/>
      <point x="275" y="-11"/>
      <point x="324" y="-11" type="curve" smooth="yes"/>
      <point x="475" y="-11"/>
      <point x="552" y="100"/>
      <point x="552" y="247" type="curve" smooth="yes"/>
      <point x="552" y="393"/>
      <point x="476" y="503"/>
      <point x="327" y="503" type="curve" smooth="yes"/>
      <point x="291" y="503"/>
      <point x="247" y="491"/>
      <point x="212" y="471" type="curve"/>
    </contour>
    <contour>
      <point x="401" y="246" type="curve" smooth="yes"/>
      <point x="401" y="185"/>
      <point x="373" y="111"/>
      <point x="294" y="111" type="curve" smooth="yes"/>
      <point x="267" y="111"/>
      <point x="236" y="123"/>
      <point x="212" y="140" type="curve"/>
      <point x="212" y="356" type="line"/>
      <point x="236" y="370"/>
      <point x="266" y="380"/>
      <point x="289" y="380" type="curve" smooth="yes"/>
      <point x="375" y="380"/>
      <point x="401" y="316"/>
    </contour>
  </outline>
</glyph>
<glyph name="d" format="1">
  <advance width="598"/>
  <unicode hex="0064"/>
  <outline>
    <contour>
      <point x="533" y="706" type="line"/>
      <point x="385" y="695" type="line"/>
      <point x="385" y="472" type="line"/>
      <point x="348" y="492"/>
      <point x="304" y="503"/>
      <point x="270" y="503" type="curve" smooth="yes"/>
      <point x="118" y="503"/>
      <point x="38" y="392"/>
      <point x="38" y="244" type="curve" smooth="yes"/>
      <point x="38" y="98"/>
      <point x="115" y="-12"/>
      <point x="262" y="-12" type="curve" smooth="yes"/>
      <point x="323" y="-12"/>
      <point x="383" y="14"/>
      <point x="422" y="48" type="curve"/>
      <point x="457" y="0" type="line"/>
      <point x="533" y="0" type="line"/>
    </contour>
    <contour>
      <point x="301" y="112" type="curve" smooth="yes"/>
      <point x="216" y="112"/>
      <point x="190" y="175"/>
      <point x="190" y="246" type="curve" smooth="yes"/>
      <point x="190" y="307"/>
      <point x="217" y="380"/>
      <point x="296" y="380" type="curve" smooth="yes"/>
      <point x="325" y="380"/>
      <point x="359" y="366"/>
      <point x="385" y="346" type="curve"/>
      <point x="385" y="140" type="line"/>
      <point x="359" y="124"/>
      <point x="327" y="112"/>
    </contour>
  </outline>
</glyph>
<glyph name="e" format="1">
  <advance width="548"/>
  <unicode hex="0065"/>
  <outline>
    <contour>
      <point x="288" y="499" type="curve" smooth="yes"/>
      <point x="138" y="499"/>
      <point x="38" y="400"/>
      <point x="38" y="242" type="curve" smooth="yes"/>
      <point x="38" y="80"/>
      <point x="145" y="-12"/>
      <point x="310" y="-12" type="curve" smooth="yes"/>
      <point x="352" y="-12"/>
      <point x="434" y="1"/>
      <point x="484" y="38" type="curve"/>
      <point x="441" y="142" type="line"/>
      <point x="397" y="121"/>
      <point x="362" y="111"/>
      <point x="318" y="111" type="curve" smooth="yes"/>
      <point x="252" y="111"/>
      <point x="209" y="143"/>
      <point x="196" y="198" type="curve"/>
      <point x="512" y="198" type="line"/>
      <point x="512" y="246" type="line" smooth="yes"/>
      <point x="512" y="384"/>
      <point x="441" y="499"/>
    </contour>
    <contour>
      <point x="284" y="377" type="curve" smooth="yes"/>
      <point x="334" y="377"/>
      <point x="362" y="344"/>
      <point x="372" y="293" type="curve"/>
      <point x="195" y="293" type="line"/>
      <point x="205" y="347"/>
      <point x="238" y="377"/>
    </contour>
  </outline>
</glyph>
<glyph name="f" format="1">
  <advance width="405"/>
  <unicode hex="0066"/>
  <outline>
    <contour>
      <point x="292" y="702" type="curve" smooth="yes"/>
      <point x="170" y="702"/>
      <point x="87" y="635"/>
      <point x="87" y="517" type="curve" smooth="yes"/>
      <point x="87" y="467" type="line"/>
      <point x="10" y="467" type="line"/>
      <point x="10" y="352" type="line"/>
      <point x="87" y="352" type="line"/>
      <point x="87" y="0" type="line"/>
      <point x="234" y="0" type="line"/>
      <point x="234" y="352" type="line"/>
      <point x="373" y="352" type="line"/>
      <point x="340" y="467" type="line"/>
      <point x="234" y="467" type="line"/>
      <point x="234" y="498" type="line" smooth="yes"/>
      <point x="234" y="546"/>
      <point x="255" y="578"/>
      <point x="300" y="578" type="curve" smooth="yes"/>
      <point x="316" y="578"/>
      <point x="338" y="573"/>
      <point x="359" y="563" type="curve"/>
      <point x="401" y="667" type="line"/>
      <point x="379" y="686"/>
      <point x="328" y="702"/>
    </contour>
  </outline>
</glyph>
<glyph name="g" format="1">
  <advance width="598"/>
  <unicode hex="0067"/>
  <outline>
    <contour>
      <point x="532" y="484" type="line"/>
      <point x="457" y="484" type="line"/>
      <point x="426" y="444" type="line"/>
      <point x="383" y="479"/>
      <point x="319" y="503"/>
      <point x="269" y="503" type="curve" smooth="yes"/>
      <point x="118" y="503"/>
      <point x="38" y="391"/>
      <point x="38" y="244" type="curve" smooth="yes"/>
      <point x="38" y="98"/>
      <point x="115" y="-11"/>
      <point x="262" y="-11" type="curve" smooth="yes"/>
      <point x="303" y="-11"/>
      <point x="348" y="1"/>
      <point x="385" y="21" type="curve"/>
      <point x="385" y="-1" type="line" smooth="yes"/>
      <point x="385" y="-57"/>
      <point x="347" y="-92"/>
      <point x="275" y="-92" type="curve" smooth="yes"/>
      <point x="228" y="-92"/>
      <point x="192" y="-81"/>
      <point x="130" y="-51" type="curve"/>
      <point x="86" y="-154" type="line"/>
      <point x="141" y="-192"/>
      <point x="236" y="-210"/>
      <point x="278" y="-210" type="curve" smooth="yes"/>
      <point x="451" y="-210"/>
      <point x="532" y="-126"/>
      <point x="532" y="0" type="curve" smooth="yes"/>
    </contour>
    <contour>
      <point x="189" y="245" type="curve" smooth="yes"/>
      <point x="189" y="307"/>
      <point x="216" y="380"/>
      <point x="296" y="380" type="curve" smooth="yes"/>
      <point x="324" y="380"/>
      <point x="358" y="365"/>
      <point x="385" y="346" type="curve"/>
      <point x="385" y="139" type="line"/>
      <point x="359" y="124"/>
      <point x="326" y="111"/>
      <point x="300" y="111" type="curve" smooth="yes"/>
      <point x="215" y="111"/>
      <point x="189" y="174"/>
    </contour>
  </outline>
</glyph>
<glyph name="h" format="1">
  <advance width="598"/>
  <unicode hex="0068"/>
  <outline>
    <contour>
      <point x="358" y="503" type="curve" smooth="yes"/>
      <point x="313" y="503"/>
      <point x="254" y="486"/>
      <point x="212" y="458" type="curve"/>
      <point x="212" y="706" type="line"/>
      <point x="66" y="695" type="line"/>
      <point x="66" y="0" type="line"/>
      <point x="212" y="0" type="line"/>
      <point x="212" y="338" type="line"/>
      <point x="244" y="360"/>
      <point x="285" y="380"/>
      <point x="318" y="380" type="curve" smooth="yes"/>
      <point x="367" y="380"/>
      <point x="396" y="351"/>
      <point x="396" y="297" type="curve" smooth="yes"/>
      <point x="396" y="0" type="line"/>
      <point x="543" y="0" type="line"/>
      <point x="543" y="302" type="line" smooth="yes"/>
      <point x="543" y="416"/>
      <point x="492" y="503"/>
    </contour>
  </outline>
</glyph>
<glyph name="i" format="1">
  <advance width="271"/>
  <unicode hex="0069"/>
  <outline>
    <contour>
      <point x="208" y="485" type="line"/>
      <point x="61" y="485" type="line"/>
      <point x="61" y="0" type="line"/>
      <point x="208" y="0" type="line"/>
    </contour>
    <contour>
      <point x="217" y="634" type="curve" smooth="yes"/>
      <point x="217" y="679"/>
      <point x="180" y="716"/>
      <point x="134" y="716" type="curve" smooth="yes"/>
      <point x="89" y="716"/>
      <point x="54" y="679"/>
      <point x="54" y="634" type="curve" smooth="yes"/>
      <point x="54" y="588"/>
      <point x="89" y="553"/>
      <point x="134" y="553" type="curve" smooth="yes"/>
      <point x="180" y="553"/>
      <point x="217" y="588"/>
    </contour>
  </outline>
</glyph>
<glyph name="j" format="1">
  <advance width="286"/>
  <unicode hex="006A"/>
  <outline>
    <contour>
      <point x="221" y="485" type="line"/>
      <point x="73" y="485" type="line"/>
      <point x="73" y="23" type="line" smooth="yes"/>
      <point x="73" y="-29"/>
      <point x="49" y="-59"/>
      <point x="-23" y="-84" type="curve"/>
      <point x="35" y="-194" type="line"/>
      <point x="167" y="-152"/>
      <point x="221" y="-104"/>
      <point x="221" y="-7" type="curve" smooth="yes"/>
    </contour>
    <contour>
      <point x="65" y="634" type="curve" smooth="yes"/>
      <point x="65" y="589"/>
      <point x="101" y="553"/>
      <point x="147" y="553" type="curve" smooth="yes"/>
      <point x="193" y="553"/>
      <point x="229" y="589"/>
      <point x="229" y="634" type="curve" smooth="yes"/>
      <point x="229" y="680"/>
      <point x="193" y="716"/>
      <point x="147" y="716" type="curve" smooth="yes"/>
      <point x="101" y="716"/>
      <point x="65" y="680"/>
    </contour>
  </outline>
</glyph>
<glyph name="k" format="1">
  <advance width="540"/>
  <unicode hex="006B"/>
  <outline>
    <contour>
      <point x="212" y="706" type="line"/>
      <point x="66" y="695" type="line"/>
      <point x="66" y="0" type="line"/>
      <point x="212" y="0" type="line"/>
      <point x="212" y="158" type="line"/>
      <point x="227" y="170"/>
      <point x="242" y="183"/>
      <point x="257" y="196" type="curve"/>
      <point x="371" y="0" type="line"/>
      <point x="536" y="0" type="line"/>
      <point x="478" y="94"/>
      <point x="419" y="188"/>
      <point x="361" y="283" type="curve"/>
      <point x="496" y="396" type="line"/>
      <point x="468" y="430"/>
      <point x="439" y="464"/>
      <point x="411" y="499" type="curve"/>
      <point x="212" y="320" type="line"/>
    </contour>
  </outline>
</glyph>
<glyph name="l" format="1">
  <advance width="278"/>
  <unicode hex="006C"/>
  <outline>
    <contour>
      <point x="212" y="706" type="line"/>
      <point x="66" y="695" type="line"/>
      <point x="66" y="0" type="line"/>
      <point x="212" y="0" type="line"/>
    </contour>
  </outline>
</glyph>
<glyph name="m" format="1">
  <advance width="901"/>
  <unicode hex="006D"/>
  <outline>
    <contour>
      <point x="664" y="503" type="curve" smooth="yes"/>
      <point x="602" y="503"/>
      <point x="530" y="473"/>
      <point x="489" y="434" type="curve"/>
      <point x="460" y="477"/>
      <point x="413" y="503"/>
      <point x="341" y="503" type="curve" smooth="yes"/>
      <point x="281" y="503"/>
      <point x="214" y="476"/>
      <point x="171" y="441" type="curve"/>
      <point x="137" y="485" type="line"/>
      <point x="61" y="485" type="line"/>
      <point x="61" y="0" type="line"/>
      <point x="208" y="0" type="line"/>
      <point x="208" y="346" type="line"/>
      <point x="239" y="364"/>
      <point x="272" y="380"/>
      <point x="302" y="380" type="curve" smooth="yes"/>
      <point x="348" y="380"/>
      <point x="375" y="351"/>
      <point x="375" y="297" type="curve" smooth="yes"/>
      <point x="375" y="0" type="line"/>
      <point x="523" y="0" type="line"/>
      <point x="523" y="303" type="line" smooth="yes"/>
      <point x="523" y="315"/>
      <point x="522" y="326"/>
      <point x="520" y="338" type="curve"/>
      <point x="552" y="360"/>
      <point x="592" y="380"/>
      <point x="624" y="380" type="curve" smooth="yes"/>
      <point x="671" y="380"/>
      <point x="698" y="351"/>
      <point x="698" y="297" type="curve" smooth="yes"/>
      <point x="698" y="0" type="line"/>
      <point x="846" y="0" type="line"/>
      <point x="846" y="303" type="line" smooth="yes"/>
      <point x="846" y="417"/>
      <point x="795" y="503"/>
    </contour>
  </outline>
</glyph>
<glyph name="p" format="1">
  <advance width="591"/>
  <unicode hex="0070"/>
  <outline>
    <contour>
      <point x="66" y="484" type="line"/>
      <point x="66" y="-219" type="line"/>
      <point x="212" y="-209" type="line"/>
      <point x="212" y="18" type="line"/>
      <point x="248" y="0"/>
      <point x="290" y="-11"/>
      <point x="324" y="-11" type="curve" smooth="yes"/>
      <point x="475" y="-11"/>
      <point x="552" y="100"/>
      <point x="552" y="247" type="curve" smooth="yes"/>
      <point x="552" y="393"/>
      <point x="476" y="503"/>
      <point x="327" y="503" type="curve" smooth="yes"/>
      <point x="276" y="503"/>
      <point x="215" y="482"/>
      <point x="169" y="446" type="curve"/>
      <point x="140" y="484" type="line"/>
    </contour>
    <contour>
      <point x="401" y="246" type="curve" smooth="yes"/>
      <point x="401" y="185"/>
      <point x="373" y="111"/>
      <point x="294" y="111" type="curve" smooth="yes"/>
      <point x="267" y="111"/>
      <point x="236" y="123"/>
      <point x="212" y="140" type="curve"/>
      <point x="212" y="356" type="line"/>
      <point x="235" y="370"/>
      <point x="262" y="380"/>
      <point x="289" y="380" type="curve" smooth="yes"/>
      <point x="375" y="380"/>
      <point x="401" y="316"/>
    </contour>
  </outline>
</glyph>
<glyph name="q" format="1">
  <advance width="598"/>
  <unicode hex="0071"/>
  <outline>
    <contour>
      <point x="533" y="485" type="line"/>
      <point x="457" y="485" type="line"/>
      <point x="427" y="445" type="line"/>
      <point x="384" y="480"/>
      <point x="320" y="503"/>
      <point x="270" y="503" type="curve" smooth="yes"/>
      <point x="118" y="503"/>
      <point x="38" y="392"/>
      <point x="38" y="244" type="curve" smooth="yes"/>
      <point x="38" y="98"/>
      <point x="115" y="-12"/>
      <point x="262" y="-12" type="curve" smooth="yes"/>
      <point x="304" y="-12"/>
      <point x="348" y="1"/>
      <point x="385" y="21" type="curve"/>
      <point x="385" y="-219" type="line"/>
      <point x="533" y="-209" type="line"/>
    </contour>
    <contour>
      <point x="301" y="112" type="curve" smooth="yes"/>
      <point x="216" y="112"/>
      <point x="190" y="175"/>
      <point x="190" y="246" type="curve" smooth="yes"/>
      <point x="190" y="307"/>
      <point x="217" y="380"/>
      <point x="296" y="380" type="curve" smooth="yes"/>
      <point x="325" y="380"/>
      <point x="359" y="366"/>
      <point x="385" y="346" type="curve"/>
      <point x="385" y="140" type="line"/>
      <point x="359" y="124"/>
      <point x="327" y="112"/>
    </contour>
  </outline>
</glyph>
<glyph name="r" format="1">
  <advance width="370"/>
  <unicode hex="0072"/>
  <outline>
    <contour>
      <point x="334" y="485" type="line"/>
      <point x="281" y="485"/>
      <point x="220" y="453"/>
      <point x="180" y="420" type="curve"/>
      <point x="136" y="484" type="line"/>
      <point x="61" y="484" type="line"/>
      <point x="61" y="0" type="line"/>
      <point x="208" y="0" type="line"/>
      <point x="208" y="302" type="line"/>
      <point x="259" y="346"/>
      <point x="318" y="367"/>
      <point x="364" y="367" type="curve"/>
    </contour>
  </outline>
</glyph>
<glyph name="s" format="1">
  <advance width="446"/>
  <unicode hex="0073"/>
  <outline>
    <contour>
      <point x="249" y="307" type="curve" smooth="yes"/>
      <point x="204" y="323"/>
      <point x="188" y="333"/>
      <point x="188" y="346" type="curve" smooth="yes"/>
      <point x="188" y="364"/>
      <point x="204" y="376"/>
      <point x="236" y="376" type="curve" smooth="yes"/>
      <point x="278" y="376"/>
      <point x="318" y="362"/>
      <point x="362" y="341" type="curve"/>
      <point x="405" y="445" type="line"/>
      <point x="354" y="482"/>
      <point x="274" y="499"/>
      <point x="234" y="499" type="curve" smooth="yes"/>
      <point x="110" y="499"/>
      <point x="36" y="443"/>
      <point x="36" y="347" type="curve" smooth="yes"/>
      <point x="36" y="263"/>
      <point x="122" y="219"/>
      <point x="201" y="193" type="curve" smooth="yes"/>
      <point x="247" y="178"/>
      <point x="266" y="162"/>
      <point x="266" y="141" type="curve" smooth="yes"/>
      <point x="266" y="125"/>
      <point x="246" y="112"/>
      <point x="206" y="112" type="curve" smooth="yes"/>
      <point x="171" y="112"/>
      <point x="120" y="127"/>
      <point x="76" y="148" type="curve"/>
      <point x="33" y="44" type="line"/>
      <point x="82" y="6"/>
      <point x="172" y="-12"/>
      <point x="214" y="-12" type="curve" smooth="yes"/>
      <point x="348" y="-12"/>
      <point x="416" y="46"/>
      <point x="416" y="144" type="curve" smooth="yes"/>
      <point x="416" y="230"/>
      <point x="331" y="278"/>
    </contour>
  </outline>
</glyph>
<glyph name="t" format="1">
  <advance width="403"/>
  <unicode hex="0074"/>
  <outline>
    <contour>
      <point x="283" y="-17" type="curve" smooth="yes"/>
      <point x="319" y="-17"/>
      <point x="370" y="-2"/>
      <point x="393" y="17" type="curve"/>
      <point x="350" y="121" type="line"/>
      <point x="330" y="111"/>
      <point x="309" y="106"/>
      <point x="292" y="106" type="curve" smooth="yes"/>
      <point x="246" y="106"/>
      <point x="222" y="139"/>
      <point x="222" y="186" type="curve" smooth="yes"/>
      <point x="222" y="364" type="line"/>
      <point x="352" y="364" type="line"/>
      <point x="320" y="478" type="line"/>
      <point x="222" y="478" type="line"/>
      <point x="222" y="622" type="line"/>
      <point x="76" y="598" type="line"/>
      <point x="76" y="478" type="line"/>
      <point x="7" y="478" type="line"/>
      <point x="7" y="364" type="line"/>
      <point x="76" y="364" type="line"/>
      <point x="76" y="164" type="line" smooth="yes"/>
      <point x="76" y="45"/>
      <point x="162" y="-17"/>
    </contour>
  </outline>
</glyph>
<glyph name="v" format="1">
  <advance width="523"/>
  <unicode hex="0076"/>
  <outline>
    <contour>
      <point x="193" y="0" type="line"/>
      <point x="325" y="0" type="line"/>
      <point x="516" y="485" type="line"/>
      <point x="365" y="485" type="line"/>
      <point x="263" y="198" type="line"/>
      <point x="156" y="485" type="line"/>
      <point x="7" y="467" type="line"/>
    </contour>
  </outline>
</glyph>
<glyph name="w" format="1">
  <advance width="790"/>
  <unicode hex="0077"/>
  <outline>
    <contour>
      <point x="488" y="0" type="line"/>
      <point x="615" y="0" type="line"/>
      <point x="782" y="485" type="line"/>
      <point x="631" y="485" type="line"/>
      <point x="554" y="205" type="line"/>
      <point x="470" y="485" type="line"/>
      <point x="318" y="485" type="line"/>
      <point x="239" y="205" type="line"/>
      <point x="156" y="485" type="line"/>
      <point x="7" y="467" type="line"/>
      <point x="170" y="0" type="line"/>
      <point x="298" y="0" type="line"/>
      <point x="391" y="282" type="line"/>
    </contour>
  </outline>
</glyph>
<glyph name="x" format="1">
  <advance width="560"/>
  <unicode hex="0078"/>
  <outline>
    <contour>
      <point x="7" y="0" type="line"/>
      <point x="171" y="0" type="line"/>
      <point x="206" y="43"/>
      <point x="241" y="87"/>
      <point x="275" y="131" type="curve"/>
      <point x="378" y="0" type="line"/>
      <point x="542" y="0" type="line"/>
      <point x="366" y="228" type="line"/>
      <point x="552" y="485" type="line"/>
      <point x="391" y="485" type="line"/>
      <point x="278" y="341" type="line"/>
      <point x="169" y="485" type="line"/>
      <point x="118" y="479"/>
      <point x="68" y="471"/>
      <point x="18" y="464" type="curve"/>
      <point x="188" y="244" type="line"/>
    </contour>
  </outline>
</glyph>
<glyph name="y" format="1">
  <advance width="523"/>
  <unicode hex="0079"/>
  <outline>
    <contour>
      <point x="166" y="-16" type="line" smooth="yes"/>
      <point x="150" y="-56"/>
      <point x="88" y="-83"/>
      <point x="40" y="-102" type="curve"/>
      <point x="91" y="-221" type="line"/>
      <point x="181" y="-200"/>
      <point x="268" y="-140"/>
      <point x="300" y="-61" type="curve" smooth="yes"/>
      <point x="516" y="485" type="line"/>
      <point x="364" y="485" type="line"/>
      <point x="262" y="197" type="line"/>
      <point x="227" y="293"/>
      <point x="191" y="389"/>
      <point x="155" y="485" type="curve"/>
      <point x="7" y="467" type="line"/>
      <point x="183" y="25" type="line"/>
    </contour>
  </outline>
</glyph>
<glyph name="z" format="1">
  <advance width="460"/>
  <unicode hex="007A"/>
  <outline>
    <contour>
      <point x="427" y="402" type="curve"/>
      <point x="420" y="485" type="line"/>
      <point x="32" y="485" type="line"/>
      <point x="54" y="366" type="line"/>
      <point x="234" y="366" type="line"/>
      <point x="132" y="235"/>
      <point x="76" y="154"/>
      <point x="17" y="77" type="curve"/>
      <point x="35" y="0" type="line"/>
      <point x="440" y="0" type="line"/>
      <point x="428" y="117" type="line"/>
      <point x="209" y="117" type="line"/>
      <point x="282" y="212"/>
      <point x="355" y="307"/>
    </contour>
  </outline>
</glyph>
<glyph name="braceleft" format="1">
  <advance width="309"/>
  <unicode hex="007B"/>
  <outline>
    <contour>
      <point x="246" y="396" type="curve" smooth="yes"/>
      <point x="246" y="440"/>
      <point x="212" y="476"/>
      <point x="212" y="516" type="curve" smooth="yes"/>
      <point x="212" y="528"/>
      <point x="222" y="545"/>
      <point x="249" y="545" type="curve" smooth="yes"/>
      <point x="289" y="545" type="line"/>
      <point x="302" y="659" type="line"/>
      <point x="241" y="659" type="line" smooth="yes"/>
      <point x="131" y="659"/>
      <point x="84" y="614"/>
      <point x="84" y="533" type="curve" smooth="yes"/>
      <point x="84" y="485"/>
      <point x="117" y="445"/>
      <point x="117" y="400" type="curve" smooth="yes"/>
      <point x="117" y="374"/>
      <point x="96" y="358"/>
      <point x="75" y="358" type="curve" smooth="yes"/>
      <point x="30" y="358" type="line"/>
      <point x="30" y="259" type="line"/>
      <point x="75" y="259" type="line" smooth="yes"/>
      <point x="96" y="259"/>
      <point x="117" y="242"/>
      <point x="117" y="217" type="curve" smooth="yes"/>
      <point x="117" y="189"/>
      <point x="84" y="128"/>
      <point x="84" y="85" type="curve" smooth="yes"/>
      <point x="84" y="7"/>
      <point x="130" y="-41"/>
      <point x="234" y="-41" type="curve" smooth="yes"/>
      <point x="302" y="-41" type="line"/>
      <point x="289" y="72" type="line"/>
      <point x="249" y="72" type="line" smooth="yes"/>
      <point x="221" y="72"/>
      <point x="211" y="89"/>
      <point x="211" y="101" type="curve" smooth="yes"/>
      <point x="211" y="146"/>
      <point x="243" y="183"/>
      <point x="243" y="229" type="curve" smooth="yes"/>
      <point x="243" y="260"/>
      <point x="235" y="286"/>
      <point x="211" y="309" type="curve"/>
      <point x="233" y="327"/>
      <point x="246" y="353"/>
    </contour>
  </outline>
</glyph>
<glyph name="bar" format="1">
  <advance width="304"/>
  <unicode hex="007C"/>
  <outline>
    <contour>
      <point x="225" y="701" type="line"/>
      <point x="176" y="704"/>
      <point x="128" y="709"/>
      <point x="79" y="713" type="curve"/>
      <point x="79" y="0" type="line"/>
      <point x="128" y="-3"/>
      <point x="176" y="-8"/>
      <point x="225" y="-11" type="curve"/>
    </contour>
  </outline>
</glyph>
<glyph name="braceright" format="1">
  <advance width="309"/>
  <unicode hex="007D"/>
  <outline>
    <contour>
      <point x="62" y="221" type="curve" smooth="yes"/>
      <point x="62" y="176"/>
      <point x="95" y="141"/>
      <point x="95" y="101" type="curve" smooth="yes"/>
      <point x="95" y="89"/>
      <point x="88" y="72"/>
      <point x="59" y="72" type="curve" smooth="yes"/>
      <point x="18" y="72" type="line"/>
      <point x="7" y="-41" type="line"/>
      <point x="67" y="-41" type="line" smooth="yes"/>
      <point x="176" y="-41"/>
      <point x="225" y="4"/>
      <point x="225" y="85" type="curve" smooth="yes"/>
      <point x="225" y="128"/>
      <point x="191" y="173"/>
      <point x="191" y="217" type="curve" smooth="yes"/>
      <point x="191" y="243"/>
      <point x="212" y="259"/>
      <point x="233" y="259" type="curve" smooth="yes"/>
      <point x="278" y="259" type="line"/>
      <point x="278" y="358" type="line"/>
      <point x="233" y="358" type="line" smooth="yes"/>
      <point x="212" y="358"/>
      <point x="191" y="375"/>
      <point x="191" y="400" type="curve" smooth="yes"/>
      <point x="191" y="428"/>
      <point x="225" y="489"/>
      <point x="225" y="533" type="curve" smooth="yes"/>
      <point x="225" y="614"/>
      <point x="176" y="659"/>
      <point x="67" y="659" type="curve" smooth="yes"/>
      <point x="7" y="659" type="line"/>
      <point x="18" y="545" type="line"/>
      <point x="59" y="545" type="line" smooth="yes"/>
      <point x="88" y="545"/>
      <point x="95" y="527"/>
      <point x="95" y="516" type="curve" smooth="yes"/>
      <point x="95" y="475"/>
      <point x="63" y="429"/>
      <point x="63" y="386" type="curve" smooth="yes"/>
      <point x="63" y="346"/>
      <point x="79" y="324"/>
      <point x="97" y="308" type="curve"/>
      <point x="75" y="290"/>
      <point x="62" y="264"/>
    </contour>
  </outline>
</glyph>
<glyph name="asciitilde" format="1">
  <advance width="483"/>
  <unicode hex="007E"/>
  <outline>
    <contour>
      <point x="137" y="172" type="line"/>
      <point x="138" y="198"/>
      <point x="160" y="214"/>
      <point x="175" y="214" type="curve" smooth="yes"/>
      <point x="222" y="214"/>
      <point x="267" y="181"/>
      <point x="336" y="181" type="curve" smooth="yes"/>
      <point x="415" y="181"/>
      <point x="465" y="242"/>
      <point x="465" y="363" type="curve"/>
      <point x="346" y="363" type="line"/>
      <point x="344" y="338"/>
      <point x="329" y="322"/>
      <point x="314" y="322" type="curve" smooth="yes"/>
      <point x="272" y="322"/>
      <point x="222" y="354"/>
      <point x="155" y="354" type="curve" smooth="yes"/>
      <point x="73" y="354"/>
      <point x="18" y="293"/>
      <point x="18" y="172" type="curve"/>
    </contour>
  </outline>
</glyph>
<glyph name="exclamdown" format="1">
  <advance width="249"/>
  <unicode hex="00A1"/>
  <outline>
    <contour>
      <point x="183" y="461" type="line"/>
      <point x="65" y="505" type="line"/>
      <point x="48" y="0" type="line"/>
      <point x="199" y="0" type="line"/>
    </contour>
    <contour>
      <point x="45" y="627" type="curve" smooth="yes"/>
      <point x="45" y="582"/>
      <point x="80" y="547"/>
      <point x="124" y="547" type="curve" smooth="yes"/>
      <point x="169" y="547"/>
      <point x="204" y="582"/>
      <point x="204" y="627" type="curve" smooth="yes"/>
      <point x="204" y="671"/>
      <point x="169" y="706"/>
      <point x="124" y="706" type="curve" smooth="yes"/>
      <point x="80" y="706"/>
      <point x="45" y="671"/>
    </contour>
  </outline>
</glyph>
<glyph name="cent" format="1">
  <advance width="486"/>
  <unicode hex="00A2"/>
  <outline>
    <contour>
      <point x="300" y="376" type="curve" smooth="yes"/>
      <point x="342" y="376"/>
      <point x="370" y="366"/>
      <point x="415" y="345" type="curve"/>
      <point x="456" y="449" type="line"/>
      <point x="428" y="470"/>
      <point x="392" y="484"/>
      <point x="359" y="490" type="curve"/>
      <point x="359" y="618" type="line"/>
      <point x="222" y="618" type="line"/>
      <point x="222" y="491" type="line"/>
      <point x="106" y="466"/>
      <point x="38" y="375"/>
      <point x="38" y="242" type="curve" smooth="yes"/>
      <point x="38" y="108"/>
      <point x="107" y="20"/>
      <point x="223" y="-5" type="curve"/>
      <point x="223" y="-112" type="line"/>
      <point x="360" y="-122" type="line"/>
      <point x="360" y="-4" type="line"/>
      <point x="393" y="3"/>
      <point x="429" y="16"/>
      <point x="456" y="38" type="curve"/>
      <point x="415" y="142" type="line"/>
      <point x="370" y="121"/>
      <point x="341" y="112"/>
      <point x="300" y="112" type="curve" smooth="yes"/>
      <point x="234" y="112"/>
      <point x="190" y="163"/>
      <point x="190" y="242" type="curve" smooth="yes"/>
      <point x="190" y="321"/>
      <point x="234" y="376"/>
    </contour>
  </outline>
</glyph>
<glyph name="sterling" format="1">
  <advance width="513"/>
  <unicode hex="00A3"/>
  <outline>
    <contour>
      <point x="44" y="396" type="line"/>
      <point x="44" y="283" type="line"/>
      <point x="121" y="283" type="line"/>
      <point x="121" y="193" type="line" smooth="yes"/>
      <point x="121" y="147"/>
      <point x="103" y="116"/>
      <point x="62" y="114" type="curve" smooth="yes"/>
      <point x="55" y="114" type="line"/>
      <point x="55" y="0" type="line"/>
      <point x="502" y="0" type="line"/>
      <point x="496" y="38"/>
      <point x="490" y="76"/>
      <point x="483" y="114" type="curve"/>
      <point x="253" y="114" type="line"/>
      <point x="264" y="137"/>
      <point x="269" y="165"/>
      <point x="269" y="196" type="curve" smooth="yes"/>
      <point x="269" y="283" type="line"/>
      <point x="426" y="283" type="line"/>
      <point x="392" y="396" type="line"/>
      <point x="269" y="396" type="line"/>
      <point x="269" y="481" type="line" smooth="yes"/>
      <point x="269" y="527"/>
      <point x="289" y="560"/>
      <point x="335" y="560" type="curve" smooth="yes"/>
      <point x="351" y="560"/>
      <point x="374" y="555"/>
      <point x="394" y="545" type="curve"/>
      <point x="408" y="580"/>
      <point x="422" y="614"/>
      <point x="437" y="648" type="curve"/>
      <point x="409" y="672"/>
      <point x="354" y="683"/>
      <point x="312" y="683" type="curve" smooth="yes"/>
      <point x="196" y="683"/>
      <point x="121" y="612"/>
      <point x="121" y="499" type="curve" smooth="yes"/>
      <point x="121" y="396" type="line"/>
    </contour>
  </outline>
</glyph>
<glyph name="currency" format="1">
  <advance width="719"/>
  <unicode hex="00A4"/>
  <outline>
    <contour>
      <point x="361" y="-13" type="curve"/>
      <point x="409" y="-12"/>
      <point x="454" y="0"/>
      <point x="492" y="19" type="curve"/>
      <point x="598" y="-89" type="line"/>
      <point x="699" y="14" type="line"/>
      <point x="592" y="117" type="line"/>
      <point x="612" y="154"/>
      <point x="625" y="197"/>
      <point x="625" y="246" type="curve" smooth="yes"/>
      <point x="625" y="293"/>
      <point x="612" y="336"/>
      <point x="592" y="373" type="curve"/>
      <point x="695" y="475" type="line"/>
      <point x="600" y="581" type="line"/>
      <point x="492" y="471" type="line"/>
      <point x="454" y="491"/>
      <point x="409" y="503"/>
      <point x="361" y="503" type="curve" smooth="yes"/>
      <point x="312" y="503"/>
      <point x="266" y="490"/>
      <point x="227" y="470" type="curve"/>
      <point x="121" y="579" type="line"/>
      <point x="21" y="476" type="line"/>
      <point x="130" y="370" type="line"/>
      <point x="110" y="335"/>
      <point x="98" y="291"/>
      <point x="98" y="244" type="curve" smooth="yes"/>
      <point x="98" y="197"/>
      <point x="110" y="155"/>
      <point x="129" y="119" type="curve"/>
      <point x="25" y="14" type="line"/>
      <point x="119" y="-91" type="line"/>
      <point x="227" y="20" type="line"/>
      <point x="266" y="0"/>
      <point x="313" y="-12"/>
    </contour>
    <contour>
      <point x="246" y="245" type="curve"/>
      <point x="247" y="310"/>
      <point x="297" y="361"/>
      <point x="360" y="362" type="curve" smooth="yes"/>
      <point x="423" y="362"/>
      <point x="476" y="312"/>
      <point x="476" y="245" type="curve" smooth="yes"/>
      <point x="476" y="179"/>
      <point x="424" y="127"/>
      <point x="360" y="127" type="curve" smooth="yes"/>
      <point x="298" y="127"/>
      <point x="247" y="179"/>
    </contour>
  </outline>
</glyph>
<glyph name="yen" format="1">
  <advance width="626"/>
  <unicode hex="00A5"/>
  <outline>
    <contour>
      <point x="537" y="60" type="line"/>
      <point x="527" y="163" type="line"/>
      <point x="383" y="163" type="line"/>
      <point x="383" y="212" type="line"/>
      <point x="537" y="212" type="line"/>
      <point x="527" y="314" type="line"/>
      <point x="412" y="314" type="line"/>
      <point x="619" y="680" type="line"/>
      <point x="465" y="680" type="line"/>
      <point x="308" y="408" type="line"/>
      <point x="159" y="680" type="line"/>
      <point x="7" y="662" type="line"/>
      <point x="74" y="547"/>
      <point x="140" y="430"/>
      <point x="208" y="314" type="curve"/>
      <point x="79" y="314" type="line"/>
      <point x="90" y="212" type="line"/>
      <point x="236" y="212" type="line"/>
      <point x="236" y="163" type="line"/>
      <point x="79" y="163" type="line"/>
      <point x="90" y="60" type="line"/>
      <point x="236" y="60" type="line"/>
      <point x="236" y="0" type="line"/>
      <point x="383" y="0" type="line"/>
      <point x="383" y="60" type="line"/>
    </contour>
  </outline>
</glyph>
<glyph name="brokenbar" format="1">
  <advance width="304"/>
  <unicode hex="00A6"/>
  <outline>
    <contour>
      <point x="225" y="287" type="line"/>
      <point x="222" y="287"/>
      <point x="218" y="288"/>
      <point x="79" y="298" type="curve"/>
      <point x="79" y="0" type="line"/>
      <point x="128" y="-3"/>
      <point x="176" y="-8"/>
      <point x="225" y="-11" type="curve"/>
    </contour>
    <contour>
      <point x="225" y="701" type="line"/>
      <point x="176" y="704"/>
      <point x="128" y="709"/>
      <point x="79" y="713" type="curve"/>
      <point x="79" y="414" type="line"/>
      <point x="225" y="402" type="line"/>
    </contour>
  </outline>
</glyph>
<glyph name="section" format="1">
  <advance width="656"/>
  <unicode hex="00A7"/>
  <outline>
    <contour>
      <point x="141" y="595" type="curve" smooth="yes"/>
      <point x="141" y="584"/>
      <point x="142" y="569"/>
      <point x="144" y="559" type="curve"/>
      <point x="77" y="529"/>
      <point x="38" y="472"/>
      <point x="38" y="403" type="curve" smooth="yes"/>
      <point x="38" y="285"/>
      <point x="147" y="223"/>
      <point x="242" y="175" type="curve" smooth="yes"/>
      <point x="302" y="145"/>
      <point x="363" y="113"/>
      <point x="363" y="75" type="curve" smooth="yes"/>
      <point x="363" y="34"/>
      <point x="326" y="7"/>
      <point x="253" y="7" type="curve" smooth="yes"/>
      <point x="198" y="7"/>
      <point x="126" y="33"/>
      <point x="87" y="53" type="curve"/>
      <point x="47" y="-61" type="line"/>
      <point x="86" y="-91"/>
      <point x="194" y="-119"/>
      <point x="256" y="-119" type="curve" smooth="yes"/>
      <point x="422" y="-119"/>
      <point x="514" y="-38"/>
      <point x="515" y="73" type="curve" smooth="yes"/>
      <point x="515" y="85"/>
      <point x="514" y="96"/>
      <point x="510" y="107" type="curve"/>
      <point x="579" y="138"/>
      <point x="617" y="195"/>
      <point x="617" y="264" type="curve" smooth="yes"/>
      <point x="617" y="379"/>
      <point x="510" y="441"/>
      <point x="412" y="491" type="curve"/>
      <point x="342" y="526"/>
      <point x="292" y="552"/>
      <point x="292" y="594" type="curve" smooth="yes"/>
      <point x="292" y="633"/>
      <point x="330" y="656"/>
      <point x="383" y="656" type="curve" smooth="yes"/>
      <point x="433" y="656"/>
      <point x="472" y="641"/>
      <point x="521" y="621" type="curve"/>
      <point x="529" y="618" type="line"/>
      <point x="575" y="728" type="line"/>
      <point x="522" y="757"/>
      <point x="449" y="780"/>
      <point x="382" y="780" type="curve" smooth="yes"/>
      <point x="229" y="780"/>
      <point x="142" y="701"/>
    </contour>
    <contour>
      <point x="310" y="299" type="curve" smooth="yes"/>
      <point x="239" y="336"/>
      <point x="190" y="361"/>
      <point x="190" y="403" type="curve" smooth="yes"/>
      <point x="190" y="420"/>
      <point x="199" y="436"/>
      <point x="216" y="445" type="curve"/>
      <point x="254" y="413"/>
      <point x="301" y="388"/>
      <point x="344" y="366" type="curve" smooth="yes"/>
      <point x="406" y="336"/>
      <point x="466" y="304"/>
      <point x="466" y="265" type="curve" smooth="yes"/>
      <point x="466" y="247"/>
      <point x="456" y="231"/>
      <point x="437" y="220" type="curve"/>
      <point x="400" y="251"/>
      <point x="355" y="276"/>
    </contour>
  </outline>
</glyph>
<glyph name="dieresis" format="1">
  <advance width="368"/>
  <unicode hex="00A8"/>
  <outline>
    <contour>
      <point x="354" y="673" type="curve" smooth="yes"/>
      <point x="354" y="713"/>
      <point x="323" y="744"/>
      <point x="283" y="744" type="curve" smooth="yes"/>
      <point x="245" y="744"/>
      <point x="212" y="713"/>
      <point x="212" y="673" type="curve" smooth="yes"/>
      <point x="212" y="634"/>
      <point x="245" y="603"/>
      <point x="283" y="603" type="curve" smooth="yes"/>
      <point x="323" y="603"/>
      <point x="354" y="634"/>
    </contour>
    <contour>
      <point x="156" y="673" type="curve" smooth="yes"/>
      <point x="156" y="713"/>
      <point x="126" y="744"/>
      <point x="86" y="744" type="curve" smooth="yes"/>
      <point x="46" y="744"/>
      <point x="14" y="713"/>
      <point x="14" y="673" type="curve" smooth="yes"/>
      <point x="14" y="634"/>
      <point x="46" y="603"/>
      <point x="86" y="603" type="curve" smooth="yes"/>
      <point x="126" y="603"/>
      <point x="156" y="634"/>
    </contour>
  </outline>
</glyph>
<glyph name="copyright" format="1">
  <advance width="872"/>
  <unicode hex="00A9"/>
  <outline>
    <contour>
      <point x="436" y="46" type="curve" smooth="yes"/>
      <point x="259" y="46"/>
      <point x="148" y="172"/>
      <point x="148" y="337" type="curve" smooth="yes"/>
      <point x="148" y="503"/>
      <point x="259" y="628"/>
      <point x="436" y="628" type="curve" smooth="yes"/>
      <point x="619" y="628"/>
      <point x="723" y="503"/>
      <point x="723" y="337" type="curve" smooth="yes"/>
      <point x="723" y="172"/>
      <point x="614" y="46"/>
    </contour>
    <contour>
      <point x="436" y="-45" type="curve" smooth="yes"/>
      <point x="674" y="-45"/>
      <point x="825" y="124"/>
      <point x="825" y="336" type="curve" smooth="yes"/>
      <point x="825" y="551"/>
      <point x="674" y="718"/>
      <point x="436" y="718" type="curve" smooth="yes"/>
      <point x="199" y="718"/>
      <point x="48" y="551"/>
      <point x="48" y="336" type="curve" smooth="yes"/>
      <point x="48" y="124"/>
      <point x="199" y="-45"/>
    </contour>
    <contour>
      <point x="459" y="451" type="curve" smooth="yes"/>
      <point x="498" y="451"/>
      <point x="522" y="442"/>
      <point x="562" y="422" type="curve"/>
      <point x="600" y="524" type="line"/>
      <point x="555" y="557"/>
      <point x="489" y="568"/>
      <point x="453" y="568" type="curve" smooth="yes"/>
      <point x="318" y="568"/>
      <point x="222" y="480"/>
      <point x="222" y="337" type="curve" smooth="yes"/>
      <point x="222" y="193"/>
      <point x="311" y="106"/>
      <point x="453" y="106" type="curve" smooth="yes"/>
      <point x="489" y="106"/>
      <point x="556" y="116"/>
      <point x="600" y="151" type="curve"/>
      <point x="562" y="252" type="line"/>
      <point x="522" y="232"/>
      <point x="497" y="223"/>
      <point x="459" y="223" type="curve" smooth="yes"/>
      <point x="403" y="223"/>
      <point x="366" y="264"/>
      <point x="366" y="337" type="curve" smooth="yes"/>
      <point x="366" y="408"/>
      <point x="403" y="451"/>
    </contour>
  </outline>
</glyph>
<glyph name="ordfeminine" format="1">
  <advance width="356"/>
  <unicode hex="00AA"/>
  <outline>
    <contour>
      <point x="167" y="702" type="curve" smooth="yes"/>
      <point x="129" y="702"/>
      <point x="67" y="688"/>
      <point x="39" y="672" type="curve"/>
      <point x="66" y="580" type="line"/>
      <point x="91" y="591"/>
      <point x="129" y="601"/>
      <point x="157" y="601" type="curve" smooth="yes"/>
      <point x="180" y="601"/>
      <point x="194" y="591"/>
      <point x="199" y="572" type="curve"/>
      <point x="151" y="572" type="line"/>
      <point x="75" y="572"/>
      <point x="24" y="533"/>
      <point x="24" y="465" type="curve" smooth="yes"/>
      <point x="24" y="400"/>
      <point x="63" y="354"/>
      <point x="145" y="354" type="curve" smooth="yes"/>
      <point x="178" y="354"/>
      <point x="213" y="369"/>
      <point x="235" y="388" type="curve"/>
      <point x="259" y="362" type="line"/>
      <point x="311" y="362" type="line"/>
      <point x="311" y="575" type="line" smooth="yes"/>
      <point x="311" y="649"/>
      <point x="250" y="702"/>
    </contour>
    <contour>
      <point x="150" y="452" type="curve" smooth="yes"/>
      <point x="134" y="452"/>
      <point x="127" y="460"/>
      <point x="127" y="470" type="curve" smooth="yes"/>
      <point x="127" y="482"/>
      <point x="137" y="490"/>
      <point x="156" y="490" type="curve" smooth="yes"/>
      <point x="204" y="490" type="line"/>
      <point x="204" y="471" type="line"/>
      <point x="188" y="458"/>
      <point x="169" y="452"/>
    </contour>
  </outline>
</glyph>
<glyph name="guillemotleft" format="1">
  <advance width="392"/>
  <unicode hex="00AB"/>
  <outline>
    <contour>
      <point x="180" y="80" type="line"/>
      <point x="206" y="172" type="line"/>
      <point x="127" y="246" type="line"/>
      <point x="206" y="319" type="line"/>
      <point x="180" y="412" type="line"/>
      <point x="21" y="269" type="line"/>
      <point x="21" y="222" type="line"/>
    </contour>
    <contour>
      <point x="353" y="80" type="line"/>
      <point x="378" y="172" type="line"/>
      <point x="300" y="246" type="line"/>
      <point x="378" y="319" type="line"/>
      <point x="353" y="412" type="line"/>
      <point x="194" y="269" type="line"/>
      <point x="194" y="222" type="line"/>
    </contour>
  </outline>
</glyph>
<glyph name="logicalnot" format="1">
  <advance width="519"/>
  <unicode hex="00AC"/>
  <outline>
    <contour>
      <point x="501" y="356" type="line"/>
      <point x="489" y="411" type="line"/>
      <point x="14" y="411" type="line"/>
      <point x="23" y="296" type="line"/>
      <point x="372" y="296" type="line"/>
      <point x="372" y="117" type="line"/>
      <point x="501" y="111" type="line"/>
    </contour>
  </outline>
</glyph>
<glyph name="registered" format="1">
  <advance width="745"/>
  <unicode hex="00AE"/>
  <outline>
    <contour>
      <point x="362" y="146" type="curve" smooth="yes"/>
      <point x="574" y="146"/>
      <point x="704" y="294"/>
      <point x="704" y="483" type="curve" smooth="yes"/>
      <point x="704" y="674"/>
      <point x="574" y="823"/>
      <point x="362" y="823" type="curve" smooth="yes"/>
      <point x="152" y="823"/>
      <point x="21" y="674"/>
      <point x="21" y="483" type="curve" smooth="yes"/>
      <point x="21" y="294"/>
      <point x="152" y="146"/>
    </contour>
    <contour>
      <point x="362" y="227" type="curve"/>
      <point x="203" y="229"/>
      <point x="109" y="337"/>
      <point x="109" y="484" type="curve" smooth="yes"/>
      <point x="109" y="632"/>
      <point x="203" y="740"/>
      <point x="362" y="740" type="curve" smooth="yes"/>
      <point x="520" y="740"/>
      <point x="615" y="632"/>
      <point x="615" y="484" type="curve" smooth="yes"/>
      <point x="615" y="337"/>
      <point x="520" y="229"/>
    </contour>
    <contour>
      <point x="421" y="302" type="line"/>
      <point x="529" y="302" type="line"/>
      <point x="457" y="455" type="line"/>
      <point x="493" y="473"/>
      <point x="520" y="507"/>
      <point x="520" y="555" type="curve" smooth="yes"/>
      <point x="520" y="636"/>
      <point x="451" y="672"/>
      <point x="370" y="672" type="curve" smooth="yes"/>
      <point x="221" y="672" type="line"/>
      <point x="221" y="302" type="line"/>
      <point x="317" y="302" type="line"/>
      <point x="317" y="435" type="line"/>
      <point x="365" y="435" type="line"/>
    </contour>
    <contour>
      <point x="350" y="594" type="line" smooth="yes"/>
      <point x="392" y="594"/>
      <point x="417" y="588"/>
      <point x="417" y="552" type="curve" smooth="yes"/>
      <point x="417" y="521"/>
      <point x="390" y="511"/>
      <point x="351" y="511" type="curve" smooth="yes"/>
      <point x="317" y="511" type="line"/>
      <point x="317" y="594" type="line"/>
    </contour>
  </outline>
</glyph>
<glyph name="macron" format="1">
  <advance width="299"/>
  <unicode hex="00AF"/>
  <outline>
    <contour>
      <point x="14" y="729" type="line"/>
      <point x="14" y="613" type="line"/>
      <point x="285" y="613" type="line"/>
      <point x="285" y="729" type="line"/>
    </contour>
  </outline>
</glyph>
<glyph name="degree" format="1">
  <advance width="266"/>
  <unicode hex="00B0"/>
  <outline>
    <contour>
      <point x="258" y="603" type="curve" smooth="yes"/>
      <point x="258" y="669"/>
      <point x="199" y="723"/>
      <point x="133" y="723" type="curve" smooth="yes"/>
      <point x="64" y="723"/>
      <point x="7" y="669"/>
      <point x="7" y="603" type="curve" smooth="yes"/>
      <point x="7" y="534"/>
      <point x="64" y="484"/>
      <point x="133" y="484" type="curve" smooth="yes"/>
      <point x="199" y="484"/>
      <point x="258" y="534"/>
    </contour>
    <contour>
      <point x="134" y="637" type="curve" smooth="yes"/>
      <point x="153" y="637"/>
      <point x="168" y="620"/>
      <point x="168" y="600" type="curve" smooth="yes"/>
      <point x="168" y="582"/>
      <point x="153" y="565"/>
      <point x="134" y="565" type="curve" smooth="yes"/>
      <point x="115" y="565"/>
      <point x="99" y="584"/>
      <point x="99" y="603" type="curve" smooth="yes"/>
      <point x="99" y="620"/>
      <point x="115" y="637"/>
    </contour>
  </outline>
</glyph>
<glyph name="plusminus" format="1">
  <advance width="476"/>
  <unicode hex="00B1"/>
  <outline>
    <contour>
      <point x="455" y="296" type="line"/>
      <point x="445" y="396" type="line"/>
      <point x="302" y="396" type="line"/>
      <point x="302" y="544" type="line"/>
      <point x="179" y="544" type="line"/>
      <point x="179" y="396" type="line"/>
      <point x="21" y="396" type="line"/>
      <point x="32" y="296" type="line"/>
      <point x="179" y="296" type="line"/>
      <point x="179" y="149" type="line"/>
      <point x="302" y="143" type="line"/>
      <point x="302" y="296" type="line"/>
    </contour>
    <contour>
      <point x="454" y="0" type="line"/>
      <point x="448" y="101" type="line"/>
      <point x="23" y="101" type="line"/>
      <point x="31" y="0" type="line"/>
    </contour>
  </outline>
</glyph>
<glyph name="twosuperior" format="1">
  <advance width="404"/>
  <unicode hex="00B2"/>
  <outline>
    <contour>
      <point x="348" y="638" type="curve" smooth="yes"/>
      <point x="348" y="701"/>
      <point x="302" y="771"/>
      <point x="186" y="771" type="curve" smooth="yes"/>
      <point x="115" y="771"/>
      <point x="65" y="738"/>
      <point x="36" y="714" type="curve"/>
      <point x="85" y="628" type="line"/>
      <point x="95" y="636"/>
      <point x="143" y="670"/>
      <point x="179" y="670" type="curve" smooth="yes"/>
      <point x="209" y="670"/>
      <point x="227" y="653"/>
      <point x="227" y="634" type="curve" smooth="yes"/>
      <point x="227" y="596"/>
      <point x="208" y="568"/>
      <point x="168" y="534" type="curve" smooth="yes"/>
      <point x="34" y="422" type="line"/>
      <point x="34" y="337" type="line"/>
      <point x="362" y="337" type="line"/>
      <point x="348" y="433" type="line"/>
      <point x="204" y="433" type="line"/>
      <point x="247" y="468" type="line" smooth="yes"/>
      <point x="320" y="529"/>
      <point x="348" y="577"/>
    </contour>
  </outline>
</glyph>
<glyph name="threesuperior" format="1">
  <advance width="426"/>
  <unicode hex="00B3"/>
  <outline>
    <contour>
      <point x="365" y="639" type="curve" smooth="yes"/>
      <point x="365" y="713"/>
      <point x="307" y="771"/>
      <point x="198" y="771" type="curve" smooth="yes"/>
      <point x="138" y="771"/>
      <point x="84" y="752"/>
      <point x="34" y="717" type="curve"/>
      <point x="87" y="632" type="line"/>
      <point x="115" y="653"/>
      <point x="144" y="669"/>
      <point x="182" y="669" type="curve" smooth="yes"/>
      <point x="225" y="669"/>
      <point x="238" y="650"/>
      <point x="238" y="634" type="curve" smooth="yes"/>
      <point x="238" y="610"/>
      <point x="224" y="584"/>
      <point x="168" y="584" type="curve" smooth="yes"/>
      <point x="115" y="584" type="line"/>
      <point x="128" y="488" type="line"/>
      <point x="174" y="488" type="line" smooth="yes"/>
      <point x="220" y="488"/>
      <point x="246" y="467"/>
      <point x="246" y="428" type="curve" smooth="yes"/>
      <point x="246" y="399"/>
      <point x="220" y="379"/>
      <point x="180" y="379" type="curve" smooth="yes"/>
      <point x="143" y="379"/>
      <point x="117" y="390"/>
      <point x="76" y="415" type="curve"/>
      <point x="19" y="329" type="line"/>
      <point x="68" y="302"/>
      <point x="133" y="279"/>
      <point x="189" y="279" type="curve" smooth="yes"/>
      <point x="301" y="279"/>
      <point x="374" y="343"/>
      <point x="374" y="427" type="curve" smooth="yes"/>
      <point x="374" y="483"/>
      <point x="336" y="529"/>
      <point x="305" y="540" type="curve"/>
      <point x="334" y="553"/>
      <point x="365" y="596"/>
    </contour>
  </outline>
</glyph>
<glyph name="acute" format="1">
  <advance width="241"/>
  <unicode hex="00B4"/>
  <outline>
    <contour>
      <point x="79" y="764" type="line"/>
      <point x="14" y="589" type="line"/>
      <point x="127" y="589" type="line"/>
      <point x="228" y="764" type="line"/>
    </contour>
  </outline>
</glyph>
<glyph name="mu" format="1">
  <advance width="588"/>
  <unicode hex="00B5"/>
  <outline>
    <contour>
      <point x="248" y="-19" type="curve" smooth="yes"/>
      <point x="310" y="-19"/>
      <point x="380" y="9"/>
      <point x="424" y="45" type="curve"/>
      <point x="436" y="30"/>
      <point x="447" y="15"/>
      <point x="460" y="0" type="curve"/>
      <point x="535" y="0" type="line"/>
      <point x="535" y="484" type="line"/>
      <point x="388" y="484" type="line"/>
      <point x="388" y="141" type="line"/>
      <point x="357" y="121"/>
      <point x="319" y="103"/>
      <point x="288" y="103" type="curve" smooth="yes"/>
      <point x="240" y="103"/>
      <point x="212" y="136"/>
      <point x="212" y="186" type="curve" smooth="yes"/>
      <point x="212" y="484" type="line"/>
      <point x="66" y="484" type="line"/>
      <point x="66" y="-219" type="line"/>
      <point x="212" y="-209" type="line"/>
      <point x="212" y="-15" type="line"/>
      <point x="222" y="-18"/>
      <point x="234" y="-19"/>
    </contour>
  </outline>
</glyph>
<glyph name="paragraph" format="1">
  <advance width="980"/>
  <unicode hex="00B6"/>
  <outline>
    <contour>
      <point x="702" y="0" type="line"/>
      <point x="849" y="0" type="line"/>
      <point x="849" y="564" type="line"/>
      <point x="958" y="564" type="line"/>
      <point x="958" y="680" type="line"/>
      <point x="324" y="680" type="line" smooth="yes"/>
      <point x="171" y="680"/>
      <point x="47" y="617"/>
      <point x="47" y="454" type="curve" smooth="yes"/>
      <point x="47" y="293"/>
      <point x="185" y="221"/>
      <point x="336" y="221" type="curve" smooth="yes"/>
      <point x="360" y="221" type="line"/>
      <point x="360" y="0" type="line"/>
      <point x="507" y="0" type="line"/>
      <point x="507" y="564" type="line"/>
      <point x="702" y="564" type="line"/>
    </contour>
  </outline>
</glyph>
<glyph name="periodcentered" format="1">
  <advance width="179"/>
  <unicode hex="00B7"/>
  <outline>
    <contour>
      <point x="168" y="262" type="curve" smooth="yes"/>
      <point x="168" y="308"/>
      <point x="134" y="342"/>
      <point x="90" y="342" type="curve" smooth="yes"/>
      <point x="45" y="342"/>
      <point x="10" y="308"/>
      <point x="10" y="262" type="curve" smooth="yes"/>
      <point x="10" y="218"/>
      <point x="45" y="183"/>
      <point x="90" y="183" type="curve" smooth="yes"/>
      <point x="134" y="183"/>
      <point x="168" y="218"/>
    </contour>
  </outline>
</glyph>
<glyph name="cedilla" format="1">
  <advance width="261"/>
  <unicode hex="00B8"/>
  <outline>
    <contour>
      <point x="92" y="13" type="line"/>
      <point x="55" y="-81" type="line"/>
      <point x="108" y="-88"/>
      <point x="142" y="-104"/>
      <point x="142" y="-124" type="curve" smooth="yes"/>
      <point x="142" y="-137"/>
      <point x="125" y="-141"/>
      <point x="109" y="-141" type="curve" smooth="yes"/>
      <point x="91" y="-141"/>
      <point x="63" y="-131"/>
      <point x="47" y="-123" type="curve"/>
      <point x="14" y="-202" type="line"/>
      <point x="40" y="-222"/>
      <point x="86" y="-235"/>
      <point x="116" y="-235" type="curve" smooth="yes"/>
      <point x="184" y="-235"/>
      <point x="247" y="-199"/>
      <point x="247" y="-126" type="curve" smooth="yes"/>
      <point x="247" y="-91"/>
      <point x="221" y="-48"/>
      <point x="178" y="-32" type="curve"/>
      <point x="196" y="13" type="line"/>
    </contour>
  </outline>
</glyph>
<glyph name="onesuperior" format="1">
  <advance width="387"/>
  <unicode hex="00B9"/>
  <outline>
    <contour>
      <point x="59" y="432" type="line"/>
      <point x="68" y="337" type="line"/>
      <point x="345" y="337" type="line"/>
      <point x="345" y="340"/>
      <point x="344" y="342"/>
      <point x="335" y="432" type="curve"/>
      <point x="272" y="432" type="line"/>
      <point x="272" y="763" type="line"/>
      <point x="190" y="763" type="line"/>
      <point x="51" y="690" type="line"/>
      <point x="102" y="596" type="line"/>
      <point x="148" y="619" type="line"/>
      <point x="148" y="432" type="line"/>
    </contour>
  </outline>
</glyph>
<glyph name="ordmasculine" format="1">
  <advance width="393"/>
  <unicode hex="00BA"/>
  <outline>
    <contour>
      <point x="24" y="528" type="curve" smooth="yes"/>
      <point x="24" y="422"/>
      <point x="85" y="354"/>
      <point x="190" y="354" type="curve" smooth="yes"/>
      <point x="298" y="354"/>
      <point x="368" y="421"/>
      <point x="368" y="526" type="curve" smooth="yes"/>
      <point x="368" y="632"/>
      <point x="306" y="702"/>
      <point x="195" y="702" type="curve" smooth="yes"/>
      <point x="90" y="702"/>
      <point x="24" y="635"/>
    </contour>
    <contour>
      <point x="197" y="601" type="curve" smooth="yes"/>
      <point x="237" y="601"/>
      <point x="249" y="572"/>
      <point x="249" y="526" type="curve" smooth="yes"/>
      <point x="249" y="477"/>
      <point x="231" y="454"/>
      <point x="193" y="454" type="curve" smooth="yes"/>
      <point x="157" y="454"/>
      <point x="143" y="480"/>
      <point x="143" y="528" type="curve" smooth="yes"/>
      <point x="143" y="580"/>
      <point x="164" y="601"/>
    </contour>
  </outline>
</glyph>
<glyph name="guillemotright" format="1">
  <advance width="392"/>
  <unicode hex="00BB"/>
  <outline>
    <contour>
      <point x="211" y="412" type="line"/>
      <point x="186" y="319" type="line"/>
      <point x="264" y="246" type="line"/>
      <point x="186" y="173" type="line"/>
      <point x="211" y="80" type="line"/>
      <point x="371" y="222" type="line"/>
      <point x="371" y="269" type="line"/>
    </contour>
    <contour>
      <point x="38" y="412" type="line"/>
      <point x="12" y="319" type="line"/>
      <point x="91" y="246" type="line"/>
      <point x="12" y="173" type="line"/>
      <point x="38" y="80" type="line"/>
      <point x="197" y="222" type="line"/>
      <point x="197" y="269" type="line"/>
    </contour>
  </outline>
</glyph>
<glyph name="onequarter" format="1">
  <advance width="949"/>
  <unicode hex="00BC"/>
  <outline>
    <contour>
      <point x="910" y="-79" type="line"/>
      <point x="913" y="-45"/>
      <point x="916" y="-11"/>
      <point x="920" y="21" type="curve"/>
      <point x="833" y="21" type="line"/>
      <point x="833" y="323" type="line"/>
      <point x="743" y="323" type="line"/>
      <point x="489" y="19" type="line"/>
      <point x="503" y="-79" type="line"/>
      <point x="707" y="-79" type="line"/>
      <point x="707" y="-165" type="line"/>
      <point x="833" y="-165" type="line"/>
      <point x="833" y="-79" type="line"/>
    </contour>
    <contour>
      <point x="656" y="493" type="curve"/>
      <point x="506" y="493" type="line"/>
      <point x="223" y="0" type="line"/>
      <point x="371" y="0" type="line"/>
      <point x="467" y="161"/>
      <point x="561" y="328"/>
    </contour>
    <contour>
      <point x="59" y="432" type="line"/>
      <point x="68" y="337" type="line"/>
      <point x="345" y="337" type="line"/>
      <point x="345" y="340"/>
      <point x="344" y="342"/>
      <point x="335" y="432" type="curve"/>
      <point x="272" y="432" type="line"/>
      <point x="272" y="763" type="line"/>
      <point x="190" y="763" type="line"/>
      <point x="51" y="690" type="line"/>
      <point x="102" y="596" type="line"/>
      <point x="148" y="619" type="line"/>
      <point x="148" y="432" type="line"/>
    </contour>
    <contour>
      <point x="625" y="21" type="line"/>
      <point x="707" y="119" type="line"/>
      <point x="707" y="21" type="line"/>
    </contour>
  </outline>
</glyph>
<glyph name="onehalf" format="1">
  <advance width="970"/>
  <unicode hex="00BD"/>
  <outline>
    <contour>
      <point x="923" y="191" type="curve" smooth="yes"/>
      <point x="923" y="254"/>
      <point x="878" y="324"/>
      <point x="761" y="324" type="curve" smooth="yes"/>
      <point x="690" y="324"/>
      <point x="641" y="291"/>
      <point x="612" y="268" type="curve"/>
      <point x="627" y="239"/>
      <point x="644" y="210"/>
      <point x="660" y="182" type="curve"/>
      <point x="680" y="197"/>
      <point x="733" y="224"/>
      <point x="755" y="224" type="curve" smooth="yes"/>
      <point x="785" y="224"/>
      <point x="803" y="206"/>
      <point x="803" y="187" type="curve" smooth="yes"/>
      <point x="803" y="149"/>
      <point x="784" y="120"/>
      <point x="744" y="87" type="curve" smooth="yes"/>
      <point x="699" y="50"/>
      <point x="655" y="12"/>
      <point x="610" y="-24" type="curve"/>
      <point x="610" y="-109" type="line"/>
      <point x="937" y="-109" type="line"/>
      <point x="933" y="-77"/>
      <point x="929" y="-46"/>
      <point x="924" y="-14" type="curve"/>
      <point x="780" y="-14" type="line"/>
      <point x="794" y="-1"/>
      <point x="808" y="9"/>
      <point x="823" y="22" type="curve" smooth="yes"/>
      <point x="895" y="83"/>
      <point x="923" y="129"/>
    </contour>
    <contour>
      <point x="663" y="493" type="line"/>
      <point x="512" y="493" type="line"/>
      <point x="229" y="0" type="line"/>
      <point x="378" y="0" type="line"/>
    </contour>
    <contour>
      <point x="59" y="432" type="line"/>
      <point x="68" y="337" type="line"/>
      <point x="345" y="337" type="line"/>
      <point x="345" y="340"/>
      <point x="344" y="342"/>
      <point x="335" y="432" type="curve"/>
      <point x="272" y="432" type="line"/>
      <point x="272" y="763" type="line"/>
      <point x="190" y="763" type="line"/>
      <point x="51" y="690" type="line"/>
      <point x="102" y="596" type="line"/>
      <point x="148" y="619" type="line"/>
      <point x="148" y="432" type="line"/>
    </contour>
  </outline>
</glyph>
<glyph name="threequarters" format="1">
  <advance width="959"/>
  <unicode hex="00BE"/>
  <outline>
    <contour>
      <point x="668" y="494" type="line"/>
      <point x="517" y="494" type="line"/>
      <point x="232" y="0" type="line"/>
      <point x="383" y="0" type="line"/>
    </contour>
    <contour>
      <point x="921" y="-79" type="line"/>
      <point x="930" y="22" type="line"/>
      <point x="844" y="22" type="line"/>
      <point x="844" y="323" type="line"/>
      <point x="754" y="323" type="line"/>
      <point x="500" y="19" type="line"/>
      <point x="514" y="-79" type="line"/>
      <point x="718" y="-79" type="line"/>
      <point x="718" y="-165" type="line"/>
      <point x="844" y="-165" type="line"/>
      <point x="844" y="-79" type="line"/>
    </contour>
    <contour>
      <point x="635" y="22" type="line"/>
      <point x="718" y="119" type="line"/>
      <point x="718" y="22" type="line"/>
    </contour>
    <contour>
      <point x="365" y="639" type="curve" smooth="yes"/>
      <point x="365" y="713"/>
      <point x="307" y="771"/>
      <point x="198" y="771" type="curve" smooth="yes"/>
      <point x="138" y="771"/>
      <point x="84" y="752"/>
      <point x="34" y="717" type="curve"/>
      <point x="87" y="632" type="line"/>
      <point x="115" y="653"/>
      <point x="144" y="669"/>
      <point x="182" y="669" type="curve" smooth="yes"/>
      <point x="225" y="669"/>
      <point x="238" y="650"/>
      <point x="238" y="634" type="curve" smooth="yes"/>
      <point x="238" y="610"/>
      <point x="224" y="584"/>
      <point x="168" y="584" type="curve" smooth="yes"/>
      <point x="115" y="584" type="line"/>
      <point x="128" y="488" type="line"/>
      <point x="174" y="488" type="line" smooth="yes"/>
      <point x="220" y="488"/>
      <point x="246" y="467"/>
      <point x="246" y="428" type="curve" smooth="yes"/>
      <point x="246" y="399"/>
      <point x="220" y="379"/>
      <point x="180" y="379" type="curve" smooth="yes"/>
      <point x="143" y="379"/>
      <point x="117" y="390"/>
      <point x="76" y="415" type="curve"/>
      <point x="19" y="329" type="line"/>
      <point x="68" y="302"/>
      <point x="133" y="279"/>
      <point x="189" y="279" type="curve" smooth="yes"/>
      <point x="301" y="279"/>
      <point x="374" y="343"/>
      <point x="374" y="427" type="curve" smooth="yes"/>
      <point x="374" y="483"/>
      <point x="336" y="529"/>
      <point x="305" y="540" type="curve"/>
      <point x="334" y="553"/>
      <point x="365" y="596"/>
    </contour>
  </outline>
</glyph>
<glyph name="questiondown" format="1">
  <advance width="468"/>
  <unicode hex="00BF"/>
  <outline>
    <contour>
      <point x="38" y="146" type="curve" smooth="yes"/>
      <point x="38" y="37"/>
      <point x="114" y="-37"/>
      <point x="249" y="-37" type="curve" smooth="yes"/>
      <point x="318" y="-37"/>
      <point x="380" y="-21"/>
      <point x="443" y="18" type="curve"/>
      <point x="424" y="145" type="line"/>
      <point x="352" y="98"/>
      <point x="293" y="84"/>
      <point x="253" y="84" type="curve" smooth="yes"/>
      <point x="211" y="84"/>
      <point x="179" y="108"/>
      <point x="179" y="146" type="curve" smooth="yes"/>
      <point x="179" y="195"/>
      <point x="245" y="245"/>
      <point x="339" y="275" type="curve"/>
      <point x="331" y="438" type="line"/>
      <point x="222" y="477" type="line"/>
      <point x="206" y="348" type="line"/>
      <point x="102" y="298"/>
      <point x="38" y="223"/>
    </contour>
    <contour>
      <point x="205" y="585" type="curve" smooth="yes"/>
      <point x="205" y="540"/>
      <point x="240" y="505"/>
      <point x="284" y="505" type="curve" smooth="yes"/>
      <point x="329" y="505"/>
      <point x="364" y="540"/>
      <point x="364" y="585" type="curve" smooth="yes"/>
      <point x="364" y="629"/>
      <point x="329" y="664"/>
      <point x="284" y="664" type="curve" smooth="yes"/>
      <point x="240" y="664"/>
      <point x="205" y="629"/>
    </contour>
  </outline>
</glyph>
<glyph name="Aacute" format="1">
  <advance width="671"/>
  <unicode hex="00C1"/>
  <outline>
    <contour>
      <point x="403" y="680" type="line"/>
      <point x="269" y="680" type="line"/>
      <point x="7" y="0" type="line"/>
      <point x="154" y="0" type="line"/>
      <point x="210" y="151" type="line"/>
      <point x="460" y="151" type="line"/>
      <point x="517" y="0" type="line"/>
      <point x="663" y="18" type="line"/>
    </contour>
    <contour>
      <point x="319" y="913" type="line"/>
      <point x="255" y="739" type="line"/>
      <point x="366" y="739" type="line"/>
      <point x="466" y="913" type="line"/>
    </contour>
    <contour>
      <point x="333" y="489" type="line"/>
      <point x="416" y="269" type="line"/>
      <point x="252" y="269" type="line"/>
    </contour>
  </outline>
</glyph>
<glyph name="Acircumflex" format="1">
  <advance width="671"/>
  <unicode hex="00C2"/>
  <outline>
    <contour>
      <point x="403" y="680" type="line"/>
      <point x="269" y="680" type="line"/>
      <point x="7" y="0" type="line"/>
      <point x="154" y="0" type="line"/>
      <point x="210" y="151" type="line"/>
      <point x="460" y="151" type="line"/>
      <point x="517" y="0" type="line"/>
      <point x="663" y="18" type="line"/>
    </contour>
    <contour>
      <point x="268" y="739" type="line"/>
      <point x="330" y="803" type="line"/>
      <point x="392" y="739" type="line"/>
      <point x="528" y="739" type="line"/>
      <point x="369" y="915" type="line"/>
      <point x="286" y="915" type="line"/>
      <point x="127" y="739" type="line"/>
    </contour>
    <contour>
      <point x="333" y="489" type="line"/>
      <point x="416" y="269" type="line"/>
      <point x="252" y="269" type="line"/>
    </contour>
  </outline>
</glyph>
<glyph name="Atilde" format="1">
  <advance width="671"/>
  <unicode hex="00C3"/>
  <outline>
    <contour>
      <point x="403" y="680" type="line"/>
      <point x="269" y="680" type="line"/>
      <point x="7" y="0" type="line"/>
      <point x="154" y="0" type="line"/>
      <point x="210" y="151" type="line"/>
      <point x="460" y="151" type="line"/>
      <point x="517" y="0" type="line"/>
      <point x="663" y="18" type="line"/>
    </contour>
    <contour>
      <point x="257" y="750" type="line"/>
      <point x="257" y="763"/>
      <point x="269" y="780"/>
      <point x="283" y="780" type="curve" smooth="yes"/>
      <point x="317" y="780"/>
      <point x="341" y="745"/>
      <point x="387" y="745" type="curve" smooth="yes"/>
      <point x="444" y="745"/>
      <point x="499" y="778"/>
      <point x="499" y="879" type="curve"/>
      <point x="405" y="879" type="line"/>
      <point x="405" y="864"/>
      <point x="393" y="849"/>
      <point x="380" y="849" type="curve" smooth="yes"/>
      <point x="345" y="849"/>
      <point x="318" y="883"/>
      <point x="272" y="883" type="curve" smooth="yes"/>
      <point x="215" y="883"/>
      <point x="158" y="850"/>
      <point x="158" y="750" type="curve"/>
    </contour>
    <contour>
      <point x="333" y="489" type="line"/>
      <point x="416" y="269" type="line"/>
      <point x="252" y="269" type="line"/>
    </contour>
  </outline>
</glyph>
<glyph name="Adieresis" format="1">
  <advance width="671"/>
  <unicode hex="00C4"/>
  <outline>
    <contour>
      <point x="403" y="680" type="line"/>
      <point x="269" y="680" type="line"/>
      <point x="7" y="0" type="line"/>
      <point x="154" y="0" type="line"/>
      <point x="210" y="151" type="line"/>
      <point x="460" y="151" type="line"/>
      <point x="517" y="0" type="line"/>
      <point x="663" y="18" type="line"/>
    </contour>
    <contour>
      <point x="501" y="823" type="curve" smooth="yes"/>
      <point x="501" y="863"/>
      <point x="471" y="894"/>
      <point x="430" y="894" type="curve" smooth="yes"/>
      <point x="392" y="894"/>
      <point x="359" y="863"/>
      <point x="359" y="823" type="curve" smooth="yes"/>
      <point x="359" y="784"/>
      <point x="392" y="753"/>
      <point x="430" y="753" type="curve" smooth="yes"/>
      <point x="471" y="753"/>
      <point x="501" y="784"/>
    </contour>
    <contour>
      <point x="303" y="823" type="curve" smooth="yes"/>
      <point x="303" y="863"/>
      <point x="273" y="894"/>
      <point x="233" y="894" type="curve" smooth="yes"/>
      <point x="194" y="894"/>
      <point x="162" y="863"/>
      <point x="162" y="823" type="curve" smooth="yes"/>
      <point x="162" y="784"/>
      <point x="194" y="753"/>
      <point x="233" y="753" type="curve" smooth="yes"/>
      <point x="273" y="753"/>
      <point x="303" y="784"/>
    </contour>
    <contour>
      <point x="333" y="489" type="line"/>
      <point x="416" y="269" type="line"/>
      <point x="252" y="269" type="line"/>
    </contour>
  </outline>
</glyph>
<glyph name="Aring" format="1">
  <advance width="671"/>
  <unicode hex="00C5"/>
  <outline>
    <contour>
      <point x="403" y="680" type="line"/>
      <point x="269" y="680" type="line"/>
      <point x="7" y="0" type="line"/>
      <point x="154" y="0" type="line"/>
      <point x="210" y="151" type="line"/>
      <point x="460" y="151" type="line"/>
      <point x="517" y="0" type="line"/>
      <point x="663" y="18" type="line"/>
    </contour>
    <contour>
      <point x="445" y="848" type="curve" smooth="yes"/>
      <point x="445" y="908"/>
      <point x="392" y="954"/>
      <point x="332" y="954" type="curve" smooth="yes"/>
      <point x="271" y="954"/>
      <point x="220" y="908"/>
      <point x="220" y="848" type="curve" smooth="yes"/>
      <point x="220" y="786"/>
      <point x="271" y="744"/>
      <point x="332" y="744" type="curve" smooth="yes"/>
      <point x="392" y="744"/>
      <point x="445" y="786"/>
    </contour>
    <contour>
      <point x="333" y="489" type="line"/>
      <point x="416" y="269" type="line"/>
      <point x="252" y="269" type="line"/>
    </contour>
    <contour>
      <point x="368" y="848" type="curve" smooth="yes"/>
      <point x="368" y="828"/>
      <point x="353" y="811"/>
      <point x="333" y="811" type="curve" smooth="yes"/>
      <point x="313" y="811"/>
      <point x="296" y="828"/>
      <point x="296" y="848" type="curve" smooth="yes"/>
      <point x="296" y="868"/>
      <point x="313" y="883"/>
      <point x="333" y="883" type="curve" smooth="yes"/>
      <point x="353" y="883"/>
      <point x="368" y="868"/>
    </contour>
  </outline>
</glyph>
<glyph name="AE" format="1">
  <advance width="971"/>
  <unicode hex="00C6"/>
  <outline>
    <contour>
      <point x="3" y="19" type="line"/>
      <point x="144" y="0" type="line"/>
      <point x="179" y="49"/>
      <point x="213" y="99"/>
      <point x="248" y="149" type="curve"/>
      <point x="466" y="149" type="line"/>
      <point x="466" y="0" type="line"/>
      <point x="950" y="0" type="line"/>
      <point x="943" y="38"/>
      <point x="937" y="76"/>
      <point x="931" y="114" type="curve"/>
      <point x="614" y="114" type="line"/>
      <point x="614" y="284" type="line"/>
      <point x="824" y="284" type="line"/>
      <point x="805" y="400" type="line"/>
      <point x="614" y="400" type="line"/>
      <point x="614" y="564" type="line"/>
      <point x="907" y="564" type="line"/>
      <point x="889" y="680" type="line"/>
      <point x="458" y="680" type="line"/>
    </contour>
    <contour>
      <point x="328" y="266" type="line"/>
      <point x="466" y="468" type="line"/>
      <point x="466" y="266" type="line"/>
    </contour>
  </outline>
</glyph>
<glyph name="Ccedilla" format="1">
  <advance width="597"/>
  <unicode hex="00C7"/>
  <outline>
    <contour>
      <point x="364" y="571" type="curve" smooth="yes"/>
      <point x="419" y="571"/>
      <point x="445" y="563"/>
      <point x="508" y="543" type="curve"/>
      <point x="553" y="646" type="line"/>
      <point x="496" y="679"/>
      <point x="416" y="694"/>
      <point x="366" y="694" type="curve" smooth="yes"/>
      <point x="165" y="694"/>
      <point x="51" y="547"/>
      <point x="51" y="337" type="curve" smooth="yes"/>
      <point x="51" y="154"/>
      <point x="131" y="14"/>
      <point x="308" y="-9" type="curve"/>
      <point x="280" y="-81" type="line"/>
      <point x="333" y="-88"/>
      <point x="367" y="-104"/>
      <point x="367" y="-124" type="curve" smooth="yes"/>
      <point x="367" y="-137"/>
      <point x="350" y="-141"/>
      <point x="334" y="-141" type="curve" smooth="yes"/>
      <point x="316" y="-141"/>
      <point x="288" y="-131"/>
      <point x="272" y="-123" type="curve"/>
      <point x="239" y="-202" type="line"/>
      <point x="265" y="-222"/>
      <point x="311" y="-235"/>
      <point x="341" y="-235" type="curve" smooth="yes"/>
      <point x="409" y="-235"/>
      <point x="472" y="-199"/>
      <point x="472" y="-126" type="curve" smooth="yes"/>
      <point x="472" y="-91"/>
      <point x="446" y="-48"/>
      <point x="403" y="-32" type="curve"/>
      <point x="411" y="-10" type="line"/>
      <point x="462" y="-5"/>
      <point x="519" y="11"/>
      <point x="559" y="32" type="curve"/>
      <point x="504" y="142" type="line"/>
      <point x="465" y="123"/>
      <point x="417" y="109"/>
      <point x="361" y="109" type="curve" smooth="yes"/>
      <point x="255" y="109"/>
      <point x="204" y="207"/>
      <point x="204" y="338" type="curve" smooth="yes"/>
      <point x="204" y="482"/>
      <point x="265" y="571"/>
    </contour>
  </outline>
</glyph>
<glyph name="Egrave" format="1">
  <advance width="583"/>
  <unicode hex="00C8"/>
  <outline>
    <contour>
      <point x="562" y="0" type="line"/>
      <point x="542" y="114" type="line"/>
      <point x="225" y="114" type="line"/>
      <point x="225" y="284" type="line"/>
      <point x="436" y="284" type="line"/>
      <point x="416" y="400" type="line"/>
      <point x="225" y="400" type="line"/>
      <point x="225" y="564" type="line"/>
      <point x="519" y="564" type="line"/>
      <point x="512" y="603"/>
      <point x="506" y="641"/>
      <point x="500" y="680" type="curve"/>
      <point x="79" y="680" type="line"/>
      <point x="79" y="0" type="line"/>
    </contour>
    <contour>
      <point x="178" y="912" type="line"/>
      <point x="212" y="854"/>
      <point x="245" y="796"/>
      <point x="278" y="738" type="curve"/>
      <point x="389" y="738" type="line"/>
      <point x="368" y="796"/>
      <point x="347" y="854"/>
      <point x="325" y="912" type="curve"/>
    </contour>
  </outline>
</glyph>
<glyph name="Eacute" format="1">
  <advance width="583"/>
  <unicode hex="00C9"/>
  <outline>
    <contour>
      <point x="562" y="0" type="line"/>
      <point x="542" y="114" type="line"/>
      <point x="225" y="114" type="line"/>
      <point x="225" y="284" type="line"/>
      <point x="436" y="284" type="line"/>
      <point x="416" y="400" type="line"/>
      <point x="225" y="400" type="line"/>
      <point x="225" y="564" type="line"/>
      <point x="519" y="564" type="line"/>
      <point x="512" y="603"/>
      <point x="506" y="641"/>
      <point x="500" y="680" type="curve"/>
      <point x="79" y="680" type="line"/>
      <point x="79" y="0" type="line"/>
    </contour>
    <contour>
      <point x="285" y="912" type="line"/>
      <point x="221" y="738" type="line"/>
      <point x="332" y="738" type="line"/>
      <point x="433" y="912" type="line"/>
    </contour>
  </outline>
</glyph>
<glyph name="Ecircumflex" format="1">
  <advance width="583"/>
  <unicode hex="00CA"/>
  <outline>
    <contour>
      <point x="562" y="0" type="line"/>
      <point x="542" y="114" type="line"/>
      <point x="225" y="114" type="line"/>
      <point x="225" y="284" type="line"/>
      <point x="436" y="284" type="line"/>
      <point x="416" y="400" type="line"/>
      <point x="225" y="400" type="line"/>
      <point x="225" y="564" type="line"/>
      <point x="519" y="564" type="line"/>
      <point x="512" y="603"/>
      <point x="506" y="641"/>
      <point x="500" y="680" type="curve"/>
      <point x="79" y="680" type="line"/>
      <point x="79" y="0" type="line"/>
    </contour>
    <contour>
      <point x="233" y="739" type="line"/>
      <point x="296" y="803" type="line"/>
      <point x="316" y="781"/>
      <point x="337" y="760"/>
      <point x="357" y="739" type="curve"/>
      <point x="494" y="739" type="line"/>
      <point x="335" y="914" type="line"/>
      <point x="252" y="914" type="line"/>
      <point x="93" y="739" type="line"/>
    </contour>
  </outline>
</glyph>
<glyph name="Edieresis" format="1">
  <advance width="583"/>
  <unicode hex="00CB"/>
  <outline>
    <contour>
      <point x="563" y="0" type="line"/>
      <point x="543" y="115" type="line"/>
      <point x="226" y="115" type="line"/>
      <point x="226" y="285" type="line"/>
      <point x="436" y="285" type="line"/>
      <point x="417" y="401" type="line"/>
      <point x="226" y="401" type="line"/>
      <point x="226" y="564" type="line"/>
      <point x="519" y="564" type="line"/>
      <point x="500" y="680" type="line"/>
      <point x="79" y="680" type="line"/>
      <point x="79" y="0" type="line"/>
    </contour>
    <contour>
      <point x="467" y="823" type="curve" smooth="yes"/>
      <point x="467" y="863"/>
      <point x="436" y="894"/>
      <point x="395" y="894" type="curve" smooth="yes"/>
      <point x="357" y="894"/>
      <point x="324" y="863"/>
      <point x="324" y="823" type="curve" smooth="yes"/>
      <point x="324" y="784"/>
      <point x="357" y="753"/>
      <point x="395" y="753" type="curve" smooth="yes"/>
      <point x="436" y="753"/>
      <point x="467" y="784"/>
    </contour>
    <contour>
      <point x="268" y="823" type="curve" smooth="yes"/>
      <point x="268" y="863"/>
      <point x="238" y="894"/>
      <point x="198" y="894" type="curve" smooth="yes"/>
      <point x="159" y="894"/>
      <point x="127" y="863"/>
      <point x="127" y="823" type="curve" smooth="yes"/>
      <point x="127" y="784"/>
      <point x="159" y="753"/>
      <point x="198" y="753" type="curve" smooth="yes"/>
      <point x="238" y="753"/>
      <point x="268" y="784"/>
    </contour>
  </outline>
</glyph>
<glyph name="Igrave" format="1">
  <advance width="305"/>
  <unicode hex="00CC"/>
  <outline>
    <contour>
      <point x="225" y="680" type="line"/>
      <point x="79" y="680" type="line"/>
      <point x="79" y="0" type="line"/>
      <point x="225" y="0" type="line"/>
    </contour>
    <contour>
      <point x="27" y="912" type="line"/>
      <point x="61" y="854"/>
      <point x="94" y="796"/>
      <point x="127" y="738" type="curve"/>
      <point x="238" y="738" type="line"/>
      <point x="175" y="912" type="line"/>
    </contour>
  </outline>
</glyph>
<glyph name="Iacute" format="1">
  <advance width="305"/>
  <unicode hex="00CD"/>
  <outline>
    <contour>
      <point x="225" y="680" type="line"/>
      <point x="79" y="680" type="line"/>
      <point x="79" y="0" type="line"/>
      <point x="225" y="0" type="line"/>
    </contour>
    <contour>
      <point x="134" y="912" type="line"/>
      <point x="113" y="854"/>
      <point x="92" y="796"/>
      <point x="70" y="738" type="curve"/>
      <point x="182" y="738" type="line"/>
      <point x="215" y="796"/>
      <point x="248" y="854"/>
      <point x="282" y="912" type="curve"/>
    </contour>
  </outline>
</glyph>
<glyph name="Icircumflex" format="1">
  <advance width="305"/>
  <unicode hex="00CE"/>
  <outline>
    <contour>
      <point x="225" y="680" type="line"/>
      <point x="79" y="680" type="line"/>
      <point x="79" y="0" type="line"/>
      <point x="225" y="0" type="line"/>
    </contour>
    <contour>
      <point x="91" y="739" type="line"/>
      <point x="154" y="803" type="line"/>
      <point x="174" y="781"/>
      <point x="195" y="760"/>
      <point x="215" y="739" type="curve"/>
      <point x="352" y="739" type="line"/>
      <point x="193" y="914" type="line"/>
      <point x="110" y="914" type="line"/>
      <point x="-48" y="739" type="line"/>
    </contour>
  </outline>
</glyph>
<glyph name="Idieresis" format="1">
  <advance width="305"/>
  <unicode hex="00CF"/>
  <outline>
    <contour>
      <point x="225" y="680" type="line"/>
      <point x="79" y="680" type="line"/>
      <point x="79" y="0" type="line"/>
      <point x="225" y="0" type="line"/>
    </contour>
    <contour>
      <point x="320" y="823" type="curve" smooth="yes"/>
      <point x="320" y="862"/>
      <point x="289" y="894"/>
      <point x="248" y="894" type="curve" smooth="yes"/>
      <point x="210" y="894"/>
      <point x="178" y="862"/>
      <point x="178" y="823" type="curve" smooth="yes"/>
      <point x="178" y="783"/>
      <point x="210" y="753"/>
      <point x="248" y="753" type="curve" smooth="yes"/>
      <point x="289" y="753"/>
      <point x="320" y="783"/>
    </contour>
    <contour>
      <point x="121" y="823" type="curve" smooth="yes"/>
      <point x="121" y="862"/>
      <point x="91" y="894"/>
      <point x="52" y="894" type="curve" smooth="yes"/>
      <point x="12" y="894"/>
      <point x="-19" y="862"/>
      <point x="-19" y="823" type="curve" smooth="yes"/>
      <point x="-19" y="783"/>
      <point x="12" y="753"/>
      <point x="52" y="753" type="curve" smooth="yes"/>
      <point x="91" y="753"/>
      <point x="121" y="783"/>
    </contour>
  </outline>
</glyph>
<glyph name="Eth" format="1">
  <advance width="716"/>
  <unicode hex="00D0"/>
  <outline>
    <contour>
      <point x="349" y="0" type="line" smooth="yes"/>
      <point x="547" y="0"/>
      <point x="666" y="132"/>
      <point x="666" y="344" type="curve" smooth="yes"/>
      <point x="666" y="541"/>
      <point x="563" y="680"/>
      <point x="349" y="680" type="curve" smooth="yes"/>
      <point x="86" y="680" type="line"/>
      <point x="86" y="398" type="line"/>
      <point x="12" y="398" type="line"/>
      <point x="16" y="360"/>
      <point x="20" y="322"/>
      <point x="25" y="284" type="curve"/>
      <point x="86" y="284" type="line"/>
      <point x="86" y="0" type="line"/>
    </contour>
    <contour>
      <point x="325" y="284" type="line"/>
      <point x="313" y="398" type="line"/>
      <point x="233" y="398" type="line"/>
      <point x="233" y="559" type="line"/>
      <point x="350" y="559" type="line" smooth="yes"/>
      <point x="462" y="559"/>
      <point x="515" y="476"/>
      <point x="515" y="344" type="curve" smooth="yes"/>
      <point x="515" y="185"/>
      <point x="446" y="120"/>
      <point x="344" y="120" type="curve" smooth="yes"/>
      <point x="233" y="120" type="line"/>
      <point x="233" y="284" type="line"/>
    </contour>
  </outline>
</glyph>
<glyph name="Ntilde" format="1">
  <advance width="746"/>
  <unicode hex="00D1"/>
  <outline>
    <contour>
      <point x="666" y="680" type="line"/>
      <point x="519" y="680" type="line"/>
      <point x="519" y="248" type="line"/>
      <point x="221" y="680" type="line"/>
      <point x="79" y="680" type="line"/>
      <point x="79" y="0" type="line"/>
      <point x="225" y="0" type="line"/>
      <point x="225" y="428" type="line"/>
      <point x="523" y="0" type="line"/>
      <point x="666" y="0" type="line"/>
    </contour>
    <contour>
      <point x="301" y="750" type="line"/>
      <point x="301" y="762"/>
      <point x="313" y="780"/>
      <point x="327" y="780" type="curve" smooth="yes"/>
      <point x="361" y="780"/>
      <point x="385" y="745"/>
      <point x="431" y="745" type="curve" smooth="yes"/>
      <point x="488" y="745"/>
      <point x="543" y="777"/>
      <point x="543" y="878" type="curve"/>
      <point x="449" y="878" type="line"/>
      <point x="449" y="864"/>
      <point x="437" y="848"/>
      <point x="424" y="848" type="curve" smooth="yes"/>
      <point x="389" y="848"/>
      <point x="362" y="883"/>
      <point x="316" y="883" type="curve" smooth="yes"/>
      <point x="259" y="883"/>
      <point x="202" y="850"/>
      <point x="202" y="750" type="curve"/>
    </contour>
  </outline>
</glyph>
<glyph name="Ocircumflex" format="1">
  <advance width="742"/>
  <unicode hex="00D4"/>
  <outline>
    <contour>
      <point x="369" y="109" type="curve" smooth="yes"/>
      <point x="254" y="109"/>
      <point x="204" y="204"/>
      <point x="204" y="338" type="curve" smooth="yes"/>
      <point x="204" y="481"/>
      <point x="271" y="571"/>
      <point x="372" y="571" type="curve" smooth="yes"/>
      <point x="488" y="571"/>
      <point x="538" y="477"/>
      <point x="538" y="344" type="curve" smooth="yes"/>
      <point x="538" y="185"/>
      <point x="474" y="109"/>
    </contour>
    <contour>
      <point x="370" y="695" type="curve"/>
      <point x="169" y="693"/>
      <point x="51" y="548"/>
      <point x="51" y="337" type="curve" smooth="yes"/>
      <point x="51" y="141"/>
      <point x="155" y="-14"/>
      <point x="370" y="-14" type="curve" smooth="yes"/>
      <point x="573" y="-14"/>
      <point x="690" y="132"/>
      <point x="690" y="344" type="curve" smooth="yes"/>
      <point x="690" y="540"/>
      <point x="587" y="695"/>
    </contour>
    <contour>
      <point x="308" y="739" type="line"/>
      <point x="371" y="803" type="line"/>
      <point x="432" y="739" type="line"/>
      <point x="569" y="739" type="line"/>
      <point x="410" y="915" type="line"/>
      <point x="327" y="915" type="line"/>
      <point x="167" y="739" type="line"/>
    </contour>
  </outline>
</glyph>
<glyph name="Otilde" format="1">
  <advance width="742"/>
  <unicode hex="00D5"/>
  <outline>
    <contour>
      <point x="369" y="109" type="curve" smooth="yes"/>
      <point x="254" y="109"/>
      <point x="204" y="204"/>
      <point x="204" y="338" type="curve" smooth="yes"/>
      <point x="204" y="481"/>
      <point x="271" y="571"/>
      <point x="372" y="571" type="curve" smooth="yes"/>
      <point x="488" y="571"/>
      <point x="538" y="477"/>
      <point x="538" y="344" type="curve" smooth="yes"/>
      <point x="538" y="185"/>
      <point x="474" y="109"/>
    </contour>
    <contour>
      <point x="370" y="695" type="curve"/>
      <point x="169" y="693"/>
      <point x="51" y="548"/>
      <point x="51" y="337" type="curve" smooth="yes"/>
      <point x="51" y="141"/>
      <point x="155" y="-14"/>
      <point x="370" y="-14" type="curve" smooth="yes"/>
      <point x="573" y="-14"/>
      <point x="690" y="132"/>
      <point x="690" y="344" type="curve" smooth="yes"/>
      <point x="690" y="540"/>
      <point x="587" y="695"/>
    </contour>
    <contour>
      <point x="296" y="750" type="line"/>
      <point x="296" y="763"/>
      <point x="308" y="780"/>
      <point x="322" y="780" type="curve" smooth="yes"/>
      <point x="356" y="780"/>
      <point x="380" y="745"/>
      <point x="426" y="745" type="curve" smooth="yes"/>
      <point x="483" y="745"/>
      <point x="538" y="778"/>
      <point x="538" y="879" type="curve"/>
      <point x="444" y="879" type="line"/>
      <point x="444" y="864"/>
      <point x="432" y="849"/>
      <point x="418" y="849" type="curve" smooth="yes"/>
      <point x="384" y="849"/>
      <point x="357" y="883"/>
      <point x="310" y="883" type="curve" smooth="yes"/>
      <point x="254" y="883"/>
      <point x="197" y="850"/>
      <point x="197" y="750" type="curve"/>
    </contour>
  </outline>
</glyph>
<glyph name="Odieresis" format="1">
  <advance width="742"/>
  <unicode hex="00D6"/>
  <outline>
    <contour>
      <point x="369" y="109" type="curve" smooth="yes"/>
      <point x="254" y="109"/>
      <point x="204" y="204"/>
      <point x="204" y="338" type="curve" smooth="yes"/>
      <point x="204" y="481"/>
      <point x="271" y="571"/>
      <point x="372" y="571" type="curve" smooth="yes"/>
      <point x="488" y="571"/>
      <point x="538" y="477"/>
      <point x="538" y="344" type="curve" smooth="yes"/>
      <point x="538" y="185"/>
      <point x="474" y="109"/>
    </contour>
    <contour>
      <point x="370" y="695" type="curve"/>
      <point x="169" y="693"/>
      <point x="51" y="548"/>
      <point x="51" y="337" type="curve" smooth="yes"/>
      <point x="51" y="141"/>
      <point x="155" y="-14"/>
      <point x="370" y="-14" type="curve" smooth="yes"/>
      <point x="573" y="-14"/>
      <point x="690" y="132"/>
      <point x="690" y="344" type="curve" smooth="yes"/>
      <point x="690" y="540"/>
      <point x="587" y="695"/>
    </contour>
    <contour>
      <point x="540" y="823" type="curve" smooth="yes"/>
      <point x="540" y="863"/>
      <point x="509" y="894"/>
      <point x="469" y="894" type="curve" smooth="yes"/>
      <point x="431" y="894"/>
      <point x="398" y="863"/>
      <point x="398" y="823" type="curve" smooth="yes"/>
      <point x="398" y="784"/>
      <point x="431" y="753"/>
      <point x="469" y="753" type="curve" smooth="yes"/>
      <point x="509" y="753"/>
      <point x="540" y="784"/>
    </contour>
    <contour>
      <point x="342" y="823" type="curve" smooth="yes"/>
      <point x="342" y="863"/>
      <point x="312" y="894"/>
      <point x="272" y="894" type="curve" smooth="yes"/>
      <point x="232" y="894"/>
      <point x="200" y="863"/>
      <point x="200" y="823" type="curve" smooth="yes"/>
      <point x="200" y="784"/>
      <point x="232" y="753"/>
      <point x="272" y="753" type="curve" smooth="yes"/>
      <point x="312" y="753"/>
      <point x="342" y="784"/>
    </contour>
  </outline>
</glyph>
<glyph name="multiply" format="1">
  <advance width="563"/>
  <unicode hex="00D7"/>
  <outline>
    <contour>
      <point x="20" y="46" type="curve"/>
      <point x="65" y="38"/>
      <point x="109" y="32"/>
      <point x="154" y="24" type="curve"/>
      <point x="268" y="164" type="line"/>
      <point x="377" y="29" type="line"/>
      <point x="525" y="29" type="line"/>
      <point x="473" y="94"/>
      <point x="401" y="181"/>
      <point x="349" y="250" type="curve"/>
      <point x="542" y="484" type="line"/>
      <point x="391" y="484" type="line"/>
      <point x="276" y="344" type="line"/>
      <point x="163" y="486" type="line"/>
      <point x="28" y="466" type="line"/>
      <point x="194" y="258" type="line"/>
      <point x="136" y="187"/>
      <point x="79" y="117"/>
    </contour>
  </outline>
</glyph>
<glyph name="Oslash" format="1">
  <advance width="742"/>
  <unicode hex="00D8"/>
  <outline>
    <contour>
      <point x="370" y="695" type="curve"/>
      <point x="169" y="693"/>
      <point x="51" y="548"/>
      <point x="51" y="337" type="curve" smooth="yes"/>
      <point x="51" y="141"/>
      <point x="155" y="-14"/>
      <point x="370" y="-14" type="curve" smooth="yes"/>
      <point x="573" y="-14"/>
      <point x="690" y="132"/>
      <point x="690" y="344" type="curve" smooth="yes"/>
      <point x="690" y="540"/>
      <point x="587" y="695"/>
    </contour>
    <contour>
      <point x="204" y="338" type="curve" smooth="yes"/>
      <point x="204" y="481"/>
      <point x="271" y="571"/>
      <point x="372" y="571" type="curve" smooth="yes"/>
      <point x="382" y="571"/>
      <point x="391" y="570"/>
      <point x="400" y="569" type="curve"/>
      <point x="239" y="180" type="line"/>
      <point x="216" y="219"/>
      <point x="204" y="274"/>
    </contour>
    <contour>
      <point x="369" y="109" type="curve" smooth="yes"/>
      <point x="363" y="109"/>
      <point x="353" y="110"/>
      <point x="347" y="111" type="curve"/>
      <point x="508" y="490" type="line"/>
      <point x="528" y="452"/>
      <point x="538" y="401"/>
      <point x="538" y="344" type="curve" smooth="yes"/>
      <point x="538" y="185"/>
      <point x="474" y="109"/>
    </contour>
  </outline>
</glyph>
<glyph name="Ugrave" format="1">
  <advance width="719"/>
  <unicode hex="00D9"/>
  <outline>
    <contour>
      <point x="219" y="680" type="line"/>
      <point x="72" y="680" type="line"/>
      <point x="72" y="251" type="line" smooth="yes"/>
      <point x="72" y="92"/>
      <point x="184" y="-11"/>
      <point x="358" y="-11" type="curve" smooth="yes"/>
      <point x="533" y="-11"/>
      <point x="645" y="94"/>
      <point x="645" y="251" type="curve" smooth="yes"/>
      <point x="645" y="680" type="line"/>
      <point x="498" y="680" type="line"/>
      <point x="498" y="260" type="line" smooth="yes"/>
      <point x="498" y="158"/>
      <point x="442" y="109"/>
      <point x="358" y="109" type="curve" smooth="yes"/>
      <point x="276" y="109"/>
      <point x="219" y="156"/>
      <point x="219" y="260" type="curve" smooth="yes"/>
    </contour>
    <contour>
      <point x="240" y="912" type="line"/>
      <point x="273" y="854"/>
      <point x="306" y="796"/>
      <point x="340" y="738" type="curve"/>
      <point x="451" y="738" type="line"/>
      <point x="430" y="796"/>
      <point x="409" y="854"/>
      <point x="387" y="912" type="curve"/>
    </contour>
  </outline>
</glyph>
<glyph name="Uacute" format="1">
  <advance width="719"/>
  <unicode hex="00DA"/>
  <outline>
    <contour>
      <point x="219" y="680" type="line"/>
      <point x="72" y="680" type="line"/>
      <point x="72" y="251" type="line" smooth="yes"/>
      <point x="72" y="92"/>
      <point x="184" y="-11"/>
      <point x="358" y="-11" type="curve" smooth="yes"/>
      <point x="533" y="-11"/>
      <point x="645" y="94"/>
      <point x="645" y="251" type="curve" smooth="yes"/>
      <point x="645" y="680" type="line"/>
      <point x="498" y="680" type="line"/>
      <point x="498" y="260" type="line" smooth="yes"/>
      <point x="498" y="158"/>
      <point x="442" y="109"/>
      <point x="358" y="109" type="curve" smooth="yes"/>
      <point x="276" y="109"/>
      <point x="219" y="156"/>
      <point x="219" y="260" type="curve" smooth="yes"/>
    </contour>
    <contour>
      <point x="327" y="912" type="line"/>
      <point x="306" y="854"/>
      <point x="285" y="796"/>
      <point x="263" y="738" type="curve"/>
      <point x="375" y="738" type="line"/>
      <point x="408" y="796"/>
      <point x="441" y="854"/>
      <point x="475" y="912" type="curve"/>
    </contour>
  </outline>
</glyph>
<glyph name="Ucircumflex" format="1">
  <advance width="719"/>
  <unicode hex="00DB"/>
  <outline>
    <contour>
      <point x="219" y="680" type="line"/>
      <point x="72" y="680" type="line"/>
      <point x="72" y="251" type="line" smooth="yes"/>
      <point x="72" y="92"/>
      <point x="184" y="-11"/>
      <point x="358" y="-11" type="curve" smooth="yes"/>
      <point x="533" y="-11"/>
      <point x="645" y="94"/>
      <point x="645" y="251" type="curve" smooth="yes"/>
      <point x="645" y="680" type="line"/>
      <point x="498" y="680" type="line"/>
      <point x="498" y="260" type="line" smooth="yes"/>
      <point x="498" y="158"/>
      <point x="442" y="109"/>
      <point x="358" y="109" type="curve" smooth="yes"/>
      <point x="276" y="109"/>
      <point x="219" y="156"/>
      <point x="219" y="260" type="curve" smooth="yes"/>
    </contour>
    <contour>
      <point x="297" y="739" type="line"/>
      <point x="359" y="803" type="line"/>
      <point x="421" y="739" type="line"/>
      <point x="557" y="739" type="line"/>
      <point x="398" y="914" type="line"/>
      <point x="315" y="914" type="line"/>
      <point x="156" y="739" type="line"/>
    </contour>
  </outline>
</glyph>
<glyph name="Udieresis" format="1">
  <advance width="719"/>
  <unicode hex="00DC"/>
  <outline>
    <contour>
      <point x="219" y="680" type="line"/>
      <point x="72" y="680" type="line"/>
      <point x="72" y="251" type="line" smooth="yes"/>
      <point x="72" y="92"/>
      <point x="184" y="-11"/>
      <point x="358" y="-11" type="curve" smooth="yes"/>
      <point x="533" y="-11"/>
      <point x="645" y="94"/>
      <point x="645" y="251" type="curve" smooth="yes"/>
      <point x="645" y="680" type="line"/>
      <point x="498" y="680" type="line"/>
      <point x="498" y="260" type="line" smooth="yes"/>
      <point x="498" y="158"/>
      <point x="442" y="109"/>
      <point x="358" y="109" type="curve" smooth="yes"/>
      <point x="276" y="109"/>
      <point x="219" y="156"/>
      <point x="219" y="260" type="curve" smooth="yes"/>
    </contour>
    <contour>
      <point x="528" y="823" type="curve" smooth="yes"/>
      <point x="528" y="862"/>
      <point x="498" y="894"/>
      <point x="457" y="894" type="curve" smooth="yes"/>
      <point x="419" y="894"/>
      <point x="386" y="862"/>
      <point x="386" y="823" type="curve" smooth="yes"/>
      <point x="386" y="783"/>
      <point x="419" y="753"/>
      <point x="457" y="753" type="curve" smooth="yes"/>
      <point x="498" y="753"/>
      <point x="528" y="783"/>
    </contour>
    <contour>
      <point x="330" y="823" type="curve" smooth="yes"/>
      <point x="330" y="862"/>
      <point x="300" y="894"/>
      <point x="260" y="894" type="curve" smooth="yes"/>
      <point x="221" y="894"/>
      <point x="189" y="862"/>
      <point x="189" y="823" type="curve" smooth="yes"/>
      <point x="189" y="783"/>
      <point x="221" y="753"/>
      <point x="260" y="753" type="curve" smooth="yes"/>
      <point x="300" y="753"/>
      <point x="330" y="783"/>
    </contour>
  </outline>
</glyph>
<glyph name="Yacute" format="1">
  <advance width="626"/>
  <unicode hex="00DD"/>
  <outline>
    <contour>
      <point x="236" y="0" type="line"/>
      <point x="383" y="0" type="line"/>
      <point x="383" y="262" type="line"/>
      <point x="619" y="680" type="line"/>
      <point x="466" y="680" type="line"/>
      <point x="309" y="409" type="line"/>
      <point x="159" y="680" type="line"/>
      <point x="7" y="663" type="line"/>
      <point x="236" y="266" type="line"/>
    </contour>
    <contour>
      <point x="277" y="913" type="line"/>
      <point x="213" y="739" type="line"/>
      <point x="324" y="739" type="line"/>
      <point x="425" y="913" type="line"/>
    </contour>
  </outline>
</glyph>
<glyph name="Thorn" format="1">
  <advance width="626"/>
  <unicode hex="00DE"/>
  <outline>
    <contour>
      <point x="225" y="680" type="line"/>
      <point x="79" y="680" type="line"/>
      <point x="79" y="0" type="line"/>
      <point x="225" y="0" type="line"/>
      <point x="225" y="115" type="line"/>
      <point x="307" y="115" type="line" smooth="yes"/>
      <point x="451" y="115"/>
      <point x="589" y="186"/>
      <point x="589" y="345" type="curve" smooth="yes"/>
      <point x="589" y="504"/>
      <point x="466" y="571"/>
      <point x="316" y="571" type="curve" smooth="yes"/>
      <point x="225" y="571" type="line"/>
    </contour>
    <contour>
      <point x="311" y="453" type="line" smooth="yes"/>
      <point x="389" y="453"/>
      <point x="435" y="418"/>
      <point x="435" y="340" type="curve"/>
      <point x="431" y="270"/>
      <point x="384" y="234"/>
      <point x="313" y="234" type="curve" smooth="yes"/>
      <point x="225" y="234" type="line"/>
      <point x="225" y="453" type="line"/>
    </contour>
  </outline>
</glyph>
<glyph name="germandbls" format="1">
  <advance width="645"/>
  <unicode hex="00DF"/>
  <outline>
    <contour>
      <point x="310" y="702" type="curve" smooth="yes"/>
      <point x="157" y="702"/>
      <point x="66" y="610"/>
      <point x="66" y="473" type="curve" smooth="yes"/>
      <point x="66" y="0" type="line"/>
      <point x="213" y="0" type="line"/>
      <point x="213" y="466" type="line" smooth="yes"/>
      <point x="213" y="536"/>
      <point x="260" y="576"/>
      <point x="316" y="576" type="curve" smooth="yes"/>
      <point x="372" y="576"/>
      <point x="411" y="543"/>
      <point x="411" y="494" type="curve" smooth="yes"/>
      <point x="411" y="449"/>
      <point x="372" y="407"/>
      <point x="308" y="407" type="curve" smooth="yes"/>
      <point x="276" y="407" type="line"/>
      <point x="276" y="295" type="line"/>
      <point x="365" y="295" type="line" smooth="yes"/>
      <point x="414" y="295"/>
      <point x="457" y="258"/>
      <point x="457" y="204" type="curve" smooth="yes"/>
      <point x="457" y="154"/>
      <point x="411" y="121"/>
      <point x="356" y="121" type="curve" smooth="yes"/>
      <point x="270" y="121" type="line"/>
      <point x="270" y="0" type="line"/>
      <point x="368" y="0" type="line" smooth="yes"/>
      <point x="514" y="0"/>
      <point x="610" y="76"/>
      <point x="610" y="197" type="curve" smooth="yes"/>
      <point x="610" y="280"/>
      <point x="550" y="351"/>
      <point x="489" y="369" type="curve"/>
      <point x="533" y="395"/>
      <point x="563" y="456"/>
      <point x="563" y="506" type="curve" smooth="yes"/>
      <point x="563" y="635"/>
      <point x="450" y="702"/>
    </contour>
  </outline>
</glyph>
<glyph name="atilde" format="1">
  <advance width="514"/>
  <unicode hex="00E3"/>
  <outline>
    <contour>
      <point x="251" y="499" type="curve" smooth="yes"/>
      <point x="197" y="499"/>
      <point x="106" y="479"/>
      <point x="64" y="455" type="curve"/>
      <point x="103" y="339" type="line"/>
      <point x="140" y="356"/>
      <point x="197" y="370"/>
      <point x="238" y="370" type="curve" smooth="yes"/>
      <point x="281" y="370"/>
      <point x="308" y="345"/>
      <point x="311" y="303" type="curve"/>
      <point x="228" y="303" type="line" smooth="yes"/>
      <point x="117" y="303"/>
      <point x="42" y="251"/>
      <point x="42" y="149" type="curve" smooth="yes"/>
      <point x="42" y="53"/>
      <point x="99" y="-12"/>
      <point x="219" y="-12" type="curve" smooth="yes"/>
      <point x="270" y="-12"/>
      <point x="321" y="11"/>
      <point x="355" y="40" type="curve"/>
      <point x="387" y="0" type="line"/>
      <point x="459" y="0" type="line"/>
      <point x="459" y="313" type="line" smooth="yes"/>
      <point x="459" y="423"/>
      <point x="373" y="499"/>
    </contour>
    <contour>
      <point x="182" y="600" type="line"/>
      <point x="182" y="613"/>
      <point x="194" y="630"/>
      <point x="208" y="630" type="curve" smooth="yes"/>
      <point x="242" y="630"/>
      <point x="265" y="595"/>
      <point x="312" y="595" type="curve" smooth="yes"/>
      <point x="369" y="595"/>
      <point x="425" y="628"/>
      <point x="425" y="729" type="curve"/>
      <point x="330" y="729" type="line"/>
      <point x="330" y="714"/>
      <point x="318" y="699"/>
      <point x="304" y="699" type="curve" smooth="yes"/>
      <point x="270" y="699"/>
      <point x="243" y="733"/>
      <point x="197" y="733" type="curve" smooth="yes"/>
      <point x="139" y="733"/>
      <point x="82" y="700"/>
      <point x="82" y="600" type="curve"/>
    </contour>
    <contour>
      <point x="219" y="106" type="curve" smooth="yes"/>
      <point x="189" y="106"/>
      <point x="167" y="127"/>
      <point x="167" y="151" type="curve" smooth="yes"/>
      <point x="167" y="182"/>
      <point x="189" y="208"/>
      <point x="228" y="208" type="curve" smooth="yes"/>
      <point x="312" y="208" type="line"/>
      <point x="312" y="147" type="line"/>
      <point x="282" y="120"/>
      <point x="250" y="106"/>
    </contour>
  </outline>
</glyph>
<glyph name="aring" format="1">
  <advance width="514"/>
  <unicode hex="00E5"/>
  <outline>
    <contour>
      <point x="251" y="499" type="curve" smooth="yes"/>
      <point x="197" y="499"/>
      <point x="106" y="479"/>
      <point x="64" y="455" type="curve"/>
      <point x="103" y="339" type="line"/>
      <point x="140" y="356"/>
      <point x="197" y="370"/>
      <point x="238" y="370" type="curve" smooth="yes"/>
      <point x="281" y="370"/>
      <point x="308" y="345"/>
      <point x="311" y="303" type="curve"/>
      <point x="228" y="303" type="line" smooth="yes"/>
      <point x="117" y="303"/>
      <point x="42" y="251"/>
      <point x="42" y="149" type="curve" smooth="yes"/>
      <point x="42" y="53"/>
      <point x="99" y="-12"/>
      <point x="219" y="-12" type="curve" smooth="yes"/>
      <point x="270" y="-12"/>
      <point x="321" y="11"/>
      <point x="355" y="40" type="curve"/>
      <point x="387" y="0" type="line"/>
      <point x="459" y="0" type="line"/>
      <point x="459" y="313" type="line" smooth="yes"/>
      <point x="459" y="423"/>
      <point x="373" y="499"/>
    </contour>
    <contour>
      <point x="371" y="698" type="curve" smooth="yes"/>
      <point x="371" y="758"/>
      <point x="318" y="804"/>
      <point x="258" y="804" type="curve" smooth="yes"/>
      <point x="197" y="804"/>
      <point x="145" y="758"/>
      <point x="145" y="698" type="curve" smooth="yes"/>
      <point x="145" y="636"/>
      <point x="197" y="594"/>
      <point x="258" y="594" type="curve" smooth="yes"/>
      <point x="318" y="594"/>
      <point x="371" y="636"/>
    </contour>
    <contour>
      <point x="219" y="106" type="curve" smooth="yes"/>
      <point x="189" y="106"/>
      <point x="167" y="127"/>
      <point x="167" y="151" type="curve" smooth="yes"/>
      <point x="167" y="182"/>
      <point x="189" y="208"/>
      <point x="228" y="208" type="curve" smooth="yes"/>
      <point x="312" y="208" type="line"/>
      <point x="312" y="147" type="line"/>
      <point x="282" y="120"/>
      <point x="250" y="106"/>
    </contour>
    <contour>
      <point x="294" y="698" type="curve" smooth="yes"/>
      <point x="294" y="678"/>
      <point x="279" y="661"/>
      <point x="258" y="661" type="curve" smooth="yes"/>
      <point x="239" y="661"/>
      <point x="222" y="678"/>
      <point x="222" y="698" type="curve" smooth="yes"/>
      <point x="222" y="718"/>
      <point x="239" y="733"/>
      <point x="258" y="733" type="curve" smooth="yes"/>
      <point x="279" y="733"/>
      <point x="294" y="718"/>
    </contour>
  </outline>
</glyph>
<glyph name="ae" format="1">
  <advance width="822"/>
  <unicode hex="00E6"/>
  <outline>
    <contour>
      <point x="42" y="145" type="curve" smooth="yes"/>
      <point x="42" y="50"/>
      <point x="99" y="-11"/>
      <point x="219" y="-11" type="curve" smooth="yes"/>
      <point x="285" y="-11"/>
      <point x="347" y="25"/>
      <point x="379" y="62" type="curve"/>
      <point x="426" y="14"/>
      <point x="496" y="-11"/>
      <point x="585" y="-11" type="curve" smooth="yes"/>
      <point x="626" y="-11"/>
      <point x="709" y="1"/>
      <point x="759" y="38" type="curve"/>
      <point x="744" y="72"/>
      <point x="730" y="107"/>
      <point x="716" y="141" type="curve"/>
      <point x="672" y="120"/>
      <point x="638" y="110"/>
      <point x="593" y="110" type="curve" smooth="yes"/>
      <point x="525" y="110"/>
      <point x="483" y="142"/>
      <point x="470" y="198" type="curve"/>
      <point x="787" y="198" type="line"/>
      <point x="787" y="245" type="line" smooth="yes"/>
      <point x="787" y="383"/>
      <point x="716" y="499"/>
      <point x="561" y="499" type="curve" smooth="yes"/>
      <point x="497" y="499"/>
      <point x="441" y="479"/>
      <point x="400" y="445" type="curve"/>
      <point x="364" y="477"/>
      <point x="309" y="499"/>
      <point x="251" y="499" type="curve" smooth="yes"/>
      <point x="196" y="499"/>
      <point x="106" y="479"/>
      <point x="64" y="454" type="curve"/>
      <point x="103" y="339" type="line"/>
      <point x="139" y="355"/>
      <point x="196" y="370"/>
      <point x="237" y="370" type="curve" smooth="yes"/>
      <point x="290" y="370"/>
      <point x="308" y="333"/>
      <point x="311" y="296" type="curve"/>
      <point x="228" y="296" type="line" smooth="yes"/>
      <point x="117" y="296"/>
      <point x="42" y="247"/>
    </contour>
    <contour>
      <point x="219" y="105" type="curve" smooth="yes"/>
      <point x="188" y="105"/>
      <point x="166" y="124"/>
      <point x="166" y="148" type="curve" smooth="yes"/>
      <point x="166" y="178"/>
      <point x="188" y="202"/>
      <point x="227" y="202" type="curve" smooth="yes"/>
      <point x="314" y="202" type="line"/>
      <point x="317" y="186"/>
      <point x="319" y="171"/>
      <point x="323" y="157" type="curve"/>
      <point x="294" y="125"/>
      <point x="258" y="105"/>
    </contour>
    <contour>
      <point x="558" y="376" type="curve" smooth="yes"/>
      <point x="608" y="376"/>
      <point x="637" y="343"/>
      <point x="646" y="292" type="curve"/>
      <point x="468" y="292" type="line"/>
      <point x="479" y="347"/>
      <point x="513" y="376"/>
    </contour>
  </outline>
</glyph>
<glyph name="ccedilla" format="1">
  <advance width="486"/>
  <unicode hex="00E7"/>
  <outline>
    <contour>
      <point x="300" y="376" type="curve" smooth="yes"/>
      <point x="342" y="376"/>
      <point x="370" y="366"/>
      <point x="415" y="345" type="curve"/>
      <point x="456" y="449" type="line"/>
      <point x="406" y="486"/>
      <point x="334" y="499"/>
      <point x="293" y="499" type="curve" smooth="yes"/>
      <point x="135" y="499"/>
      <point x="38" y="400"/>
      <point x="38" y="242" type="curve" smooth="yes"/>
      <point x="38" y="104"/>
      <point x="111" y="13"/>
      <point x="236" y="-6" type="curve"/>
      <point x="207" y="-81" type="line"/>
      <point x="260" y="-88"/>
      <point x="292" y="-104"/>
      <point x="292" y="-124" type="curve" smooth="yes"/>
      <point x="292" y="-137"/>
      <point x="277" y="-141"/>
      <point x="261" y="-141" type="curve" smooth="yes"/>
      <point x="243" y="-141"/>
      <point x="214" y="-131"/>
      <point x="198" y="-123" type="curve"/>
      <point x="165" y="-202" type="line"/>
      <point x="190" y="-222"/>
      <point x="237" y="-235"/>
      <point x="268" y="-235" type="curve" smooth="yes"/>
      <point x="336" y="-235"/>
      <point x="398" y="-199"/>
      <point x="398" y="-126" type="curve" smooth="yes"/>
      <point x="398" y="-91"/>
      <point x="372" y="-48"/>
      <point x="330" y="-32" type="curve"/>
      <point x="339" y="-8" type="line"/>
      <point x="377" y="-1"/>
      <point x="423" y="12"/>
      <point x="456" y="38" type="curve"/>
      <point x="415" y="142" type="line"/>
      <point x="370" y="121"/>
      <point x="341" y="112"/>
      <point x="300" y="112" type="curve" smooth="yes"/>
      <point x="234" y="112"/>
      <point x="190" y="163"/>
      <point x="190" y="242" type="curve" smooth="yes"/>
      <point x="190" y="321"/>
      <point x="234" y="376"/>
    </contour>
  </outline>
</glyph>
<glyph name="edieresis" format="1">
  <advance width="548"/>
  <unicode hex="00EB"/>
  <outline>
    <contour>
      <point x="288" y="499" type="curve" smooth="yes"/>
      <point x="138" y="499"/>
      <point x="38" y="400"/>
      <point x="38" y="242" type="curve" smooth="yes"/>
      <point x="38" y="80"/>
      <point x="145" y="-12"/>
      <point x="310" y="-12" type="curve" smooth="yes"/>
      <point x="352" y="-12"/>
      <point x="434" y="1"/>
      <point x="484" y="38" type="curve"/>
      <point x="441" y="142" type="line"/>
      <point x="397" y="121"/>
      <point x="362" y="111"/>
      <point x="318" y="111" type="curve" smooth="yes"/>
      <point x="252" y="111"/>
      <point x="209" y="143"/>
      <point x="196" y="198" type="curve"/>
      <point x="512" y="198" type="line"/>
      <point x="512" y="246" type="line" smooth="yes"/>
      <point x="512" y="384"/>
      <point x="441" y="499"/>
    </contour>
    <contour>
      <point x="258" y="673" type="curve" smooth="yes"/>
      <point x="258" y="713"/>
      <point x="227" y="744"/>
      <point x="187" y="744" type="curve" smooth="yes"/>
      <point x="149" y="744"/>
      <point x="115" y="713"/>
      <point x="115" y="673" type="curve" smooth="yes"/>
      <point x="115" y="634"/>
      <point x="149" y="603"/>
      <point x="187" y="603" type="curve" smooth="yes"/>
      <point x="227" y="603"/>
      <point x="258" y="634"/>
    </contour>
    <contour>
      <point x="456" y="673" type="curve" smooth="yes"/>
      <point x="456" y="713"/>
      <point x="425" y="744"/>
      <point x="385" y="744" type="curve" smooth="yes"/>
      <point x="346" y="744"/>
      <point x="314" y="713"/>
      <point x="314" y="673" type="curve" smooth="yes"/>
      <point x="314" y="634"/>
      <point x="346" y="603"/>
      <point x="385" y="603" type="curve" smooth="yes"/>
      <point x="425" y="603"/>
      <point x="456" y="634"/>
    </contour>
    <contour>
      <point x="284" y="377" type="curve" smooth="yes"/>
      <point x="334" y="377"/>
      <point x="362" y="344"/>
      <point x="372" y="293" type="curve"/>
      <point x="195" y="293" type="line"/>
      <point x="205" y="347"/>
      <point x="238" y="377"/>
    </contour>
  </outline>
</glyph>
<glyph name="igrave" format="1">
  <advance width="271"/>
  <unicode hex="00EC"/>
  <outline>
    <contour>
      <point x="208" y="485" type="line"/>
      <point x="61" y="485" type="line"/>
      <point x="61" y="0" type="line"/>
      <point x="208" y="0" type="line"/>
    </contour>
    <contour>
      <point x="-1" y="764" type="line"/>
      <point x="99" y="588" type="line"/>
      <point x="211" y="588" type="line"/>
      <point x="148" y="764" type="line"/>
    </contour>
  </outline>
</glyph>
<glyph name="iacute" format="1">
  <advance width="271"/>
  <unicode hex="00ED"/>
  <outline>
    <contour>
      <point x="208" y="485" type="line"/>
      <point x="61" y="485" type="line"/>
      <point x="61" y="0" type="line"/>
      <point x="208" y="0" type="line"/>
    </contour>
    <contour>
      <point x="123" y="764" type="line"/>
      <point x="58" y="588" type="line"/>
      <point x="171" y="588" type="line"/>
      <point x="273" y="764" type="line"/>
    </contour>
  </outline>
</glyph>
<glyph name="icircumflex" format="1">
  <advance width="271"/>
  <unicode hex="00EE"/>
  <outline>
    <contour>
      <point x="208" y="485" type="line"/>
      <point x="61" y="485" type="line"/>
      <point x="61" y="0" type="line"/>
      <point x="208" y="0" type="line"/>
    </contour>
    <contour>
      <point x="76" y="588" type="line"/>
      <point x="96" y="610"/>
      <point x="117" y="631"/>
      <point x="138" y="652" type="curve"/>
      <point x="158" y="631"/>
      <point x="179" y="610"/>
      <point x="199" y="588" type="curve"/>
      <point x="336" y="588" type="line"/>
      <point x="176" y="764" type="line"/>
      <point x="94" y="764" type="line"/>
      <point x="-64" y="588" type="line"/>
    </contour>
  </outline>
</glyph>
<glyph name="idieresis" format="1">
  <advance width="271"/>
  <unicode hex="00EF"/>
  <outline>
    <contour>
      <point x="208" y="485" type="line"/>
      <point x="61" y="485" type="line"/>
      <point x="61" y="0" type="line"/>
      <point x="208" y="0" type="line"/>
    </contour>
    <contour>
      <point x="305" y="673" type="curve" smooth="yes"/>
      <point x="305" y="712"/>
      <point x="274" y="744"/>
      <point x="234" y="744" type="curve" smooth="yes"/>
      <point x="195" y="744"/>
      <point x="163" y="712"/>
      <point x="163" y="673" type="curve" smooth="yes"/>
      <point x="163" y="633"/>
      <point x="195" y="603"/>
      <point x="234" y="603" type="curve" smooth="yes"/>
      <point x="274" y="603"/>
      <point x="305" y="633"/>
    </contour>
    <contour>
      <point x="107" y="673" type="curve" smooth="yes"/>
      <point x="107" y="712"/>
      <point x="76" y="744"/>
      <point x="36" y="744" type="curve" smooth="yes"/>
      <point x="-2" y="744"/>
      <point x="-33" y="712"/>
      <point x="-33" y="673" type="curve" smooth="yes"/>
      <point x="-33" y="633"/>
      <point x="-2" y="603"/>
      <point x="36" y="603" type="curve" smooth="yes"/>
      <point x="76" y="603"/>
      <point x="107" y="633"/>
    </contour>
  </outline>
</glyph>
<glyph name="eth" format="1">
  <advance width="578"/>
  <unicode hex="00F0"/>
  <outline>
    <contour>
      <point x="420" y="611" type="line"/>
      <point x="358" y="702" type="line"/>
      <point x="292" y="650" type="line"/>
      <point x="251" y="672"/>
      <point x="210" y="690"/>
      <point x="168" y="698" type="curve"/>
      <point x="101" y="598" type="line"/>
      <point x="126" y="592"/>
      <point x="155" y="582"/>
      <point x="183" y="567" type="curve"/>
      <point x="117" y="516" type="line"/>
      <point x="181" y="426" type="line"/>
      <point x="278" y="501" type="line"/>
      <point x="316" y="466"/>
      <point x="348" y="422"/>
      <point x="366" y="372" type="curve"/>
      <point x="333" y="394"/>
      <point x="294" y="409"/>
      <point x="259" y="409" type="curve" smooth="yes"/>
      <point x="125" y="409"/>
      <point x="31" y="319"/>
      <point x="31" y="207" type="curve" smooth="yes"/>
      <point x="31" y="92"/>
      <point x="122" y="-12"/>
      <point x="259" y="-12" type="curve" smooth="yes"/>
      <point x="413" y="-12"/>
      <point x="529" y="80"/>
      <point x="529" y="265" type="curve" smooth="yes"/>
      <point x="529" y="388"/>
      <point x="469" y="500"/>
      <point x="383" y="582" type="curve"/>
    </contour>
    <contour>
      <point x="263" y="107" type="curve" smooth="yes"/>
      <point x="205" y="107"/>
      <point x="171" y="155"/>
      <point x="171" y="202" type="curve" smooth="yes"/>
      <point x="171" y="255"/>
      <point x="205" y="305"/>
      <point x="268" y="305" type="curve" smooth="yes"/>
      <point x="324" y="305"/>
      <point x="368" y="267"/>
      <point x="387" y="231" type="curve"/>
      <point x="375" y="155"/>
      <point x="333" y="107"/>
    </contour>
  </outline>
</glyph>
<glyph name="ntilde" format="1">
  <advance width="595"/>
  <unicode hex="00F1"/>
  <outline>
    <contour>
      <point x="354" y="503" type="curve" smooth="yes"/>
      <point x="292" y="503"/>
      <point x="219" y="473"/>
      <point x="176" y="436" type="curve"/>
      <point x="137" y="485" type="line"/>
      <point x="61" y="485" type="line"/>
      <point x="61" y="0" type="line"/>
      <point x="208" y="0" type="line"/>
      <point x="208" y="339" type="line"/>
      <point x="240" y="360"/>
      <point x="283" y="380"/>
      <point x="315" y="380" type="curve" smooth="yes"/>
      <point x="363" y="380"/>
      <point x="392" y="351"/>
      <point x="392" y="297" type="curve" smooth="yes"/>
      <point x="392" y="0" type="line"/>
      <point x="539" y="0" type="line"/>
      <point x="539" y="303" type="line" smooth="yes"/>
      <point x="539" y="417"/>
      <point x="488" y="503"/>
    </contour>
    <contour>
      <point x="230" y="600" type="line"/>
      <point x="230" y="613"/>
      <point x="242" y="630"/>
      <point x="256" y="630" type="curve" smooth="yes"/>
      <point x="291" y="630"/>
      <point x="313" y="595"/>
      <point x="360" y="595" type="curve" smooth="yes"/>
      <point x="417" y="595"/>
      <point x="473" y="628"/>
      <point x="473" y="729" type="curve"/>
      <point x="379" y="729" type="line"/>
      <point x="379" y="714"/>
      <point x="366" y="699"/>
      <point x="353" y="699" type="curve" smooth="yes"/>
      <point x="318" y="699"/>
      <point x="290" y="733"/>
      <point x="245" y="733" type="curve" smooth="yes"/>
      <point x="187" y="733"/>
      <point x="130" y="700"/>
      <point x="130" y="600" type="curve"/>
    </contour>
  </outline>
</glyph>
<glyph name="ograve" format="1">
  <advance width="597"/>
  <unicode hex="00F2"/>
  <outline>
    <contour>
      <point x="298" y="499" type="curve" smooth="yes"/>
      <point x="142" y="499"/>
      <point x="38" y="403"/>
      <point x="38" y="244" type="curve" smooth="yes"/>
      <point x="38" y="82"/>
      <point x="136" y="-12"/>
      <point x="291" y="-12" type="curve" smooth="yes"/>
      <point x="449" y="-12"/>
      <point x="559" y="81"/>
      <point x="559" y="239" type="curve" smooth="yes"/>
      <point x="559" y="401"/>
      <point x="459" y="499"/>
    </contour>
    <contour>
      <point x="293" y="112" type="curve" smooth="yes"/>
      <point x="224" y="112"/>
      <point x="190" y="159"/>
      <point x="190" y="245" type="curve" smooth="yes"/>
      <point x="190" y="332"/>
      <point x="231" y="376"/>
      <point x="300" y="376" type="curve" smooth="yes"/>
      <point x="369" y="376"/>
      <point x="407" y="322"/>
      <point x="407" y="239" type="curve" smooth="yes"/>
      <point x="407" y="151"/>
      <point x="362" y="112"/>
    </contour>
    <contour>
      <point x="173" y="764" type="line"/>
      <point x="274" y="589" type="line"/>
      <point x="387" y="589" type="line"/>
      <point x="323" y="764" type="line"/>
    </contour>
  </outline>
</glyph>
<glyph name="otilde" format="1">
  <advance width="597"/>
  <unicode hex="00F5"/>
  <outline>
    <contour>
      <point x="298" y="499" type="curve" smooth="yes"/>
      <point x="142" y="499"/>
      <point x="38" y="403"/>
      <point x="38" y="244" type="curve" smooth="yes"/>
      <point x="38" y="82"/>
      <point x="136" y="-12"/>
      <point x="291" y="-12" type="curve" smooth="yes"/>
      <point x="449" y="-12"/>
      <point x="559" y="81"/>
      <point x="559" y="239" type="curve" smooth="yes"/>
      <point x="559" y="401"/>
      <point x="459" y="499"/>
    </contour>
    <contour>
      <point x="293" y="112" type="curve" smooth="yes"/>
      <point x="224" y="112"/>
      <point x="190" y="159"/>
      <point x="190" y="245" type="curve" smooth="yes"/>
      <point x="190" y="332"/>
      <point x="231" y="376"/>
      <point x="300" y="376" type="curve" smooth="yes"/>
      <point x="369" y="376"/>
      <point x="407" y="322"/>
      <point x="407" y="239" type="curve" smooth="yes"/>
      <point x="407" y="151"/>
      <point x="362" y="112"/>
    </contour>
    <contour>
      <point x="223" y="600" type="line"/>
      <point x="223" y="613"/>
      <point x="234" y="630"/>
      <point x="248" y="630" type="curve" smooth="yes"/>
      <point x="282" y="630"/>
      <point x="306" y="595"/>
      <point x="352" y="595" type="curve" smooth="yes"/>
      <point x="410" y="595"/>
      <point x="466" y="628"/>
      <point x="466" y="729" type="curve"/>
      <point x="370" y="729" type="line"/>
      <point x="370" y="714"/>
      <point x="359" y="699"/>
      <point x="344" y="699" type="curve" smooth="yes"/>
      <point x="311" y="699"/>
      <point x="283" y="733"/>
      <point x="237" y="733" type="curve" smooth="yes"/>
      <point x="180" y="733"/>
      <point x="123" y="700"/>
      <point x="123" y="600" type="curve"/>
    </contour>
  </outline>
</glyph>
<glyph name="odieresis" format="1">
  <advance width="597"/>
  <unicode hex="00F6"/>
  <outline>
    <contour>
      <point x="298" y="499" type="curve" smooth="yes"/>
      <point x="142" y="499"/>
      <point x="38" y="403"/>
      <point x="38" y="244" type="curve" smooth="yes"/>
      <point x="38" y="82"/>
      <point x="136" y="-12"/>
      <point x="291" y="-12" type="curve" smooth="yes"/>
      <point x="449" y="-12"/>
      <point x="559" y="81"/>
      <point x="559" y="239" type="curve" smooth="yes"/>
      <point x="559" y="401"/>
      <point x="459" y="499"/>
    </contour>
    <contour>
      <point x="293" y="112" type="curve" smooth="yes"/>
      <point x="224" y="112"/>
      <point x="190" y="159"/>
      <point x="190" y="245" type="curve" smooth="yes"/>
      <point x="190" y="332"/>
      <point x="231" y="376"/>
      <point x="300" y="376" type="curve" smooth="yes"/>
      <point x="369" y="376"/>
      <point x="407" y="322"/>
      <point x="407" y="239" type="curve" smooth="yes"/>
      <point x="407" y="151"/>
      <point x="362" y="112"/>
    </contour>
    <contour>
      <point x="466" y="673" type="curve" smooth="yes"/>
      <point x="466" y="713"/>
      <point x="436" y="744"/>
      <point x="395" y="744" type="curve" smooth="yes"/>
      <point x="357" y="744"/>
      <point x="324" y="713"/>
      <point x="324" y="673" type="curve" smooth="yes"/>
      <point x="324" y="634"/>
      <point x="357" y="603"/>
      <point x="395" y="603" type="curve" smooth="yes"/>
      <point x="436" y="603"/>
      <point x="466" y="634"/>
    </contour>
    <contour>
      <point x="268" y="673" type="curve" smooth="yes"/>
      <point x="268" y="713"/>
      <point x="237" y="744"/>
      <point x="197" y="744" type="curve" smooth="yes"/>
      <point x="159" y="744"/>
      <point x="127" y="713"/>
      <point x="127" y="673" type="curve" smooth="yes"/>
      <point x="127" y="634"/>
      <point x="159" y="603"/>
      <point x="197" y="603" type="curve" smooth="yes"/>
      <point x="237" y="603"/>
      <point x="268" y="634"/>
    </contour>
  </outline>
</glyph>
<glyph name="divide" format="1">
  <advance width="485"/>
  <unicode hex="00F7"/>
  <outline>
    <contour>
      <point x="324" y="98" type="curve" smooth="yes"/>
      <point x="324" y="144"/>
      <point x="287" y="180"/>
      <point x="241" y="180" type="curve" smooth="yes"/>
      <point x="195" y="180"/>
      <point x="159" y="144"/>
      <point x="159" y="98" type="curve" smooth="yes"/>
      <point x="159" y="52"/>
      <point x="195" y="16"/>
      <point x="241" y="16" type="curve" smooth="yes"/>
      <point x="287" y="16"/>
      <point x="324" y="52"/>
    </contour>
    <contour>
      <point x="324" y="444" type="curve" smooth="yes"/>
      <point x="324" y="490"/>
      <point x="287" y="526"/>
      <point x="241" y="526" type="curve" smooth="yes"/>
      <point x="195" y="526"/>
      <point x="159" y="490"/>
      <point x="159" y="444" type="curve" smooth="yes"/>
      <point x="159" y="399"/>
      <point x="195" y="363"/>
      <point x="241" y="363" type="curve" smooth="yes"/>
      <point x="287" y="363"/>
      <point x="324" y="399"/>
    </contour>
    <contour>
      <point x="467" y="218" type="line"/>
      <point x="457" y="330" type="line"/>
      <point x="17" y="330" type="line"/>
      <point x="27" y="218" type="line"/>
    </contour>
  </outline>
</glyph>
<glyph name="oslash" format="1">
  <advance width="597"/>
  <unicode hex="00F8"/>
  <outline>
    <contour>
      <point x="38" y="244" type="curve" smooth="yes"/>
      <point x="38" y="81"/>
      <point x="135" y="-11"/>
      <point x="290" y="-11" type="curve" smooth="yes"/>
      <point x="448" y="-11"/>
      <point x="558" y="81"/>
      <point x="558" y="239" type="curve" smooth="yes"/>
      <point x="558" y="401"/>
      <point x="459" y="499"/>
      <point x="297" y="499" type="curve" smooth="yes"/>
      <point x="141" y="499"/>
      <point x="38" y="402"/>
    </contour>
    <contour>
      <point x="409" y="239" type="curve" smooth="yes"/>
      <point x="409" y="148"/>
      <point x="358" y="109"/>
      <point x="287" y="109" type="curve"/>
      <point x="324" y="174"/>
      <point x="361" y="237"/>
      <point x="399" y="302" type="curve"/>
      <point x="405" y="284"/>
      <point x="409" y="262"/>
    </contour>
    <contour>
      <point x="300" y="378" type="curve"/>
      <point x="306" y="378" type="line"/>
      <point x="195" y="182" type="line"/>
      <point x="189" y="200"/>
      <point x="187" y="221"/>
      <point x="187" y="245" type="curve" smooth="yes"/>
      <point x="187" y="331"/>
      <point x="230" y="378"/>
    </contour>
  </outline>
</glyph>
<glyph name="udieresis" format="1">
  <advance width="588"/>
  <unicode hex="00FC"/>
  <outline>
    <contour>
      <point x="238" y="-19" type="curve" smooth="yes"/>
      <point x="300" y="-19"/>
      <point x="370" y="10"/>
      <point x="413" y="46" type="curve"/>
      <point x="450" y="0" type="line"/>
      <point x="526" y="0" type="line"/>
      <point x="526" y="485" type="line"/>
      <point x="379" y="485" type="line"/>
      <point x="379" y="142" type="line"/>
      <point x="348" y="122"/>
      <point x="309" y="104"/>
      <point x="278" y="104" type="curve" smooth="yes"/>
      <point x="230" y="104"/>
      <point x="203" y="134"/>
      <point x="203" y="187" type="curve" smooth="yes"/>
      <point x="203" y="485" type="line"/>
      <point x="55" y="485" type="line"/>
      <point x="55" y="181" type="line" smooth="yes"/>
      <point x="55" y="69"/>
      <point x="104" y="-19"/>
    </contour>
    <contour>
      <point x="265" y="673" type="curve" smooth="yes"/>
      <point x="265" y="713"/>
      <point x="235" y="744"/>
      <point x="195" y="744" type="curve" smooth="yes"/>
      <point x="156" y="744"/>
      <point x="123" y="713"/>
      <point x="123" y="673" type="curve" smooth="yes"/>
      <point x="123" y="634"/>
      <point x="156" y="603"/>
      <point x="195" y="603" type="curve" smooth="yes"/>
      <point x="235" y="603"/>
      <point x="265" y="634"/>
    </contour>
    <contour>
      <point x="463" y="673" type="curve" smooth="yes"/>
      <point x="463" y="713"/>
      <point x="433" y="744"/>
      <point x="393" y="744" type="curve" smooth="yes"/>
      <point x="354" y="744"/>
      <point x="322" y="713"/>
      <point x="322" y="673" type="curve" smooth="yes"/>
      <point x="322" y="634"/>
      <point x="354" y="603"/>
      <point x="393" y="603" type="curve" smooth="yes"/>
      <point x="433" y="603"/>
      <point x="463" y="634"/>
    </contour>
  </outline>
</glyph>
<glyph name="thorn" format="1">
  <advance width="591"/>
  <unicode hex="00FE"/>
  <outline>
    <contour>
      <point x="212" y="699" type="line"/>
      <point x="66" y="690" type="line"/>
      <point x="66" y="-219" type="line"/>
      <point x="212" y="-209" type="line"/>
      <point x="212" y="18" type="line"/>
      <point x="248" y="0"/>
      <point x="290" y="-11"/>
      <point x="324" y="-11" type="curve" smooth="yes"/>
      <point x="475" y="-11"/>
      <point x="552" y="100"/>
      <point x="552" y="247" type="curve" smooth="yes"/>
      <point x="552" y="393"/>
      <point x="476" y="503"/>
      <point x="327" y="503" type="curve" smooth="yes"/>
      <point x="291" y="503"/>
      <point x="249" y="492"/>
      <point x="212" y="472" type="curve"/>
    </contour>
    <contour>
      <point x="401" y="246" type="curve" smooth="yes"/>
      <point x="401" y="185"/>
      <point x="373" y="111"/>
      <point x="294" y="111" type="curve" smooth="yes"/>
      <point x="267" y="111"/>
      <point x="236" y="123"/>
      <point x="212" y="140" type="curve"/>
      <point x="212" y="356" type="line"/>
      <point x="235" y="370"/>
      <point x="262" y="380"/>
      <point x="289" y="380" type="curve" smooth="yes"/>
      <point x="375" y="380"/>
      <point x="401" y="316"/>
    </contour>
  </outline>
</glyph>
<glyph name="ydieresis" format="1">
  <advance width="523"/>
  <unicode hex="00FF"/>
  <outline>
    <contour>
      <point x="166" y="-16" type="line" smooth="yes"/>
      <point x="150" y="-56"/>
      <point x="88" y="-83"/>
      <point x="40" y="-102" type="curve"/>
      <point x="91" y="-221" type="line"/>
      <point x="181" y="-200"/>
      <point x="268" y="-140"/>
      <point x="300" y="-61" type="curve" smooth="yes"/>
      <point x="516" y="485" type="line"/>
      <point x="364" y="485" type="line"/>
      <point x="262" y="197" type="line"/>
      <point x="227" y="293"/>
      <point x="191" y="389"/>
      <point x="155" y="485" type="curve"/>
      <point x="7" y="467" type="line"/>
      <point x="183" y="25" type="line"/>
    </contour>
    <contour>
      <point x="235" y="673" type="curve" smooth="yes"/>
      <point x="235" y="712"/>
      <point x="203" y="744"/>
      <point x="163" y="744" type="curve" smooth="yes"/>
      <point x="125" y="744"/>
      <point x="92" y="712"/>
      <point x="92" y="673" type="curve" smooth="yes"/>
      <point x="92" y="633"/>
      <point x="125" y="603"/>
      <point x="163" y="603" type="curve" smooth="yes"/>
      <point x="203" y="603"/>
      <point x="235" y="633"/>
    </contour>
    <contour>
      <point x="432" y="673" type="curve" smooth="yes"/>
      <point x="432" y="712"/>
      <point x="402" y="744"/>
      <point x="362" y="744" type="curve" smooth="yes"/>
      <point x="323" y="744"/>
      <point x="291" y="712"/>
      <point x="291" y="673" type="curve" smooth="yes"/>
      <point x="291" y="633"/>
      <point x="323" y="603"/>
      <point x="362" y="603" type="curve" smooth="yes"/>
      <point x="402" y="603"/>
      <point x="432" y="633"/>
    </contour>
  </outline>
</glyph>
<glyph name="Amacron" format="1">
  <advance width="671"/>
  <unicode hex="0100"/>
  <outline>
    <contour>
      <point x="403" y="680" type="line"/>
      <point x="269" y="680" type="line"/>
      <point x="7" y="0" type="line"/>
      <point x="154" y="0" type="line"/>
      <point x="210" y="151" type="line"/>
      <point x="460" y="151" type="line"/>
      <point x="517" y="0" type="line"/>
      <point x="663" y="18" type="line"/>
    </contour>
    <contour>
      <point x="194" y="879" type="line"/>
      <point x="194" y="763" type="line"/>
      <point x="466" y="763" type="line"/>
      <point x="466" y="879" type="line"/>
    </contour>
    <contour>
      <point x="333" y="489" type="line"/>
      <point x="416" y="269" type="line"/>
      <point x="252" y="269" type="line"/>
    </contour>
  </outline>
</glyph>
<glyph name="amacron" format="1">
  <advance width="514"/>
  <unicode hex="0101"/>
  <outline>
    <contour>
      <point x="251" y="499" type="curve" smooth="yes"/>
      <point x="197" y="499"/>
      <point x="106" y="479"/>
      <point x="64" y="455" type="curve"/>
      <point x="103" y="339" type="line"/>
      <point x="140" y="356"/>
      <point x="197" y="370"/>
      <point x="238" y="370" type="curve" smooth="yes"/>
      <point x="281" y="370"/>
      <point x="308" y="345"/>
      <point x="311" y="303" type="curve"/>
      <point x="228" y="303" type="line" smooth="yes"/>
      <point x="117" y="303"/>
      <point x="42" y="251"/>
      <point x="42" y="149" type="curve" smooth="yes"/>
      <point x="42" y="53"/>
      <point x="99" y="-12"/>
      <point x="219" y="-12" type="curve" smooth="yes"/>
      <point x="270" y="-12"/>
      <point x="321" y="11"/>
      <point x="355" y="40" type="curve"/>
      <point x="387" y="0" type="line"/>
      <point x="459" y="0" type="line"/>
      <point x="459" y="313" type="line" smooth="yes"/>
      <point x="459" y="423"/>
      <point x="373" y="499"/>
    </contour>
    <contour>
      <point x="126" y="729" type="line"/>
      <point x="126" y="613" type="line"/>
      <point x="397" y="613" type="line"/>
      <point x="397" y="729" type="line"/>
    </contour>
    <contour>
      <point x="219" y="106" type="curve" smooth="yes"/>
      <point x="189" y="106"/>
      <point x="167" y="127"/>
      <point x="167" y="151" type="curve" smooth="yes"/>
      <point x="167" y="182"/>
      <point x="189" y="208"/>
      <point x="228" y="208" type="curve" smooth="yes"/>
      <point x="312" y="208" type="line"/>
      <point x="312" y="147" type="line"/>
      <point x="282" y="120"/>
      <point x="250" y="106"/>
    </contour>
  </outline>
</glyph>
<glyph name="Abreve" format="1">
  <advance width="671"/>
  <unicode hex="0102"/>
  <outline>
    <contour>
      <point x="403" y="680" type="line"/>
      <point x="269" y="680" type="line"/>
      <point x="7" y="0" type="line"/>
      <point x="154" y="0" type="line"/>
      <point x="210" y="151" type="line"/>
      <point x="460" y="151" type="line"/>
      <point x="517" y="0" type="line"/>
      <point x="663" y="18" type="line"/>
    </contour>
    <contour>
      <point x="333" y="739" type="curve"/>
      <point x="437" y="741"/>
      <point x="491" y="816"/>
      <point x="491" y="911" type="curve"/>
      <point x="390" y="911" type="line"/>
      <point x="390" y="877"/>
      <point x="372" y="845"/>
      <point x="333" y="845" type="curve" smooth="yes"/>
      <point x="293" y="845"/>
      <point x="277" y="877"/>
      <point x="277" y="911" type="curve"/>
      <point x="175" y="911" type="line"/>
      <point x="175" y="816"/>
      <point x="229" y="741"/>
    </contour>
    <contour>
      <point x="333" y="489" type="line"/>
      <point x="416" y="269" type="line"/>
      <point x="252" y="269" type="line"/>
    </contour>
  </outline>
</glyph>
<glyph name="Aogonek" format="1">
  <advance width="671"/>
  <unicode hex="0104"/>
  <outline>
    <contour>
      <point x="515" y="3" type="curve"/>
      <point x="493" y="-20"/>
      <point x="480" y="-62"/>
      <point x="480" y="-93" type="curve" smooth="yes"/>
      <point x="480" y="-159"/>
      <point x="528" y="-217"/>
      <point x="607" y="-217" type="curve" smooth="yes"/>
      <point x="650" y="-217"/>
      <point x="687" y="-205"/>
      <point x="716" y="-180" type="curve"/>
      <point x="671" y="-93" type="line"/>
      <point x="655" y="-105"/>
      <point x="639" y="-111"/>
      <point x="629" y="-111" type="curve" smooth="yes"/>
      <point x="608" y="-111"/>
      <point x="599" y="-97"/>
      <point x="599" y="-81" type="curve" smooth="yes"/>
      <point x="599" y="-54"/>
      <point x="641" y="0"/>
      <point x="663" y="17" type="curve"/>
      <point x="402" y="680" type="line"/>
      <point x="269" y="680" type="line"/>
      <point x="7" y="0" type="line"/>
      <point x="154" y="0" type="line"/>
      <point x="209" y="151" type="line"/>
      <point x="460" y="151" type="line"/>
      <point x="478" y="101"/>
      <point x="496" y="53"/>
    </contour>
    <contour>
      <point x="332" y="488" type="curve"/>
      <point x="416" y="268" type="line"/>
      <point x="251" y="268" type="line"/>
      <point x="279" y="342"/>
      <point x="305" y="415"/>
    </contour>
  </outline>
</glyph>
